<svg xmlns="http://www.w3.org/2000/svg" version="1.1" xmlns:xlink="http://www.w3.org/1999/xlink" xmlns:svgjs="http://svgjs.dev/svgjs" width="1440" height="560" preserveAspectRatio="none" viewBox="0 0 1440 560"><g mask="url(&quot;#SvgjsMask1680&quot;)" fill="none"><rect width="1440" height="560" x="0" y="0" fill="url(&quot;#SvgjsLinearGradient1681&quot;)"></rect><path d="M1440 0L1248.72 0L1440 191.34z" fill="rgba(255, 255, 255, .1)"></path><path d="M1248.72 0L1440 191.34L1440 246.76L721.35 0z" fill="rgba(255, 255, 255, .075)"></path><path d="M721.35 0L1440 246.76L1440 357.81L402.99 0z" fill="rgba(255, 255, 255, .05)"></path><path d="M402.99 0L1440 357.81L1440 397.73L190.11 0z" fill="rgba(255, 255, 255, .025)"></path><path d="M0 560L564.1 560L0 529.9z" fill="rgba(0, 0, 0, .1)"></path><path d="M0 529.9L564.1 560L847.1400000000001 560L0 295.2z" fill="rgba(0, 0, 0, .075)"></path><path d="M0 295.2L847.1400000000001 560L1122.3600000000001 560L0 194.87z" fill="rgba(0, 0, 0, .05)"></path><path d="M0 194.87L1122.3600000000001 560L1229.2900000000002 560L0 104.68z" fill="rgba(0, 0, 0, .025)"></path></g><defs><mask id="SvgjsMask1680"><rect width="1440" height="560" fill="#ffffff"></rect></mask><linearGradient x1="15.28%" y1="139.29%" x2="84.72%" y2="-39.29%" gradientUnits="userSpaceOnUse" id="SvgjsLinearGradient1681"><stop stop-color="rgba(14, 42, 71, 1)" offset="0.41"></stop><stop stop-color="rgba(0, 52, 118, 1)" offset="1"></stop></linearGradient></defs></svg>