<svg id="visual" viewBox="0 0 900 450" width="900" height="450" xmlns="http://www.w3.org/2000/svg" xmlns:xlink="http://www.w3.org/1999/xlink" version="1.1"><path d="M0 42L13.7 41.2C27.3 40.3 54.7 38.7 82 39.3C109.3 40 136.7 43 163.8 46C191 49 218 52 245.2 51.3C272.3 50.7 299.7 46.3 327 43.3C354.3 40.3 381.7 38.7 409 43.2C436.3 47.7 463.7 58.3 491 62.8C518.3 67.3 545.7 65.7 573 63.3C600.3 61 627.7 58 654.8 52.8C682 47.7 709 40.3 736.2 36.7C763.3 33 790.7 33 818 33C845.3 33 872.7 33 886.3 33L900 33L900 0L886.3 0C872.7 0 845.3 0 818 0C790.7 0 763.3 0 736.2 0C709 0 682 0 654.8 0C627.7 0 600.3 0 573 0C545.7 0 518.3 0 491 0C463.7 0 436.3 0 409 0C381.7 0 354.3 0 327 0C299.7 0 272.3 0 245.2 0C218 0 191 0 163.8 0C136.7 0 109.3 0 82 0C54.7 0 27.3 0 13.7 0L0 0Z" fill="#6198ff"></path><path d="M0 87L13.7 99C27.3 111 54.7 135 82 135.7C109.3 136.3 136.7 113.7 163.8 109.2C191 104.7 218 118.3 245.2 124.3C272.3 130.3 299.7 128.7 327 133.2C354.3 137.7 381.7 148.3 409 149.2C436.3 150 463.7 141 491 139.5C518.3 138 545.7 144 573 141C600.3 138 627.7 126 654.8 114.7C682 103.3 709 92.7 736.2 90.3C763.3 88 790.7 94 818 100.8C845.3 107.7 872.7 115.3 886.3 119.2L900 123L900 31L886.3 31C872.7 31 845.3 31 818 31C790.7 31 763.3 31 736.2 34.7C709 38.3 682 45.7 654.8 50.8C627.7 56 600.3 59 573 61.3C545.7 63.7 518.3 65.3 491 60.8C463.7 56.3 436.3 45.7 409 41.2C381.7 36.7 354.3 38.3 327 41.3C299.7 44.3 272.3 48.7 245.2 49.3C218 50 191 47 163.8 44C136.7 41 109.3 38 82 37.3C54.7 36.7 27.3 38.3 13.7 39.2L0 40Z" fill="#3c80ff"></path><path d="M0 217L13.7 220.8C27.3 224.7 54.7 232.3 82 230.2C109.3 228 136.7 216 163.8 223.5C191 231 218 258 245.2 279.7C272.3 301.3 299.7 317.7 327 322.2C354.3 326.7 381.7 319.3 409 302.8C436.3 286.3 463.7 260.7 491 256.8C518.3 253 545.7 271 573 278.5C600.3 286 627.7 283 654.8 268C682 253 709 226 736.2 223.8C763.3 221.7 790.7 244.3 818 246.7C845.3 249 872.7 231 886.3 222L900 213L900 121L886.3 117.2C872.7 113.3 845.3 105.7 818 98.8C790.7 92 763.3 86 736.2 88.3C709 90.7 682 101.3 654.8 112.7C627.7 124 600.3 136 573 139C545.7 142 518.3 136 491 137.5C463.7 139 436.3 148 409 147.2C381.7 146.3 354.3 135.7 327 131.2C299.7 126.7 272.3 128.3 245.2 122.3C218 116.3 191 102.7 163.8 107.2C136.7 111.7 109.3 134.3 82 133.7C54.7 133 27.3 109 13.7 97L0 85Z" fill="#0066ff"></path><path d="M0 411L13.7 405.7C27.3 400.3 54.7 389.7 82 380.7C109.3 371.7 136.7 364.3 163.8 370.3C191 376.3 218 395.7 245.2 403.8C272.3 412 299.7 409 327 409.8C354.3 410.7 381.7 415.3 409 410.8C436.3 406.3 463.7 392.7 491 391.8C518.3 391 545.7 403 573 399.3C600.3 395.7 627.7 376.3 654.8 372.7C682 369 709 381 736.2 387.7C763.3 394.3 790.7 395.7 818 400.2C845.3 404.7 872.7 412.3 886.3 416.2L900 420L900 211L886.3 220C872.7 229 845.3 247 818 244.7C790.7 242.3 763.3 219.7 736.2 221.8C709 224 682 251 654.8 266C627.7 281 600.3 284 573 276.5C545.7 269 518.3 251 491 254.8C463.7 258.7 436.3 284.3 409 300.8C381.7 317.3 354.3 324.7 327 320.2C299.7 315.7 272.3 299.3 245.2 277.7C218 256 191 229 163.8 221.5C136.7 214 109.3 226 82 228.2C54.7 230.3 27.3 222.7 13.7 218.8L0 215Z" fill="#0059dd"></path><path d="M0 451L13.7 451C27.3 451 54.7 451 82 451C109.3 451 136.7 451 163.8 451C191 451 218 451 245.2 451C272.3 451 299.7 451 327 451C354.3 451 381.7 451 409 451C436.3 451 463.7 451 491 451C518.3 451 545.7 451 573 451C600.3 451 627.7 451 654.8 451C682 451 709 451 736.2 451C763.3 451 790.7 451 818 451C845.3 451 872.7 451 886.3 451L900 451L900 418L886.3 414.2C872.7 410.3 845.3 402.7 818 398.2C790.7 393.7 763.3 392.3 736.2 385.7C709 379 682 367 654.8 370.7C627.7 374.3 600.3 393.7 573 397.3C545.7 401 518.3 389 491 389.8C463.7 390.7 436.3 404.3 409 408.8C381.7 413.3 354.3 408.7 327 407.8C299.7 407 272.3 410 245.2 401.8C218 393.7 191 374.3 163.8 368.3C136.7 362.3 109.3 369.7 82 378.7C54.7 387.7 27.3 398.3 13.7 403.7L0 409Z" fill="#004cbb"></path></svg>