<?xml version="1.0" encoding="utf-8"?>
<svg xmlns="http://www.w3.org/2000/svg" fill="none" height="90" viewBox="0 0 154 90" width="154">
<g clip-path="url(#clip0_17388_496)">
<path d="M88.7685 18.9342C88.7748 18.9379 88.7798 18.9409 88.7836 18.9432L89.8135 19.7648L90.9832 19.1184C96.9489 15.8221 103.011 14.5374 109.433 16.1104C119.54 18.6122 125.81 24.8945 128.474 34.9196L128.478 34.9343L128.482 34.949C128.675 35.6332 128.961 36.4994 129.603 37.2279C130.293 38.0113 131.186 38.4157 132.162 38.6344C144.312 41.5488 152.288 51.7837 151.992 63.7132L151.992 63.7151C151.696 76.1217 141.39 86.9593 128.979 87.8852C127.905 87.9616 126.79 88 125.714 88H125.523H125.333H125.143H124.952H124.762H124.572H124.381H124.191H124.001H123.81H123.62H123.43H123.239H123.049H122.858H122.668H122.478H122.287H122.097H121.907H121.716H121.526H121.336H121.145H120.955H120.765H120.574H120.384H120.194H120.003H119.813H119.623H119.432H119.242H119.052H118.861H118.671H118.481H118.29H118.1H117.91H117.719H117.529H117.339H117.148H116.958H116.768H116.577H116.387H116.197H116.006H115.816H115.626H115.435H115.245H115.055H114.864H114.674H114.484H114.293H114.103H113.913H113.722H113.532H113.342H113.152H112.961H112.771H112.581H112.39H112.2H112.01H111.819H111.629H111.439H111.248H111.058H110.868H110.678H110.487H110.297H110.107H109.916H109.726H109.536H109.345H109.155H108.965H108.775H108.584H108.394H108.204H108.013H107.823H107.633H107.442H107.252H107.062H106.872H106.681H106.491H106.301H106.11H105.92H105.73H105.54H105.349H105.159H104.969H104.778H104.588H104.398H104.208H104.017H103.827H103.637H103.446H103.256H103.066H102.876H102.685H102.495H102.305H102.114H101.924H101.734H101.544H101.353H101.163H100.973H100.782H100.592H100.402H100.212H100.021H99.8311H99.6408H99.4506H99.2603H99.07H98.8797H98.6895H98.4992H98.3089H98.1187H97.9284H97.7381H97.5478H97.3576H97.1673H96.977H96.7868H96.5965H96.4062H96.216H96.0257H95.8354H95.6452H95.4549H95.2646H95.0744H94.8841H94.6938H94.5036H94.3133H94.1231H93.9328H93.7425H93.5523H93.362H93.1717H92.9815H92.7912H92.601H92.4107H92.2204H92.0302H91.8399H91.6497H91.4594H91.2691H91.0789H90.8886H90.6984H90.5081H90.3179H90.1276H89.9373H89.7471H89.5568H89.3666H89.1763H88.9861H88.7958H88.6056H88.4153H88.2251H88.0348H87.8445H87.6543H87.464H87.2738H87.0835H86.8933H86.703H86.5128H86.3225H86.1323H85.942H85.7518H85.5615H85.3713H85.181H84.9908H84.8005H84.6103H84.42H84.2298H84.0395H83.8493H83.659H83.4688H83.2785H83.0882H82.898H82.7077H82.5175H82.3272H82.137H81.9467H81.7565H81.5663H81.376H81.1858H80.9955H80.8053H80.615H80.4248H80.2345H80.0443H79.854H79.6638H79.4735H79.2833H79.093H78.9028H78.7125H78.5223H78.332H78.1418H77.9515H77.7613H77.571H77.3808H77.1905H77.0003H76.81H76.6198H76.4295H76.2393H76.049H75.8588H75.6685H75.4783H75.288H75.0978H74.9076H74.7173H74.5271H74.3368H74.1466H73.9563H73.7661H73.5758H73.3856H73.1953H73.0051H72.8148H72.6246H72.4343H72.2441H72.0538H71.8636H71.6733H71.4831H71.2928H71.1026H70.9123H70.7221H70.5318H70.3416H70.1513H69.9611H69.7708H69.5806H69.3903H69.2001H69.0098H68.8196H68.6293H68.4391H68.2488H68.0586H67.8683H67.6781H67.4878H67.2975H67.1073H66.917H66.7268H66.5365H66.3463H66.156H65.9658H65.7755H65.5853H65.395H65.2048H65.0145H64.8242H64.634H64.4437H64.2535H64.0632H63.873H63.6827H63.4925H63.3022H63.1119H62.9217H62.7314H62.5412H62.3509H62.1606H61.9704H61.7801H61.5899H61.3996H61.2093H61.0191H60.8288H60.6386H60.4483H60.258H60.0678H59.8775H59.6872H59.497H59.3067H59.1165H58.9262H58.7359H58.5457H58.3554H58.1651H57.9749H57.7846H57.5943H57.4041H57.2138H57.0235H56.8333H56.643H56.4527H56.2625H56.0722H55.8819H55.6916H55.5014H55.3111H55.1208H54.9306H54.7403H54.55H54.3597H54.1695H53.9792H53.7889H53.5986H53.4084H53.2181H53.0278H52.8375H52.6473H52.457H52.2667H52.0764H51.8862H51.6959H51.5056H51.3153H51.125H50.9347H50.7445H50.5542H50.3639H50.1736H49.9833H49.793H49.6028H49.4125H49.2222H49.0319H48.8416H48.6513H48.461H48.2708H48.0805H47.8902H47.6999H47.5096H47.3193H47.129H46.9387H46.7484H46.5581H46.3678H46.1775H45.9872H45.7969H45.6066H45.4164H45.2261H45.0358H44.8455H44.6552H44.4649H44.2746H44.0843H43.894H43.7036H43.5133H43.323H43.1327H42.9424H42.7521H42.5618H42.3715H42.1812H41.9909H41.8006H41.6103H41.42H41.2297H41.0393H40.849H40.6587H40.4684H40.2781H40.0878H39.8975H39.7071H39.5168H39.3265H39.1362H38.9459H38.7555H38.5652H38.3749H38.1846H37.9943H37.8039H37.6136H37.4233H37.233H37.0426H36.8523H36.662H36.4716H36.2813H36.091H35.9007H35.7103H35.52H35.3297H35.1393H34.949H34.7586H34.5683H34.378H34.1876H33.9973H33.807H33.6166H33.4263H33.2359H33.0456H32.8552H32.6649H32.4746H32.2842H32.0939H31.9035H31.7132H31.5228H31.3325H31.1421H30.9518H30.7614H30.571H30.3807H30.1903H30H29.8096H29.6193H29.4289H29.2385H29.0482H28.8578H28.6675H28.4771H28.2867C18.4248 88 10.8244 84.0404 5.63703 75.7431C-3.02595 61.8238 4.53028 43.0896 20.5215 38.9829L20.526 38.9818C21.563 38.7129 22.7634 38.3239 23.6553 37.3778C24.5951 36.3809 24.8946 35.1028 24.9873 33.7865L24.9879 33.7772C26.2759 14.1719 43.6559 -0.182798 63.2545 2.27422L63.255 2.27428C73.2243 3.52162 81.1136 8.4042 86.939 16.6428L86.9461 16.6528C87.3271 17.1847 87.6606 17.6651 87.9895 18.1735C88.1213 18.3915 88.2804 18.567 88.4442 18.7052C88.5929 18.8307 88.7386 18.9165 88.7652 18.9322L88.7685 18.9342Z" fill="#F0F3FB" stroke="white" stroke-width="4"/>
<g clip-path="url(#clip1_17388_496)">
<path d="M72.6285 73C71.2549 72.9846 69.8864 72.9253 68.518 72.8069C65.411 72.5391 62.3562 71.9881 59.3561 71.1409C55.5062 70.0569 51.8466 68.5222 48.3852 66.5343C45.4997 64.8787 42.8176 62.9449 40.3388 60.7382C40.2554 60.6635 40.1746 60.5862 40.1146 60.491C39.9687 60.2618 39.9635 60.0172 40.1016 59.8266C40.2371 59.6387 40.4926 59.5614 40.7558 59.6284C40.8627 59.6541 40.9591 59.7005 41.053 59.7545C43.709 61.2737 46.4694 62.587 49.3235 63.7071C51.6068 64.6006 53.9319 65.3653 56.3012 66.0039C58.1023 66.488 59.9191 66.8974 61.7541 67.2322C63.1929 67.4948 64.6369 67.7111 66.0913 67.8759C67.6448 68.0536 69.2035 68.1772 70.7648 68.2493C72.5503 68.3291 74.3332 68.3394 76.1187 68.2673C77.3072 68.2184 78.4932 68.136 79.6792 68.0201C81.045 67.8862 82.403 67.7111 83.7584 67.4948C85.523 67.2116 87.272 66.8562 89.008 66.4313C92.2948 65.628 95.5034 64.5825 98.6235 63.2796C98.9467 63.1432 99.2751 63.1071 99.6087 63.2436C100.185 63.4805 100.362 64.1088 99.9971 64.6057C99.8928 64.7499 99.7573 64.8658 99.6139 64.9688C97.573 66.4468 95.3835 67.6699 93.082 68.7024C90.0037 70.0826 86.8028 71.1023 83.5056 71.8233C82.0563 72.14 80.5941 72.3949 79.124 72.588C76.9684 72.8687 74.8024 73.0129 72.6285 73Z" fill="#191D26"/>
<path d="M68.3382 49.9208C68.4373 49.5088 68.5363 49.0969 68.6354 48.6823C68.9169 47.4978 69.201 46.3108 69.4825 45.1263C70.0846 42.5977 70.6893 40.0666 71.294 37.538C71.466 36.8196 71.6224 36.0986 71.8205 35.3879C71.8362 35.3312 71.8596 35.2746 71.8805 35.2179C72.0134 34.8111 72.321 34.6309 72.7302 34.5897C73.2411 34.5382 73.7546 34.5716 74.2655 34.5665C74.5522 34.5639 74.8363 34.5588 75.1256 34.5845C75.5531 34.6231 75.8346 34.8343 75.9753 35.2334C76.1187 35.6402 76.1943 36.0625 76.296 36.4797C76.5514 37.5251 76.7964 38.5757 77.0466 39.6237C77.6566 42.1831 78.2691 44.7401 78.879 47.2995C79.1032 48.2343 79.3247 49.169 79.5724 50.1088C79.6115 49.9646 79.6558 49.8204 79.6923 49.6736C80.2344 47.5957 80.774 45.5203 81.3161 43.4423C81.9938 40.8519 82.6715 38.2589 83.3492 35.6686C83.3961 35.4857 83.4743 35.3132 83.5473 35.1381C83.6933 34.7879 83.9748 34.6386 84.3345 34.5897C84.4857 34.5691 84.6369 34.5639 84.788 34.5639C85.4006 34.5639 86.0131 34.5639 86.6256 34.5639C86.709 34.5639 86.7898 34.5691 86.8707 34.5871C87.087 34.6334 87.2147 34.7828 87.2304 35.0016C87.2486 35.2617 87.1991 35.5166 87.1209 35.7613C86.5474 37.5766 85.974 39.3893 85.4006 41.2021C84.7724 43.1874 84.1468 45.1752 83.5213 47.1605C82.9765 48.8883 82.4291 50.6161 81.8844 52.3439C81.7957 52.6271 81.7097 52.9103 81.5976 53.1859C81.4178 53.6287 81.0607 53.8064 80.615 53.8167C79.8669 53.8322 79.1214 53.8296 78.3734 53.8167C77.7634 53.8064 77.4611 53.518 77.3021 52.8588C77.0023 51.6151 76.7 50.374 76.3976 49.1303C75.686 46.2026 74.9744 43.2749 74.2655 40.3472C74.1508 39.876 74.0361 39.4048 73.9188 38.9336C73.9084 38.8924 73.9084 38.8486 73.8641 38.7997C73.7833 39.1293 73.7051 39.4434 73.6295 39.7601C73.0482 42.1574 72.467 44.5572 71.8883 46.9545C71.4661 48.7029 71.0438 50.4513 70.6215 52.1971C70.5486 52.4983 70.486 52.7996 70.3817 53.0932C70.2071 53.5772 69.9282 53.7858 69.4069 53.791C68.6432 53.7987 67.8769 53.7987 67.1131 53.791C66.657 53.7858 66.3468 53.5644 66.1722 53.1447C65.9923 52.7121 65.875 52.2563 65.7343 51.8108C65.3772 50.6624 65.0253 49.514 64.6734 48.363C64.1808 46.7588 63.6882 45.1521 63.1929 43.5479C62.8176 42.3299 62.4396 41.112 62.0669 39.8915C61.6238 38.434 61.152 36.9844 60.735 35.5166C60.6933 35.3724 60.662 35.2257 60.6646 35.0737C60.6698 34.7467 60.8496 34.5613 61.1833 34.5588C61.775 34.5536 62.364 34.5562 62.9557 34.5562C63.2372 34.5562 63.5187 34.5485 63.8002 34.5974C64.0844 34.6463 64.2824 34.806 64.4102 35.0531C64.517 35.2566 64.5952 35.4703 64.6526 35.6917C65.1322 37.5586 65.6118 39.4254 66.0914 41.2922C66.6831 43.5994 67.2747 45.9065 67.869 48.2137C68.0046 48.7415 68.1401 49.2694 68.2783 49.7972C68.2887 49.8384 68.3017 49.8771 68.3121 49.9183C68.32 49.926 68.3278 49.9234 68.3382 49.9208Z" fill="#191D26"/>
<path d="M58.5559 44.3951C58.5559 45.5872 58.5298 46.782 58.5663 47.9742C58.5845 48.5716 58.5976 49.1793 58.7487 49.7689C58.913 50.405 59.1945 50.9946 59.4968 51.574C59.5698 51.7156 59.648 51.8521 59.6793 52.0117C59.7236 52.228 59.661 52.4108 59.5203 52.5731C59.4186 52.6915 59.3013 52.7919 59.171 52.8795C58.7435 53.1576 58.3187 53.4434 57.8912 53.7189C57.5002 53.9712 57.1405 53.9687 56.8017 53.7215C56.6609 53.6185 56.5488 53.4872 56.4367 53.3558C55.9571 52.7996 55.6105 52.1611 55.2925 51.5045C55.1986 51.3113 55.2039 51.3088 55.0657 51.4607C54.2838 52.331 53.3845 53.0468 52.3158 53.5438C51.5313 53.9094 50.7076 54.1335 49.8474 54.2365C49.2688 54.306 48.6875 54.324 48.1063 54.2802C46.8317 54.185 45.6483 53.8322 44.6526 53.0031C43.7951 52.2898 43.2321 51.3937 42.9453 50.3226C42.7499 49.5964 42.6977 48.8574 42.7446 48.1158C42.815 46.9365 43.1747 45.8525 43.9332 44.9178C44.577 44.1221 45.3824 43.5299 46.3234 43.1179C47.1966 42.7342 48.1193 42.5385 49.0681 42.4587C49.5268 42.4201 49.9856 42.3995 50.4469 42.4149C51.0881 42.4381 51.7267 42.4947 52.3653 42.5771C53.189 42.6853 53.9996 42.8552 54.8077 43.0303C54.9588 43.0638 54.9615 43.0587 54.9615 42.9067C54.9615 42.3583 54.9719 41.8072 54.9588 41.2588C54.9406 40.5841 54.8676 39.9172 54.6643 39.2684C54.3307 38.1972 53.6008 37.5483 52.5165 37.2625C51.9639 37.1183 51.4035 37.0565 50.8327 37.0256C49.1958 36.9355 47.6449 37.3165 46.1201 37.8418C45.6692 37.9963 45.2417 38.2126 44.7751 38.3311C44.7047 38.3491 44.6318 38.3671 44.5588 38.3697C44.2564 38.3877 44.0818 38.259 44.0479 37.9629C43.9932 37.4839 44.0166 37.0024 44.0271 36.5235C44.0297 36.4333 44.0401 36.3432 44.0505 36.2557C44.0896 35.8823 44.3424 35.6737 44.6448 35.5115C45.2912 35.1639 45.9767 34.9038 46.6805 34.6927C47.4807 34.4558 48.2887 34.2575 49.1176 34.1545C49.4539 34.1133 49.7901 34.085 50.1289 34.0644C50.5616 34.0387 50.9969 34.0309 51.4296 34.0464C52.6495 34.0876 53.8511 34.2395 54.9953 34.7004C56.4967 35.3055 57.5028 36.3715 58.0476 37.8727C58.3082 38.5886 58.4464 39.3276 58.5115 40.082C58.5715 40.7721 58.5559 41.4622 58.5585 42.1523C58.5585 42.9016 58.5559 43.6483 58.5559 44.3951ZM54.9901 46.3932C54.9901 46.0765 54.9875 45.8499 54.9901 45.6207C54.9927 45.5332 54.9615 45.4894 54.8728 45.4688C53.8406 45.2268 52.7954 45.0748 51.7346 45.0208C51.281 44.9976 50.8249 44.9847 50.3687 45.013C49.7197 45.0542 49.0811 45.1444 48.4764 45.389C47.5146 45.7778 46.889 46.4602 46.6623 47.4747C46.5163 48.1158 46.5345 48.7621 46.6805 49.4007C46.8395 50.0934 47.2279 50.6367 47.8326 51.0204C48.2835 51.3062 48.7918 51.4221 49.3157 51.453C50.2984 51.5122 51.2445 51.3371 52.1594 50.9946C52.7485 50.7732 53.2568 50.4307 53.7155 50.0033C54.203 49.5501 54.5705 49.0248 54.7503 48.3811C54.9432 47.7013 55.011 47.006 54.9901 46.3932Z" fill="#191D26"/>
<path d="M102.166 36.8196C102.166 37.0204 102.166 37.2238 102.166 37.4247C102.166 37.5122 102.15 37.5946 102.127 37.677C102.043 37.95 101.832 38.0761 101.548 38.0246C101.24 37.9706 100.964 37.8315 100.683 37.7105C99.8042 37.3346 98.8867 37.108 97.9353 37.0024C97.3697 36.9406 96.8015 36.9123 96.2333 36.9354C95.4722 36.9663 94.7163 37.0539 94.0125 37.3732C93.1628 37.762 92.704 38.4083 92.6754 39.3482C92.6519 40.1052 92.923 40.7129 93.5277 41.1738C93.8691 41.4339 94.2549 41.627 94.6485 41.7969C95.5712 42.1883 96.546 42.4407 97.4974 42.7497C98.355 43.0303 99.2308 43.2543 100.054 43.6303C100.722 43.9341 101.35 44.2998 101.869 44.8199C102.622 45.5744 103.07 46.4833 103.214 47.5339C103.36 48.6154 103.237 49.6659 102.77 50.6624C102.387 51.4761 101.822 52.1533 101.11 52.7147C100.203 53.4279 99.1552 53.8322 98.0448 54.1026C97.4323 54.2519 96.8093 54.3343 96.1811 54.3678C94.3018 54.4708 92.4799 54.1747 90.6996 53.5927C90.2878 53.4588 89.889 53.2863 89.511 53.07C89.0862 52.8254 88.8203 52.4829 88.8099 51.986C88.7994 51.5328 88.7734 51.077 88.8255 50.6238C88.8698 50.2401 89.1018 50.0831 89.4928 50.1526C89.8212 50.2118 90.1157 50.3663 90.4181 50.4899C91.3773 50.8839 92.3704 51.1517 93.3974 51.3036C94.2158 51.4246 95.0395 51.4581 95.8631 51.4246C96.6164 51.3937 97.3593 51.2753 98.0526 50.9586C98.7642 50.6341 99.322 50.15 99.5279 49.375C99.7469 48.551 99.6426 47.7811 99.0249 47.1348C98.8242 46.9236 98.5791 46.7691 98.3211 46.6301C97.7138 46.3056 97.0621 46.0971 96.4079 45.8911C95.2011 45.5074 93.9708 45.1933 92.79 44.7375C91.969 44.4208 91.2183 43.9831 90.5927 43.3651C90.0401 42.8192 89.6179 42.178 89.3546 41.4493C88.8516 40.0511 88.8959 38.6735 89.5892 37.3474C90.1105 36.3484 90.9159 35.6068 91.896 35.048C92.7457 34.5639 93.6632 34.2755 94.6276 34.1262C95.1724 34.0438 95.7224 34.0077 96.275 34.0052C97.1716 34.0026 98.0578 34.1185 98.9362 34.2961C99.64 34.4378 100.331 34.6232 100.99 34.9064C101.342 35.0583 101.676 35.2437 101.926 35.5424C102.09 35.7407 102.163 35.9698 102.171 36.2196C102.171 36.4153 102.166 36.6187 102.166 36.8196Z" fill="#191D26"/>
<path d="M99.2934 60.854C98.5036 60.8669 97.6174 60.9209 96.7363 60.9982C95.9153 61.0703 95.0968 61.163 94.2758 61.2608C94.1767 61.2737 94.0751 61.2737 93.976 61.2634C93.6945 61.2325 93.5616 61.0162 93.658 60.7536C93.7388 60.5347 93.9057 60.3854 94.0933 60.2566C95.0265 59.618 96.0534 59.1777 97.1404 58.8764C98.8607 58.3949 100.617 58.243 102.4 58.3486C103.25 58.4001 104.092 58.5082 104.91 58.7631C105.085 58.8172 105.249 58.8893 105.416 58.9666C105.7 59.0953 105.857 59.3142 105.917 59.6129C106 60.0249 106.016 60.4394 105.982 60.8566C105.797 63.2616 105.054 65.494 103.808 67.5617C103.234 68.5119 102.536 69.3616 101.681 70.0774C101.551 70.1856 101.41 70.2808 101.246 70.3272C101.089 70.371 100.933 70.3787 100.805 70.2577C100.675 70.1315 100.677 69.9693 100.724 69.8122C100.813 69.5161 100.946 69.238 101.061 68.9496C101.626 67.5308 102.171 66.1043 102.565 64.6289C102.726 64.0186 102.862 63.4032 102.906 62.7723C102.924 62.4839 102.916 62.1981 102.849 61.9174C102.778 61.6342 102.611 61.4256 102.353 61.2892C101.991 61.096 101.598 61.0162 101.199 60.957C100.597 60.872 99.9945 60.854 99.2934 60.854Z" fill="#191D26"/>
</g>
</g>
<defs>
<clipPath id="clip0_17388_496">
<rect fill="white" height="90" width="154"/>
</clipPath>
<clipPath id="clip1_17388_496">
<rect fill="white" height="39" transform="translate(40 34)" width="66"/>
</clipPath>
</defs>
</svg>