<?xml version="1.0" encoding="utf-8"?>
<svg xmlns="http://www.w3.org/2000/svg" fill="none" height="90" viewBox="0 0 154 90" width="154">
<g clip-path="url(#clip0_17388_536)">
<path d="M88.7685 18.9342C88.7748 18.9379 88.7798 18.9409 88.7836 18.9432L89.8135 19.7648L90.9832 19.1184C96.9489 15.8221 103.011 14.5374 109.433 16.1104C119.54 18.6122 125.81 24.8945 128.474 34.9196L128.478 34.9343L128.482 34.949C128.675 35.6332 128.961 36.4994 129.603 37.2279C130.293 38.0113 131.186 38.4157 132.162 38.6344C144.312 41.5488 152.288 51.7837 151.992 63.7132L151.992 63.7151C151.696 76.1217 141.39 86.9593 128.979 87.8852C127.905 87.9616 126.79 88 125.714 88H125.523H125.333H125.143H124.952H124.762H124.572H124.381H124.191H124.001H123.81H123.62H123.43H123.239H123.049H122.858H122.668H122.478H122.287H122.097H121.907H121.716H121.526H121.336H121.145H120.955H120.765H120.574H120.384H120.194H120.003H119.813H119.623H119.432H119.242H119.052H118.861H118.671H118.481H118.29H118.1H117.91H117.719H117.529H117.339H117.148H116.958H116.768H116.577H116.387H116.197H116.006H115.816H115.626H115.435H115.245H115.055H114.864H114.674H114.484H114.293H114.103H113.913H113.722H113.532H113.342H113.152H112.961H112.771H112.581H112.39H112.2H112.01H111.819H111.629H111.439H111.248H111.058H110.868H110.678H110.487H110.297H110.107H109.916H109.726H109.536H109.345H109.155H108.965H108.775H108.584H108.394H108.204H108.013H107.823H107.633H107.442H107.252H107.062H106.872H106.681H106.491H106.301H106.11H105.92H105.73H105.54H105.349H105.159H104.969H104.778H104.588H104.398H104.208H104.017H103.827H103.637H103.446H103.256H103.066H102.876H102.685H102.495H102.305H102.114H101.924H101.734H101.544H101.353H101.163H100.973H100.782H100.592H100.402H100.212H100.021H99.8311H99.6408H99.4506H99.2603H99.07H98.8797H98.6895H98.4992H98.3089H98.1187H97.9284H97.7381H97.5478H97.3576H97.1673H96.977H96.7868H96.5965H96.4062H96.216H96.0257H95.8354H95.6452H95.4549H95.2646H95.0744H94.8841H94.6938H94.5036H94.3133H94.1231H93.9328H93.7425H93.5523H93.362H93.1717H92.9815H92.7912H92.601H92.4107H92.2204H92.0302H91.8399H91.6497H91.4594H91.2691H91.0789H90.8886H90.6984H90.5081H90.3179H90.1276H89.9373H89.7471H89.5568H89.3666H89.1763H88.9861H88.7958H88.6056H88.4153H88.2251H88.0348H87.8445H87.6543H87.464H87.2738H87.0835H86.8933H86.703H86.5128H86.3225H86.1323H85.942H85.7518H85.5615H85.3713H85.181H84.9908H84.8005H84.6103H84.42H84.2298H84.0395H83.8493H83.659H83.4688H83.2785H83.0882H82.898H82.7077H82.5175H82.3272H82.137H81.9467H81.7565H81.5663H81.376H81.1858H80.9955H80.8053H80.615H80.4248H80.2345H80.0443H79.854H79.6638H79.4735H79.2833H79.093H78.9028H78.7125H78.5223H78.332H78.1418H77.9515H77.7613H77.571H77.3808H77.1905H77.0003H76.81H76.6198H76.4295H76.2393H76.049H75.8588H75.6685H75.4783H75.288H75.0978H74.9076H74.7173H74.5271H74.3368H74.1466H73.9563H73.7661H73.5758H73.3856H73.1953H73.0051H72.8148H72.6246H72.4343H72.2441H72.0538H71.8636H71.6733H71.4831H71.2928H71.1026H70.9123H70.7221H70.5318H70.3416H70.1513H69.9611H69.7708H69.5806H69.3903H69.2001H69.0098H68.8196H68.6293H68.4391H68.2488H68.0586H67.8683H67.6781H67.4878H67.2975H67.1073H66.917H66.7268H66.5365H66.3463H66.156H65.9658H65.7755H65.5853H65.395H65.2048H65.0145H64.8242H64.634H64.4437H64.2535H64.0632H63.873H63.6827H63.4925H63.3022H63.1119H62.9217H62.7314H62.5412H62.3509H62.1606H61.9704H61.7801H61.5899H61.3996H61.2093H61.0191H60.8288H60.6386H60.4483H60.258H60.0678H59.8775H59.6872H59.497H59.3067H59.1165H58.9262H58.7359H58.5457H58.3554H58.1651H57.9749H57.7846H57.5943H57.4041H57.2138H57.0235H56.8333H56.643H56.4527H56.2625H56.0722H55.8819H55.6916H55.5014H55.3111H55.1208H54.9306H54.7403H54.55H54.3597H54.1695H53.9792H53.7889H53.5986H53.4084H53.2181H53.0278H52.8375H52.6473H52.457H52.2667H52.0764H51.8862H51.6959H51.5056H51.3153H51.125H50.9347H50.7445H50.5542H50.3639H50.1736H49.9833H49.793H49.6028H49.4125H49.2222H49.0319H48.8416H48.6513H48.461H48.2708H48.0805H47.8902H47.6999H47.5096H47.3193H47.129H46.9387H46.7484H46.5581H46.3678H46.1775H45.9872H45.7969H45.6066H45.4164H45.2261H45.0358H44.8455H44.6552H44.4649H44.2746H44.0843H43.894H43.7036H43.5133H43.323H43.1327H42.9424H42.7521H42.5618H42.3715H42.1812H41.9909H41.8006H41.6103H41.42H41.2297H41.0393H40.849H40.6587H40.4684H40.2781H40.0878H39.8975H39.7071H39.5168H39.3265H39.1362H38.9459H38.7555H38.5652H38.3749H38.1846H37.9943H37.8039H37.6136H37.4233H37.233H37.0426H36.8523H36.662H36.4716H36.2813H36.091H35.9007H35.7103H35.52H35.3297H35.1393H34.949H34.7586H34.5683H34.378H34.1876H33.9973H33.807H33.6166H33.4263H33.2359H33.0456H32.8552H32.6649H32.4746H32.2842H32.0939H31.9035H31.7132H31.5228H31.3325H31.1421H30.9518H30.7614H30.571H30.3807H30.1903H30H29.8096H29.6193H29.4289H29.2385H29.0482H28.8578H28.6675H28.4771H28.2867C18.4248 88 10.8244 84.0404 5.63703 75.7431C-3.02595 61.8238 4.53028 43.0896 20.5215 38.9829L20.526 38.9818C21.563 38.7129 22.7634 38.3239 23.6553 37.3778C24.5951 36.3809 24.8946 35.1028 24.9873 33.7865L24.9879 33.7772C26.2759 14.1719 43.6559 -0.182798 63.2545 2.27422L63.255 2.27428C73.2243 3.52162 81.1136 8.4042 86.939 16.6428L86.9461 16.6528C87.3271 17.1847 87.6606 17.6651 87.9895 18.1735C88.1213 18.3915 88.2804 18.567 88.4442 18.7052C88.5929 18.8307 88.7386 18.9165 88.7652 18.9322L88.7685 18.9342Z" fill="#F0F3FB" stroke="white" stroke-width="4"/>
<g clip-path="url(#clip1_17388_536)">
<path d="M89.7881 71C85.4902 71 81.1924 71 76.8945 71C76.8919 70.9545 76.8866 70.9118 76.8866 70.8663C76.8866 67.7387 76.8866 64.6138 76.8866 61.4862C76.9472 61.4836 77.0105 61.4809 77.0712 61.4809C80.9208 61.4809 84.7704 61.4809 88.6174 61.4809C89.3583 61.4809 90.0781 61.3526 90.7689 61.0799C93.9093 59.8449 95.3542 56.2896 93.9831 53.2155C92.9811 50.9674 91.1908 49.7939 88.7518 49.6683C88.6543 49.6629 88.6253 49.6335 88.6279 49.5346C88.6332 49.1069 88.6305 48.6792 88.6305 48.2515C88.6279 46.7572 88.3616 45.311 87.8211 43.921C87.2067 42.3358 86.297 40.9485 85.0973 39.7562C84.8521 39.513 84.5885 39.2911 84.338 39.0559C85.2318 38.1497 86.1283 37.2435 87.0221 36.3373C88.3194 35.0221 89.6167 33.7042 90.9139 32.389C90.935 32.4051 90.9561 32.4184 90.9772 32.4372C92.0846 33.4396 93.0787 34.5489 93.9541 35.7652C95.4544 37.8503 96.5512 40.1358 97.2394 42.6218C97.2737 42.7502 97.337 42.8384 97.4451 42.9132C98.3574 43.5468 99.188 44.2792 99.9394 45.1052C101.835 47.1929 103.077 49.6282 103.668 52.4029C103.81 53.0738 103.908 53.7528 103.955 54.4372C103.958 54.4719 103.931 54.5307 104.003 54.5361C104.003 55.2391 104.003 55.9448 104.003 56.6478C103.995 56.6425 103.989 56.6398 103.982 56.6345C103.976 56.6452 103.966 56.6585 103.966 56.6692C103.937 57.0568 103.9 57.4418 103.844 57.824C103.607 59.4921 103.114 61.0773 102.36 62.5769C101.334 64.6112 99.9342 66.3327 98.1544 67.7361C96.3113 69.1903 94.2468 70.1633 91.9634 70.6605C91.2804 70.8102 90.5896 70.9118 89.8909 70.9599C89.854 70.9572 89.7986 70.9305 89.7881 71Z" fill="#191D26"/>
<path d="M50 56.6185C50 55.9155 50 55.2097 50 54.5067C50.0053 54.512 50.0132 54.5174 50.0211 54.5227C50.0211 54.5227 50.029 54.5174 50.029 54.5147C50.0369 54.48 50.0448 54.4452 50.0475 54.4131C50.1028 53.6165 50.2188 52.828 50.4034 52.0528C51.1865 48.7648 52.8477 46.0221 55.371 43.8168C55.7296 43.5014 56.1146 43.218 56.4916 42.9293C56.4969 42.9213 56.5048 42.9106 56.5101 42.9026H56.5074C56.5628 42.9079 56.5944 42.8651 56.634 42.8384C58.3531 41.6489 60.2331 40.8416 62.2766 40.4326C63.3734 40.2134 64.4809 40.1172 65.6015 40.1439C66.49 40.1653 67.3681 40.2695 68.2408 40.4406C68.4808 40.4967 68.7207 40.5449 68.958 40.609C72.3146 41.4992 75.0699 43.3196 77.2268 46.0729C77.3059 46.1718 77.2979 46.2199 77.2109 46.3082C75.4259 48.1125 73.6435 49.9223 71.8584 51.7293C71.4392 52.1543 71.0173 52.5767 70.6007 53.0071C70.5269 53.0846 70.4979 53.0712 70.4609 52.9803C70.424 52.8895 70.3766 52.8039 70.3317 52.7184C68.8314 49.8795 65.3352 48.7728 62.5086 50.2404C60.2964 51.3871 59.0439 53.7823 59.3604 56.2897C59.5528 57.8214 60.2489 59.0858 61.4064 60.0909C61.8125 60.4438 62.2713 60.7164 62.7485 60.9543C62.709 60.9971 62.6721 61.0399 62.6325 61.08C61.5225 62.2027 60.4124 63.3254 59.305 64.4481C58.1896 65.5789 57.077 66.7096 55.9643 67.8404C55.9142 67.8056 55.8641 67.7709 55.814 67.7334C54.8964 67.001 54.0711 66.1723 53.3434 65.2447C51.764 63.2319 50.7356 60.9597 50.2637 58.4336C50.1582 57.8722 50.0844 57.3082 50.0448 56.7388C50.0422 56.696 50.0712 56.6345 50 56.6185Z" fill="#191D26"/>
<path d="M68.2382 40.4379C67.3654 40.2668 66.4874 40.1626 65.5988 40.1412C64.4782 40.1145 63.3734 40.208 62.2739 40.4299C60.2304 40.8389 58.3505 41.6462 56.6313 42.8357C56.5918 42.8625 56.5601 42.9052 56.5048 42.8999C56.4968 42.8357 56.5259 42.7769 56.5417 42.7181C56.9451 41.2746 57.4883 39.8872 58.1685 38.5533C59.2179 36.495 60.5548 34.6479 62.1974 33.0386C63.7926 31.4775 65.5883 30.1998 67.5816 29.2107C69.2744 28.3713 71.0436 27.7725 72.8893 27.4063C73.8043 27.2245 74.7271 27.1016 75.6579 27.0454C75.6948 27.0428 75.7502 27.0722 75.7607 27C76.6124 27 77.4667 27 78.3183 27C78.35 27.0428 78.35 27.0428 78.4159 27.0481C79.3546 27.1096 80.2853 27.2352 81.2055 27.425C84.1455 28.0292 86.8323 29.216 89.2528 31.0124C89.8302 31.4401 90.3892 31.8945 90.9113 32.3917C89.614 33.7069 88.3168 35.0248 87.0195 36.34C86.1257 37.2462 85.2318 38.1524 84.3353 39.0586C83.9741 38.7859 83.6155 38.5052 83.2305 38.2646C80.7468 36.7035 78.0547 36.1555 75.1754 36.61C72.9157 36.9655 70.925 37.9278 69.2032 39.4569C68.8604 39.7616 68.5282 40.0797 68.2382 40.4379Z" fill="#191D26"/>
<path d="M55.9617 67.8377C57.0744 66.7069 58.1897 65.5762 59.3024 64.4455C60.4098 63.3227 61.5199 62.2 62.6299 61.0773C62.6695 61.0372 62.709 60.9944 62.7459 60.9517C62.775 60.9624 62.804 60.9704 62.833 60.9837C63.6161 61.3339 64.4361 61.4863 65.293 61.4863C69.1004 61.4809 72.9079 61.4836 76.7153 61.4836C76.7733 61.4836 76.8287 61.4863 76.8867 61.489C76.8867 64.6165 76.8867 67.7415 76.8867 70.869C76.8867 70.9145 76.8919 70.9572 76.8946 71.0027C72.631 71.0027 68.3701 71.0027 64.1065 71.0027C64.088 70.9385 64.03 70.9599 63.9878 70.9573C63.5581 70.9278 63.1309 70.8717 62.7064 70.8022C60.7104 70.4654 58.8568 69.749 57.1376 68.669C56.7342 68.4097 56.3334 68.1451 55.9617 67.8377Z" fill="#191D26"/>
<path d="M56.4916 42.9266C56.4916 42.9133 56.4916 42.8999 56.51 42.8999C56.5048 42.9079 56.4969 42.9186 56.4916 42.9266Z" fill="#191D26"/>
</g>
</g>
<defs>
<clipPath id="clip0_17388_536">
<rect fill="white" height="90" width="154"/>
</clipPath>
<clipPath id="clip1_17388_536">
<rect fill="white" height="44" transform="translate(50 27)" width="54"/>
</clipPath>
</defs>
</svg>