<?xml version="1.0" encoding="utf-8"?>
<svg xmlns="http://www.w3.org/2000/svg" fill="none" height="90" viewBox="0 0 154 90" width="154">
<g clip-path="url(#clip0_17402_3141)">
<path d="M88.7685 18.9342C88.7748 18.9379 88.7798 18.9409 88.7836 18.9432L89.8135 19.7648L90.9832 19.1184C96.9489 15.8221 103.011 14.5374 109.433 16.1104C119.54 18.6122 125.81 24.8945 128.474 34.9196L128.478 34.9343L128.482 34.949C128.675 35.6332 128.961 36.4994 129.603 37.2279C130.293 38.0113 131.186 38.4157 132.162 38.6344C144.312 41.5488 152.288 51.7837 151.992 63.7132L151.992 63.7151C151.696 76.1217 141.39 86.9593 128.979 87.8852C127.905 87.9616 126.79 88 125.714 88H125.523H125.333H125.143H124.952H124.762H124.572H124.381H124.191H124.001H123.81H123.62H123.43H123.239H123.049H122.858H122.668H122.478H122.287H122.097H121.907H121.716H121.526H121.336H121.145H120.955H120.765H120.574H120.384H120.194H120.003H119.813H119.623H119.432H119.242H119.052H118.861H118.671H118.481H118.29H118.1H117.91H117.719H117.529H117.339H117.148H116.958H116.768H116.577H116.387H116.197H116.006H115.816H115.626H115.435H115.245H115.055H114.864H114.674H114.484H114.293H114.103H113.913H113.722H113.532H113.342H113.152H112.961H112.771H112.581H112.39H112.2H112.01H111.819H111.629H111.439H111.248H111.058H110.868H110.678H110.487H110.297H110.107H109.916H109.726H109.536H109.345H109.155H108.965H108.775H108.584H108.394H108.204H108.013H107.823H107.633H107.442H107.252H107.062H106.872H106.681H106.491H106.301H106.11H105.92H105.73H105.54H105.349H105.159H104.969H104.778H104.588H104.398H104.208H104.017H103.827H103.637H103.446H103.256H103.066H102.876H102.685H102.495H102.305H102.114H101.924H101.734H101.544H101.353H101.163H100.973H100.782H100.592H100.402H100.212H100.021H99.8311H99.6408H99.4506H99.2603H99.07H98.8797H98.6895H98.4992H98.3089H98.1187H97.9284H97.7381H97.5478H97.3576H97.1673H96.977H96.7868H96.5965H96.4062H96.216H96.0257H95.8354H95.6452H95.4549H95.2646H95.0744H94.8841H94.6938H94.5036H94.3133H94.1231H93.9328H93.7425H93.5523H93.362H93.1717H92.9815H92.7912H92.601H92.4107H92.2204H92.0302H91.8399H91.6497H91.4594H91.2691H91.0789H90.8886H90.6984H90.5081H90.3179H90.1276H89.9373H89.7471H89.5568H89.3666H89.1763H88.9861H88.7958H88.6056H88.4153H88.2251H88.0348H87.8445H87.6543H87.464H87.2738H87.0835H86.8933H86.703H86.5128H86.3225H86.1323H85.942H85.7518H85.5615H85.3713H85.181H84.9908H84.8005H84.6103H84.42H84.2298H84.0395H83.8493H83.659H83.4688H83.2785H83.0882H82.898H82.7077H82.5175H82.3272H82.137H81.9467H81.7565H81.5663H81.376H81.1858H80.9955H80.8053H80.615H80.4248H80.2345H80.0443H79.854H79.6638H79.4735H79.2833H79.093H78.9028H78.7125H78.5223H78.332H78.1418H77.9515H77.7613H77.571H77.3808H77.1905H77.0003H76.81H76.6198H76.4295H76.2393H76.049H75.8588H75.6685H75.4783H75.288H75.0978H74.9076H74.7173H74.5271H74.3368H74.1466H73.9563H73.7661H73.5758H73.3856H73.1953H73.0051H72.8148H72.6246H72.4343H72.2441H72.0538H71.8636H71.6733H71.4831H71.2928H71.1026H70.9123H70.7221H70.5318H70.3416H70.1513H69.9611H69.7708H69.5806H69.3903H69.2001H69.0098H68.8196H68.6293H68.4391H68.2488H68.0586H67.8683H67.6781H67.4878H67.2975H67.1073H66.917H66.7268H66.5365H66.3463H66.156H65.9658H65.7755H65.5853H65.395H65.2048H65.0145H64.8242H64.634H64.4437H64.2535H64.0632H63.873H63.6827H63.4925H63.3022H63.1119H62.9217H62.7314H62.5412H62.3509H62.1606H61.9704H61.7801H61.5899H61.3996H61.2093H61.0191H60.8288H60.6386H60.4483H60.258H60.0678H59.8775H59.6872H59.497H59.3067H59.1165H58.9262H58.7359H58.5457H58.3554H58.1651H57.9749H57.7846H57.5943H57.4041H57.2138H57.0235H56.8333H56.643H56.4527H56.2625H56.0722H55.8819H55.6916H55.5014H55.3111H55.1208H54.9306H54.7403H54.55H54.3597H54.1695H53.9792H53.7889H53.5986H53.4084H53.2181H53.0278H52.8375H52.6473H52.457H52.2667H52.0764H51.8862H51.6959H51.5056H51.3153H51.125H50.9347H50.7445H50.5542H50.3639H50.1736H49.9833H49.793H49.6028H49.4125H49.2222H49.0319H48.8416H48.6513H48.461H48.2708H48.0805H47.8902H47.6999H47.5096H47.3193H47.129H46.9387H46.7484H46.5581H46.3678H46.1775H45.9872H45.7969H45.6066H45.4164H45.2261H45.0358H44.8455H44.6552H44.4649H44.2746H44.0843H43.894H43.7036H43.5133H43.323H43.1327H42.9424H42.7521H42.5618H42.3715H42.1812H41.9909H41.8006H41.6103H41.42H41.2297H41.0393H40.849H40.6587H40.4684H40.2781H40.0878H39.8975H39.7071H39.5168H39.3265H39.1362H38.9459H38.7555H38.5652H38.3749H38.1846H37.9943H37.8039H37.6136H37.4233H37.233H37.0426H36.8523H36.662H36.4716H36.2813H36.091H35.9007H35.7103H35.52H35.3297H35.1393H34.949H34.7586H34.5683H34.378H34.1876H33.9973H33.807H33.6166H33.4263H33.2359H33.0456H32.8552H32.6649H32.4746H32.2842H32.0939H31.9035H31.7132H31.5228H31.3325H31.1421H30.9518H30.7614H30.571H30.3807H30.1903H30H29.8096H29.6193H29.4289H29.2385H29.0482H28.8578H28.6675H28.4771H28.2867C18.4248 88 10.8244 84.0404 5.63703 75.7431C-3.02595 61.8238 4.53028 43.0896 20.5215 38.9829L20.526 38.9818C21.563 38.7129 22.7634 38.3239 23.6553 37.3778C24.5951 36.3809 24.8946 35.1028 24.9873 33.7865L24.9879 33.7772C26.2759 14.1719 43.6559 -0.182798 63.2545 2.27422L63.255 2.27428C73.2243 3.52162 81.1136 8.4042 86.939 16.6428L86.9461 16.6528C87.3271 17.1847 87.6606 17.6651 87.9895 18.1735C88.1213 18.3915 88.2804 18.567 88.4442 18.7052C88.5929 18.8307 88.7386 18.9165 88.7652 18.9322L88.7685 18.9342Z" fill="#F0F3FB" stroke="white" stroke-width="4"/>
<mask height="48" id="mask0_17402_3141" maskUnits="userSpaceOnUse" style="mask-type:luminance" width="48" x="53" y="28">
<path d="M101 28H53V76H101V28Z" fill="white"/>
</mask>
<g mask="url(#mask0_17402_3141)">
<path d="M72.9523 73.5882C69.9248 73.5882 66.9506 73.5882 63.9764 73.5882C63.7764 73.5882 63.5763 73.5882 63.3896 73.5882C62.1759 75.6937 60.9889 76.3333 59.2551 75.8403C57.8947 75.4538 56.9478 74.1079 57.0012 72.6554C57.0678 71.1362 58.1615 69.9102 59.7086 69.6304C61.229 69.3506 62.5227 70.1901 63.3229 71.9624C66.5105 71.9624 69.698 71.9624 72.9656 71.9624C73.2724 70.0168 74.8328 70.43 76.1665 70.3766C76.1665 69.3239 76.1665 68.3111 76.1665 67.1918C75.9398 67.1918 75.713 67.1918 75.473 67.1918C72.0987 67.1918 68.7111 67.1918 65.3368 67.1918C63.523 67.1918 62.5894 66.2589 62.5894 64.4333C62.5894 62.6343 62.5894 60.8353 62.5894 59.0363C62.5894 57.0774 63.0829 56.4377 64.9634 55.918C64.9634 55.4383 64.9634 54.9585 64.9634 54.4788C63.0695 53.9325 62.6027 53.3195 62.6027 51.3605C62.6027 49.5216 62.6027 47.6693 62.6027 45.8303C62.6027 44.1779 63.5763 43.2051 65.2034 43.2051C73.0723 43.2051 80.9412 43.2051 88.81 43.2051C90.4505 43.2051 91.4107 44.1779 91.4107 45.8303C91.4107 47.6559 91.4107 49.4683 91.4107 51.2939C91.4107 53.3195 90.9573 53.9325 89.0367 54.4788C89.0367 54.9585 89.0367 55.4383 89.0367 55.918C90.9306 56.4377 91.4107 57.0774 91.4107 59.0363C91.4107 60.8619 91.4107 62.6743 91.4107 64.4999C91.4107 66.2323 90.4638 67.1918 88.73 67.1918C85.3557 67.1918 81.9681 67.1918 78.5938 67.1918C78.3538 67.1918 78.1137 67.1918 77.8336 67.1918C77.8336 68.2578 77.8336 69.2706 77.8336 70.3633C79.0873 70.4699 80.6877 69.9635 81.0212 71.9491C84.2354 71.9491 87.423 71.9491 90.6238 71.9491C91.8375 69.8569 93.0645 69.204 94.8117 69.737C96.1587 70.1501 97.0923 71.536 96.9989 72.9619C96.9056 74.4544 95.8253 75.6404 94.3049 75.9202C92.7844 76.2001 91.4774 75.3605 90.6905 73.5882C87.503 73.5882 84.3154 73.5882 81.2212 73.5882C80.8878 74.0546 80.6744 74.601 80.2743 74.8542C79.8609 75.1074 79.274 75.134 78.7539 75.1473C77.5135 75.1873 76.2599 75.1607 75.0195 75.1607C73.7525 75.1873 73.3124 74.8542 72.9523 73.5882ZM76.9801 52.7997C80.8745 52.7997 84.7555 52.7997 88.65 52.7997C89.5569 52.7997 89.8103 52.5466 89.8103 51.667C89.8103 49.7614 89.8103 47.8425 89.8103 45.9369C89.8103 45.084 89.5435 44.8042 88.7166 44.8042C80.9145 44.8042 73.1123 44.8042 65.3101 44.8042C64.4699 44.8042 64.2165 45.0707 64.2165 45.9369C64.2165 47.8292 64.2165 49.7081 64.2165 51.6004C64.2165 52.5732 64.4566 52.7997 65.4435 52.7997C69.2846 52.7997 73.1256 52.7997 76.9801 52.7997ZM76.9801 65.5926C80.8745 65.5926 84.7555 65.5926 88.65 65.5926C89.5569 65.5926 89.8103 65.3394 89.8103 64.4599C89.8103 62.5543 89.8103 60.6354 89.8103 58.7298C89.8103 57.8503 89.5435 57.5971 88.65 57.5971C80.8878 57.5971 73.139 57.5971 65.3768 57.5971C64.4566 57.5971 64.2165 57.8503 64.2165 58.7964C64.2165 60.6354 64.2165 62.4877 64.2165 64.3267C64.2165 65.3794 64.4299 65.5926 65.5102 65.5926C69.3246 65.5926 73.1523 65.5926 76.9801 65.5926ZM66.6305 55.958C73.5924 55.958 80.4744 55.958 87.3563 55.958C87.3563 55.425 87.3563 54.9186 87.3563 54.4655C80.4077 54.4655 73.5258 54.4655 66.6305 54.4655C66.6305 54.9719 66.6305 55.4383 66.6305 55.958ZM60.2154 71.2029C59.3752 71.2029 58.6416 71.9091 58.6149 72.762C58.5883 73.6282 59.3351 74.3878 60.2021 74.3878C61.0423 74.3878 61.7758 73.6815 61.8025 72.8286C61.8158 71.9624 61.0823 71.2029 60.2154 71.2029ZM93.7847 74.3878C94.625 74.4011 95.3718 73.7081 95.4118 72.8553C95.4519 71.9891 94.7183 71.2162 93.8514 71.1895C93.0112 71.1762 92.2643 71.8692 92.2243 72.722C92.1843 73.5882 92.9045 74.3611 93.7847 74.3878ZM74.6461 72.0157C74.6461 72.5621 74.6461 73.0418 74.6461 73.5482C76.2332 73.5482 77.7936 73.5482 79.3674 73.5482C79.3674 73.0152 79.3674 72.5221 79.3674 72.0157C77.7669 72.0157 76.2332 72.0157 74.6461 72.0157Z" fill="#191D26"/>
<path d="M65.8703 37.5811C66.9773 30.9315 72.7522 27.8665 77.3001 27.9998C81.8747 28.133 87.0895 31.3179 88.1698 37.7144C89.1968 37.7144 90.2371 37.6078 91.264 37.7277C96.1187 38.3007 100.12 42.1386 100.853 46.8426C101.654 51.9465 99.1595 56.7704 94.625 58.9026C94.4382 58.9826 94.2382 59.1425 94.0781 59.1158C93.7447 59.0492 93.2779 58.9426 93.1712 58.716C93.0512 58.4762 93.1979 57.9698 93.3979 57.7566C93.6914 57.4634 94.1715 57.3435 94.5583 57.1169C98.2126 55.0248 100.027 51.027 99.2262 46.856C98.4794 42.9515 95.2251 39.8465 91.1573 39.3268C90.077 39.1935 88.9434 39.3135 87.8497 39.4201C86.9562 39.5 86.6627 39.3668 86.5827 38.4473C86.1426 33.6233 82.6216 30.5184 79.0073 29.7988C73.3657 28.6794 68.2043 32.3973 67.5108 38.0875C67.4974 38.2208 67.4707 38.354 67.4574 38.4873C67.3374 39.3401 67.0573 39.5667 66.2037 39.3934C64.3899 39.0203 62.6294 39.1536 60.8956 39.7666C57.3613 41.0059 54.7872 44.5239 54.6272 48.3485C54.4671 52.173 56.6544 55.851 60.0554 57.4101C60.9223 57.8099 61.1757 58.183 60.9356 58.7027C60.6822 59.2224 60.2421 59.289 59.4419 58.9026C54.9739 56.7704 52.64 52.213 53.0667 47.7221C53.5602 42.525 57.508 38.6205 62.1493 37.821C63.3496 37.6078 64.6033 37.6477 65.8703 37.5811Z" fill="#191D26"/>
<path d="M66.6037 48.7486C66.6304 47.8691 67.3906 47.1628 68.2709 47.2028C69.1511 47.2428 69.8446 48.0157 69.8046 48.8819C69.7513 49.7347 69.0177 50.4143 68.1775 50.401C67.2973 50.3877 66.5771 49.6281 66.6037 48.7486Z" fill="#191D26"/>
<path d="M74.606 48.7886C74.6194 49.6681 73.8858 50.401 73.0056 50.401C72.152 50.401 71.4318 49.7081 71.4051 48.8552C71.3785 47.9757 72.0853 47.2295 72.9656 47.2028C73.8458 47.1895 74.5927 47.9091 74.606 48.7886Z" fill="#191D26"/>
<path d="M79.4206 48.8153C79.4206 48.5221 79.3939 48.2422 79.4206 47.9491C79.474 47.496 79.7674 47.1495 80.2075 47.2428C80.5009 47.3094 80.901 47.6426 80.9544 47.9091C81.0744 48.4821 81.0744 49.1084 80.9544 49.6814C80.901 49.9613 80.5143 50.2944 80.2208 50.3611C79.7807 50.4544 79.4873 50.1212 79.4206 49.6681C79.3806 49.3883 79.4206 49.0951 79.4206 48.8153Z" fill="#191D26"/>
<path d="M82.6215 48.7884C82.6215 48.4952 82.5281 48.1621 82.6482 47.9355C82.8082 47.6424 83.1016 47.3092 83.3951 47.2426C83.8352 47.136 84.1553 47.4825 84.1953 47.9222C84.2486 48.4952 84.2353 49.0682 84.1953 49.6413C84.1686 50.0943 83.8752 50.3742 83.4084 50.3742C82.9416 50.3742 82.6749 50.081 82.6215 49.6279C82.5948 49.3614 82.6215 49.0682 82.6215 48.7884Z" fill="#191D26"/>
<path d="M85.8092 48.8016C85.8092 48.5617 85.7958 48.3085 85.8092 48.0687C85.8358 47.549 86.1026 47.2158 86.6227 47.2158C87.1162 47.2158 87.3829 47.549 87.3963 48.042C87.4096 48.5484 87.4229 49.0548 87.3963 49.5745C87.3829 50.0542 87.1028 50.3874 86.6227 50.3874C86.0892 50.3874 85.8358 50.0542 85.8092 49.5345C85.7958 49.2947 85.8092 49.0415 85.8092 48.8016Z" fill="#191D26"/>
<path d="M69.8047 61.5678C69.818 62.4473 69.0978 63.1936 68.2176 63.1936C67.364 63.1936 66.6438 62.5006 66.6038 61.6478C66.5638 60.7682 67.2706 60.022 68.1642 59.9953C69.0311 59.9687 69.7913 60.6883 69.8047 61.5678Z" fill="#191D26"/>
<path d="M74.606 61.5949C74.606 62.4744 73.8724 63.2073 72.9922 63.194C72.112 63.194 71.3918 62.4478 71.4051 61.5682C71.4184 60.7154 72.1253 60.0091 72.9789 59.9958C73.8591 59.9825 74.606 60.7154 74.606 61.5949Z" fill="#191D26"/>
<path d="M79.4207 61.6079C79.4207 61.3147 79.394 61.0349 79.4207 60.7417C79.474 60.2886 79.7541 60.0088 80.2076 60.0088C80.6744 60.0088 80.9544 60.302 80.9944 60.755C81.0345 61.3014 81.0211 61.8611 80.9944 62.4075C80.9678 62.8605 80.6877 63.167 80.2342 63.167C79.7408 63.1804 79.4607 62.8739 79.4207 62.3941C79.394 62.1409 79.4073 61.8744 79.4207 61.6079Z" fill="#191D26"/>
<path d="M82.6082 61.5946C82.6082 61.3547 82.5949 61.1015 82.6082 60.8616C82.6349 60.3419 82.8883 60.0088 83.4218 60.0088C83.9153 60.0088 84.182 60.3419 84.1953 60.8217C84.222 61.3281 84.2087 61.8344 84.1953 62.3542C84.182 62.8339 83.9153 63.167 83.4218 63.1804C82.8883 63.1804 82.6349 62.8472 82.6082 62.3275C82.5949 62.0876 82.6082 61.8478 82.6082 61.5946Z" fill="#191D26"/>
<path d="M87.4096 61.6747C87.4096 61.9145 87.4229 62.1677 87.4096 62.4076C87.3563 62.8873 87.0895 63.1938 86.596 63.1938C86.1426 63.1805 85.8492 62.8873 85.8225 62.4343C85.7958 61.8879 85.7958 61.3282 85.8225 60.7818C85.8492 60.3288 86.1426 60.0356 86.596 60.0356C87.0628 60.0223 87.3429 60.3154 87.3963 60.7685C87.4363 61.0484 87.4096 61.3549 87.4096 61.6747Z" fill="#191D26"/>
</g>
</g>
<defs>
<clipPath id="clip0_17402_3141">
<rect fill="white" height="90" width="154"/>
</clipPath>
</defs>
</svg>