<?xml version="1.0" encoding="utf-8"?>
<svg xmlns="http://www.w3.org/2000/svg" fill="none" height="90" viewBox="0 0 154 90" width="154">
<g clip-path="url(#clip0_17388_516)">
<path d="M88.7685 18.9342C88.7748 18.9379 88.7798 18.9409 88.7836 18.9432L89.8135 19.7648L90.9832 19.1184C96.9489 15.8221 103.011 14.5374 109.433 16.1104C119.54 18.6122 125.81 24.8945 128.474 34.9196L128.478 34.9343L128.482 34.949C128.675 35.6332 128.961 36.4994 129.603 37.2279C130.293 38.0113 131.186 38.4157 132.162 38.6344C144.312 41.5488 152.288 51.7837 151.992 63.7132L151.992 63.7151C151.696 76.1217 141.39 86.9593 128.979 87.8852C127.905 87.9616 126.79 88 125.714 88H125.523H125.333H125.143H124.952H124.762H124.572H124.381H124.191H124.001H123.81H123.62H123.43H123.239H123.049H122.858H122.668H122.478H122.287H122.097H121.907H121.716H121.526H121.336H121.145H120.955H120.765H120.574H120.384H120.194H120.003H119.813H119.623H119.432H119.242H119.052H118.861H118.671H118.481H118.29H118.1H117.91H117.719H117.529H117.339H117.148H116.958H116.768H116.577H116.387H116.197H116.006H115.816H115.626H115.435H115.245H115.055H114.864H114.674H114.484H114.293H114.103H113.913H113.722H113.532H113.342H113.152H112.961H112.771H112.581H112.39H112.2H112.01H111.819H111.629H111.439H111.248H111.058H110.868H110.678H110.487H110.297H110.107H109.916H109.726H109.536H109.345H109.155H108.965H108.775H108.584H108.394H108.204H108.013H107.823H107.633H107.442H107.252H107.062H106.872H106.681H106.491H106.301H106.11H105.92H105.73H105.54H105.349H105.159H104.969H104.778H104.588H104.398H104.208H104.017H103.827H103.637H103.446H103.256H103.066H102.876H102.685H102.495H102.305H102.114H101.924H101.734H101.544H101.353H101.163H100.973H100.782H100.592H100.402H100.212H100.021H99.8311H99.6408H99.4506H99.2603H99.07H98.8797H98.6895H98.4992H98.3089H98.1187H97.9284H97.7381H97.5478H97.3576H97.1673H96.977H96.7868H96.5965H96.4062H96.216H96.0257H95.8354H95.6452H95.4549H95.2646H95.0744H94.8841H94.6938H94.5036H94.3133H94.1231H93.9328H93.7425H93.5523H93.362H93.1717H92.9815H92.7912H92.601H92.4107H92.2204H92.0302H91.8399H91.6497H91.4594H91.2691H91.0789H90.8886H90.6984H90.5081H90.3179H90.1276H89.9373H89.7471H89.5568H89.3666H89.1763H88.9861H88.7958H88.6056H88.4153H88.2251H88.0348H87.8445H87.6543H87.464H87.2738H87.0835H86.8933H86.703H86.5128H86.3225H86.1323H85.942H85.7518H85.5615H85.3713H85.181H84.9908H84.8005H84.6103H84.42H84.2298H84.0395H83.8493H83.659H83.4688H83.2785H83.0882H82.898H82.7077H82.5175H82.3272H82.137H81.9467H81.7565H81.5663H81.376H81.1858H80.9955H80.8053H80.615H80.4248H80.2345H80.0443H79.854H79.6638H79.4735H79.2833H79.093H78.9028H78.7125H78.5223H78.332H78.1418H77.9515H77.7613H77.571H77.3808H77.1905H77.0003H76.81H76.6198H76.4295H76.2393H76.049H75.8588H75.6685H75.4783H75.288H75.0978H74.9076H74.7173H74.5271H74.3368H74.1466H73.9563H73.7661H73.5758H73.3856H73.1953H73.0051H72.8148H72.6246H72.4343H72.2441H72.0538H71.8636H71.6733H71.4831H71.2928H71.1026H70.9123H70.7221H70.5318H70.3416H70.1513H69.9611H69.7708H69.5806H69.3903H69.2001H69.0098H68.8196H68.6293H68.4391H68.2488H68.0586H67.8683H67.6781H67.4878H67.2975H67.1073H66.917H66.7268H66.5365H66.3463H66.156H65.9658H65.7755H65.5853H65.395H65.2048H65.0145H64.8242H64.634H64.4437H64.2535H64.0632H63.873H63.6827H63.4925H63.3022H63.1119H62.9217H62.7314H62.5412H62.3509H62.1606H61.9704H61.7801H61.5899H61.3996H61.2093H61.0191H60.8288H60.6386H60.4483H60.258H60.0678H59.8775H59.6872H59.497H59.3067H59.1165H58.9262H58.7359H58.5457H58.3554H58.1651H57.9749H57.7846H57.5943H57.4041H57.2138H57.0235H56.8333H56.643H56.4527H56.2625H56.0722H55.8819H55.6916H55.5014H55.3111H55.1208H54.9306H54.7403H54.55H54.3597H54.1695H53.9792H53.7889H53.5986H53.4084H53.2181H53.0278H52.8375H52.6473H52.457H52.2667H52.0764H51.8862H51.6959H51.5056H51.3153H51.125H50.9347H50.7445H50.5542H50.3639H50.1736H49.9833H49.793H49.6028H49.4125H49.2222H49.0319H48.8416H48.6513H48.461H48.2708H48.0805H47.8902H47.6999H47.5096H47.3193H47.129H46.9387H46.7484H46.5581H46.3678H46.1775H45.9872H45.7969H45.6066H45.4164H45.2261H45.0358H44.8455H44.6552H44.4649H44.2746H44.0843H43.894H43.7036H43.5133H43.323H43.1327H42.9424H42.7521H42.5618H42.3715H42.1812H41.9909H41.8006H41.6103H41.42H41.2297H41.0393H40.849H40.6587H40.4684H40.2781H40.0878H39.8975H39.7071H39.5168H39.3265H39.1362H38.9459H38.7555H38.5652H38.3749H38.1846H37.9943H37.8039H37.6136H37.4233H37.233H37.0426H36.8523H36.662H36.4716H36.2813H36.091H35.9007H35.7103H35.52H35.3297H35.1393H34.949H34.7586H34.5683H34.378H34.1876H33.9973H33.807H33.6166H33.4263H33.2359H33.0456H32.8552H32.6649H32.4746H32.2842H32.0939H31.9035H31.7132H31.5228H31.3325H31.1421H30.9518H30.7614H30.571H30.3807H30.1903H30H29.8096H29.6193H29.4289H29.2385H29.0482H28.8578H28.6675H28.4771H28.2867C18.4248 88 10.8244 84.0404 5.63703 75.7431C-3.02595 61.8238 4.53028 43.0896 20.5215 38.9829L20.526 38.9818C21.563 38.7129 22.7634 38.3239 23.6553 37.3778C24.5951 36.3809 24.8946 35.1028 24.9873 33.7865L24.9879 33.7772C26.2759 14.1719 43.6559 -0.182798 63.2545 2.27422L63.255 2.27428C73.2243 3.52162 81.1136 8.4042 86.939 16.6428L86.9461 16.6528C87.3271 17.1847 87.6606 17.6651 87.9895 18.1735C88.1213 18.3915 88.2804 18.567 88.4442 18.7052C88.5929 18.8307 88.7386 18.9165 88.7652 18.9322L88.7685 18.9342Z" fill="#F0F3FB" stroke="white" stroke-width="4"/>
<g clip-path="url(#clip1_17388_516)">
<path d="M103.965 68.9898C103.884 68.9939 103.802 68.998 103.721 68.998C90.2227 68.998 76.7248 68.998 63.2248 68.998C63.1432 68.998 63.0617 68.9919 62.9801 68.9898C62.9801 68.9715 62.9801 68.9532 62.9801 68.9348C63.5938 68.8249 64.2096 68.7129 64.8233 68.607C65.8061 68.4379 66.7909 68.273 67.7737 68.1039C68.8503 67.9186 69.9269 67.7333 71.0034 67.5459C72.8161 67.2343 74.6287 66.9207 76.4414 66.6111C78.148 66.3199 79.8546 66.0307 81.5612 65.7395C83.2536 65.4482 84.9459 65.155 86.6382 64.8638C86.9869 64.8047 87.3335 64.7456 87.6822 64.6866C87.7291 64.6784 87.778 64.6805 87.8229 64.6336C87.7964 64.5542 87.7311 64.4951 87.6781 64.4279C86.4608 62.8985 85.2395 61.371 84.0222 59.8436C81.7121 56.9456 79.404 54.0476 77.0938 51.1475C76.3741 50.2453 75.6584 49.3411 74.9346 48.4409C74.8449 48.3289 74.8367 48.2393 74.8836 48.111C75.532 46.2964 76.1743 44.4818 76.8186 42.6672C77.7096 40.1562 78.6027 37.6451 79.4957 35.132C80.1788 33.2074 80.8618 31.2849 81.5449 29.3603C81.5653 29.3054 81.5714 29.2402 81.6387 29.1893C81.7998 29.4724 81.9588 29.7534 82.1178 30.0344C83.278 32.0975 84.4362 34.1626 85.5963 36.2256C86.7687 38.3131 87.9432 40.4006 89.1156 42.486C90.2533 44.5083 91.3911 46.5286 92.5288 48.5509C93.9357 51.0518 95.3385 53.5547 96.7434 56.0556C98.3623 58.9353 99.9792 61.815 101.598 64.6947C102.363 66.0551 103.127 67.4135 103.892 68.774C103.918 68.8208 103.937 68.8717 103.961 68.9206C103.967 68.945 103.967 68.9674 103.965 68.9898Z" fill="#191D26"/>
<path d="M50 64.0654C50.1244 63.8373 50.2386 63.6235 50.3568 63.4137C52.2673 59.9902 54.1778 56.5668 56.0884 53.1433C57.4708 50.6669 58.8512 48.1924 60.2336 45.716C61.3142 43.7792 62.3928 41.8404 63.4715 39.9016C63.5428 39.7753 63.6325 39.6694 63.7406 39.5757C66.2159 37.4353 68.6892 35.2949 71.1624 33.1524C73.1015 31.4722 75.0406 29.7941 76.9796 28.114C77.7789 27.4215 78.5782 26.725 79.3795 26.0326C79.3937 26.0204 79.4121 26.0102 79.4305 26C79.4814 26.0407 79.4386 26.0733 79.4243 26.1039C78.5986 27.9327 77.7707 29.7615 76.9449 31.5904C75.9622 33.7654 74.9794 35.9405 73.9946 38.1155C73.073 40.1541 72.1493 42.1927 71.2277 44.2313C70.092 46.7383 68.9563 49.2474 67.8206 51.7544C67.2639 52.9845 66.7114 54.2146 66.1547 55.4426C65.2127 57.524 64.2687 59.6033 63.3267 61.6826C62.9903 62.4239 62.6559 63.1653 62.3256 63.9086C62.2664 64.043 62.193 64.1 62.0381 64.1C58.0967 64.096 54.1554 64.096 50.2121 64.096C50.1529 64.098 50.0918 64.1041 50 64.0654Z" fill="#191D26"/>
<path d="M62.9821 68.9369C62.9821 68.9552 62.9821 68.9735 62.9821 68.9919C62.9087 69.0061 62.8333 69.0041 62.7578 68.9857C62.8333 68.9695 62.9005 68.9226 62.9821 68.9369Z" fill="#191D26"/>
<path d="M103.965 68.9898C103.965 68.9674 103.967 68.943 103.967 68.9206C103.994 68.945 104.027 68.9695 103.965 68.9898Z" fill="#191D26"/>
</g>
</g>
<defs>
<clipPath id="clip0_17388_516">
<rect fill="white" height="90" width="154"/>
</clipPath>
<clipPath id="clip1_17388_516">
<rect fill="white" height="43" transform="translate(50 26)" width="54"/>
</clipPath>
</defs>
</svg>