<?xml version="1.0" encoding="utf-8"?>
<svg xmlns="http://www.w3.org/2000/svg" fill="none" height="90" viewBox="0 0 154 90" width="154">
<g clip-path="url(#clip0_17402_3118)">
<path d="M88.7685 18.9342C88.7748 18.9379 88.7798 18.9409 88.7836 18.9432L89.8135 19.7648L90.9832 19.1184C96.9489 15.8221 103.011 14.5374 109.433 16.1104C119.54 18.6122 125.81 24.8945 128.474 34.9196L128.478 34.9343L128.482 34.949C128.675 35.6332 128.961 36.4994 129.603 37.2279C130.293 38.0113 131.186 38.4157 132.162 38.6344C144.312 41.5488 152.288 51.7837 151.992 63.7132L151.992 63.7151C151.696 76.1217 141.39 86.9593 128.979 87.8852C127.905 87.9616 126.79 88 125.714 88H125.523H125.333H125.143H124.952H124.762H124.572H124.381H124.191H124.001H123.81H123.62H123.43H123.239H123.049H122.858H122.668H122.478H122.287H122.097H121.907H121.716H121.526H121.336H121.145H120.955H120.765H120.574H120.384H120.194H120.003H119.813H119.623H119.432H119.242H119.052H118.861H118.671H118.481H118.29H118.1H117.91H117.719H117.529H117.339H117.148H116.958H116.768H116.577H116.387H116.197H116.006H115.816H115.626H115.435H115.245H115.055H114.864H114.674H114.484H114.293H114.103H113.913H113.722H113.532H113.342H113.152H112.961H112.771H112.581H112.39H112.2H112.01H111.819H111.629H111.439H111.248H111.058H110.868H110.678H110.487H110.297H110.107H109.916H109.726H109.536H109.345H109.155H108.965H108.775H108.584H108.394H108.204H108.013H107.823H107.633H107.442H107.252H107.062H106.872H106.681H106.491H106.301H106.11H105.92H105.73H105.54H105.349H105.159H104.969H104.778H104.588H104.398H104.208H104.017H103.827H103.637H103.446H103.256H103.066H102.876H102.685H102.495H102.305H102.114H101.924H101.734H101.544H101.353H101.163H100.973H100.782H100.592H100.402H100.212H100.021H99.8311H99.6408H99.4506H99.2603H99.07H98.8797H98.6895H98.4992H98.3089H98.1187H97.9284H97.7381H97.5478H97.3576H97.1673H96.977H96.7868H96.5965H96.4062H96.216H96.0257H95.8354H95.6452H95.4549H95.2646H95.0744H94.8841H94.6938H94.5036H94.3133H94.1231H93.9328H93.7425H93.5523H93.362H93.1717H92.9815H92.7912H92.601H92.4107H92.2204H92.0302H91.8399H91.6497H91.4594H91.2691H91.0789H90.8886H90.6984H90.5081H90.3179H90.1276H89.9373H89.7471H89.5568H89.3666H89.1763H88.9861H88.7958H88.6056H88.4153H88.2251H88.0348H87.8445H87.6543H87.464H87.2738H87.0835H86.8933H86.703H86.5128H86.3225H86.1323H85.942H85.7518H85.5615H85.3713H85.181H84.9908H84.8005H84.6103H84.42H84.2298H84.0395H83.8493H83.659H83.4688H83.2785H83.0882H82.898H82.7077H82.5175H82.3272H82.137H81.9467H81.7565H81.5663H81.376H81.1858H80.9955H80.8053H80.615H80.4248H80.2345H80.0443H79.854H79.6638H79.4735H79.2833H79.093H78.9028H78.7125H78.5223H78.332H78.1418H77.9515H77.7613H77.571H77.3808H77.1905H77.0003H76.81H76.6198H76.4295H76.2393H76.049H75.8588H75.6685H75.4783H75.288H75.0978H74.9076H74.7173H74.5271H74.3368H74.1466H73.9563H73.7661H73.5758H73.3856H73.1953H73.0051H72.8148H72.6246H72.4343H72.2441H72.0538H71.8636H71.6733H71.4831H71.2928H71.1026H70.9123H70.7221H70.5318H70.3416H70.1513H69.9611H69.7708H69.5806H69.3903H69.2001H69.0098H68.8196H68.6293H68.4391H68.2488H68.0586H67.8683H67.6781H67.4878H67.2975H67.1073H66.917H66.7268H66.5365H66.3463H66.156H65.9658H65.7755H65.5853H65.395H65.2048H65.0145H64.8242H64.634H64.4437H64.2535H64.0632H63.873H63.6827H63.4925H63.3022H63.1119H62.9217H62.7314H62.5412H62.3509H62.1606H61.9704H61.7801H61.5899H61.3996H61.2093H61.0191H60.8288H60.6386H60.4483H60.258H60.0678H59.8775H59.6872H59.497H59.3067H59.1165H58.9262H58.7359H58.5457H58.3554H58.1651H57.9749H57.7846H57.5943H57.4041H57.2138H57.0235H56.8333H56.643H56.4527H56.2625H56.0722H55.8819H55.6916H55.5014H55.3111H55.1208H54.9306H54.7403H54.55H54.3597H54.1695H53.9792H53.7889H53.5986H53.4084H53.2181H53.0278H52.8375H52.6473H52.457H52.2667H52.0764H51.8862H51.6959H51.5056H51.3153H51.125H50.9347H50.7445H50.5542H50.3639H50.1736H49.9833H49.793H49.6028H49.4125H49.2222H49.0319H48.8416H48.6513H48.461H48.2708H48.0805H47.8902H47.6999H47.5096H47.3193H47.129H46.9387H46.7484H46.5581H46.3678H46.1775H45.9872H45.7969H45.6066H45.4164H45.2261H45.0358H44.8455H44.6552H44.4649H44.2746H44.0843H43.894H43.7036H43.5133H43.323H43.1327H42.9424H42.7521H42.5618H42.3715H42.1812H41.9909H41.8006H41.6103H41.42H41.2297H41.0393H40.849H40.6587H40.4684H40.2781H40.0878H39.8975H39.7071H39.5168H39.3265H39.1362H38.9459H38.7555H38.5652H38.3749H38.1846H37.9943H37.8039H37.6136H37.4233H37.233H37.0426H36.8523H36.662H36.4716H36.2813H36.091H35.9007H35.7103H35.52H35.3297H35.1393H34.949H34.7586H34.5683H34.378H34.1876H33.9973H33.807H33.6166H33.4263H33.2359H33.0456H32.8552H32.6649H32.4746H32.2842H32.0939H31.9035H31.7132H31.5228H31.3325H31.1421H30.9518H30.7614H30.571H30.3807H30.1903H30H29.8096H29.6193H29.4289H29.2385H29.0482H28.8578H28.6675H28.4771H28.2867C18.4248 88 10.8244 84.0404 5.63703 75.7431C-3.02595 61.8238 4.53028 43.0896 20.5215 38.9829L20.526 38.9818C21.563 38.7129 22.7634 38.3239 23.6553 37.3778C24.5951 36.3809 24.8946 35.1028 24.9873 33.7865L24.9879 33.7772C26.2759 14.1719 43.6559 -0.182798 63.2545 2.27422L63.255 2.27428C73.2243 3.52162 81.1136 8.4042 86.939 16.6428L86.9461 16.6528C87.3271 17.1847 87.6606 17.6651 87.9895 18.1735C88.1213 18.3915 88.2804 18.567 88.4442 18.7052C88.5929 18.8307 88.7386 18.9165 88.7652 18.9322L88.7685 18.9342Z" fill="#F0F3FB" stroke="white" stroke-width="4"/>
<mask height="56" id="mask0_17402_3118" maskUnits="userSpaceOnUse" style="mask-type:luminance" width="46" x="54" y="26">
<path d="M99.4 26H54.6V82H99.4V26Z" fill="white"/>
</mask>
<g mask="url(#mask0_17402_3118)">
<path d="M62.4647 59.9912C62.1812 59.9912 61.9274 60.0214 61.6886 59.9912C61.1067 59.916 60.7933 60.0815 60.5097 60.6837C60.0024 61.8278 58.6443 62.3697 57.4206 62.0837C56.1969 61.7977 55.3015 60.7137 55.2418 59.4493C55.1821 58.1697 56.0029 56.9804 57.2415 56.589C58.4205 56.2127 59.7337 56.7095 60.4351 57.7933C61.0768 58.7869 61.1365 58.817 62.4349 58.5912C62.4498 58.5461 62.4946 58.5008 62.4946 58.4707C62.5543 56.8751 62.3304 56.9654 64.1809 56.7095C64.8524 56.6191 65.4196 56.5137 65.3002 55.6557C64.1959 55.5202 63.0616 55.5052 62.0021 55.2191C58.2265 54.1955 56.0029 51.6062 55.4358 47.7676C54.8985 44.1547 56.2417 41.174 59.1965 39.0062C59.7636 38.5848 60.0621 38.2987 60.0621 37.4407C60.0621 34.0385 61.3903 31.2084 64.4496 29.5224C67.4789 27.8514 70.4636 28.1525 73.2841 29.974C74.2691 29.1761 75.1795 28.2428 76.239 27.5955C83.4022 23.245 92.3563 28.303 92.5353 36.7933C92.5502 37.6364 92.8039 37.9826 93.5352 38.3137C97.2959 39.9697 99.4299 44.2449 98.5942 48.2944C97.7138 52.5547 94.2217 55.5353 90.0133 55.5955C89.6252 55.5955 89.2224 55.5955 88.7746 55.5955C88.7448 56.2127 88.8791 56.6041 89.5358 56.6343C89.5804 56.6343 89.6401 56.6493 89.6849 56.6643C91.3564 56.9202 91.3564 56.9202 91.5354 58.6665C91.9832 58.6665 92.4457 58.6966 92.9084 58.6514C93.0576 58.6364 93.2367 58.4106 93.3263 58.2299C93.953 56.9052 95.2067 56.2578 96.5647 56.5439C97.8182 56.8149 98.7584 58.0191 98.7584 59.3289C98.7584 60.6536 97.8332 61.8127 96.5498 62.0987C95.2067 62.3998 93.9679 61.7374 93.3114 60.4127C93.2218 60.232 92.9532 60.0514 92.7442 60.0214C92.3563 59.9611 91.9683 60.0062 91.5354 60.0062C91.5205 60.2622 91.4907 60.4578 91.4907 60.6536C91.4907 61.1804 91.222 61.4966 90.7296 61.4815C89.491 61.4514 88.7896 61.9482 88.5955 63.2578C88.5209 63.7547 88.5508 64.0256 88.894 64.3568C89.7745 65.2149 89.7595 65.2149 90.849 64.7632C91.4907 64.4923 92.1175 64.1761 92.789 63.9955C93.1024 63.9052 93.5203 64.0407 93.8485 64.1912C94.1023 64.3116 94.2963 64.5826 94.4903 64.8083C94.8037 65.1848 95.0873 65.3202 95.6244 65.1095C96.9079 64.6127 98.2808 65.1395 98.9972 66.3137C99.6836 67.4278 99.5045 68.9181 98.5942 69.8514C97.6839 70.7848 96.2065 70.9804 95.0873 70.288C93.9232 69.5804 93.3561 68.1804 93.8784 66.9008C94.147 66.2085 93.7591 65.9826 93.4457 65.5761C93.1024 65.1547 92.789 65.3955 92.4607 65.531C91.7742 65.8019 91.0579 66.0578 90.3864 66.389C89.7297 66.7202 89.2074 66.66 88.7597 66.0578C88.5209 65.7418 88.2523 65.4557 87.9688 65.1245C87.4166 65.6364 87.2972 66.0729 87.7599 66.5547C87.7897 66.5848 87.8196 66.6299 87.8494 66.6751C88.9686 68.3008 88.7746 67.9547 87.6255 69.3547C87.924 69.5955 88.2224 69.8966 88.5806 70.1073C88.7746 70.2278 89.0731 70.288 89.2671 70.2127C90.6699 69.716 92.0578 70.1525 92.8039 71.3418C93.5203 72.4858 93.3561 73.9761 92.4011 74.9245C91.431 75.8879 89.9834 76.0385 88.8343 75.3008C87.6554 74.5331 87.2524 73.1632 87.7449 71.7181C87.8046 71.5224 87.73 71.2214 87.6106 71.0256C87.4166 70.6794 87.133 70.3933 86.9689 70.1826C86.7302 70.2278 86.7003 70.2127 86.6854 70.2278C85.3871 71.2665 85.3722 71.2966 84.0291 70.2127C83.5962 69.8665 83.253 69.8214 82.7157 70.4085C83.0888 70.7245 83.4768 71.0557 83.8649 71.3869C84.2528 71.7181 84.3424 72.0944 84.1185 72.5912C83.7455 73.4343 83.447 74.3224 83.0739 75.1654C82.8649 75.6472 83.1336 75.8879 83.4321 76.0987C83.6709 76.2643 84.0439 76.4902 84.2827 76.4149C85.8347 75.9482 87.148 76.3396 87.8793 77.574C88.5955 78.7482 88.3866 80.2837 87.3718 81.217C86.4168 82.1052 84.9244 82.2256 83.85 81.488C82.5964 80.6299 82.2681 79.2902 82.9097 77.6944C82.9246 77.6493 82.9246 77.6041 82.9545 77.3783C82.7605 77.2278 82.5069 76.9869 82.2233 76.7761C81.4771 76.2343 81.3427 75.5869 81.7905 74.774C82.0143 74.3675 82.1636 73.9008 82.3427 73.4643C82.85 72.2299 82.8351 72.2449 81.9397 71.3116C81.5965 70.9503 81.298 70.9654 80.8354 71.0557C79.8804 71.2514 79.4923 71.7181 79.4625 72.7116C79.4177 73.8106 79.3431 73.7955 77.6567 74.0514C77.6567 74.4729 77.597 74.9395 77.6866 75.3611C77.7313 75.5719 78.0298 75.7826 78.2686 75.9031C79.5072 76.5503 80.134 78.0407 79.6863 79.3503C79.2088 80.7503 77.8657 81.5331 76.4479 81.2622C75.0899 80.9912 74.0901 79.7116 74.1796 78.3266C74.2392 77.3632 74.6869 76.6106 75.4929 76.0837C76.4479 75.4514 76.5226 75.2708 76.2539 74.0514C74.6123 73.8106 74.6272 73.7955 74.3288 72.0643C74.284 71.7933 74.0453 71.3869 73.8811 71.3568C73.2991 71.2966 72.7768 70.574 72.1201 71.2815C71.2098 72.26 71.1651 72.2299 71.6873 73.4794C71.9261 74.0514 72.1351 74.6536 72.3888 75.2256C72.6126 75.7073 72.5529 76.0837 72.15 76.4299C71.956 76.5955 71.8067 76.7912 71.6127 76.9568C71.2098 77.3031 71.0457 77.6041 71.2845 78.2214C71.7769 79.4407 71.1949 80.8407 70.0756 81.5482C68.9862 82.2407 67.4939 82.0751 66.5686 81.1418C65.6285 80.2085 65.4494 78.7632 66.106 77.6191C66.7627 76.4902 68.1505 75.8729 69.3892 76.3547C70.1054 76.6256 70.4189 76.3245 70.8218 75.9031C71.2546 75.4665 70.8815 75.1052 70.7472 74.7439C70.4935 74.0364 70.2248 73.3289 69.9115 72.6514C69.6727 72.1395 69.7324 71.7482 70.1502 71.3869C70.5084 71.0858 70.8666 70.7697 71.2248 70.4536C70.7173 69.8214 70.3442 69.8665 69.8369 70.2729C68.5087 71.3418 68.4938 71.3266 67.1955 70.2278C67.0164 70.3933 66.8522 70.574 66.6731 70.7245C66.2254 71.0858 66.0761 71.417 66.3299 72.0493C66.8074 73.2235 66.2105 74.6385 65.136 75.316C64.0168 76.0235 62.5841 75.888 61.6291 74.9547C60.6888 74.0514 60.4799 72.6665 61.0918 71.5073C61.7036 70.3632 63.0914 69.6407 64.3153 70.1073C65.1061 70.4085 65.4942 70.1525 65.9269 69.6106C66.0164 69.4902 66.1209 69.3998 66.2254 69.2944C66.2105 69.2191 66.2105 69.159 66.1806 69.1289C65.136 68.0299 64.9868 68.1503 66.0612 66.7353C66.4343 66.2385 66.8522 65.7719 66.0015 65.0794C65.6882 65.4557 65.4196 65.9224 65.0166 66.2385C64.7629 66.4343 64.2854 66.5396 63.972 66.4493C63.1362 66.1933 62.3453 65.832 61.5395 65.5008C61.1515 65.3353 60.8231 65.2149 60.5097 65.6364C60.2263 65.9977 59.8681 66.2084 60.1218 66.8407C60.6888 68.2858 59.9278 69.8966 58.5697 70.4536C57.1221 71.0407 55.4806 70.4085 54.8538 69.0085C54.2121 67.5632 54.7642 65.9525 56.167 65.2149C56.9132 64.8235 57.7041 64.8084 58.4802 65.1095C58.8682 65.26 59.092 65.2149 59.3756 64.9289C60.7933 63.5137 60.256 63.574 62.2707 64.3719C62.5543 64.4773 62.8229 64.5977 63.1064 64.7031C64.2556 65.1848 64.2108 65.1245 65.1211 64.3116C65.912 63.6191 65.1957 63.032 65.0912 62.4149C65.0614 62.2191 64.5987 62.0085 64.3003 61.9632C62.6438 61.7374 62.6438 61.7525 62.4647 59.9912ZM60.4202 39.789C60.3157 39.8493 60.1964 39.8794 60.0919 39.9547C56.6894 42.1525 55.5999 46.9848 57.7638 50.5073C59.5845 53.4578 62.3304 54.4364 65.6285 54.1804C65.7776 54.1654 65.9567 54.06 66.0463 53.9396C66.7776 52.9912 66.7776 52.7353 66.0612 51.7568C65.912 51.5611 65.7628 51.3503 65.6136 51.1547C65.3449 50.7632 65.3748 50.417 65.7181 50.0858C66.494 49.3031 67.27 48.5202 68.0461 47.7525C68.3893 47.4062 68.7325 47.4062 69.1056 47.7073C69.3145 47.8729 69.5683 48.0235 69.7474 48.2191C70.2547 48.7611 70.7472 48.8062 71.3591 48.3697C71.7321 48.0987 72.1948 47.8729 72.6425 47.7977C73.9707 47.5568 74.5825 46.8343 74.5079 45.4643C74.478 44.9224 74.8213 44.6665 75.3735 44.6815C76.1196 44.6966 76.8658 44.6815 77.6119 44.6815C79.3431 44.6815 79.358 44.6815 79.5222 46.4127C79.5819 46.9848 79.7311 47.316 80.3578 47.4214C80.91 47.5266 81.5218 47.6773 81.9547 48.0085C83.0888 48.8665 84.0291 48.7008 84.9692 47.7224C85.3125 47.3611 85.7302 47.4214 86.0884 47.7826C86.76 48.46 87.4166 49.1374 88.0882 49.7998C88.4463 50.1611 88.4911 50.5224 88.1927 50.9439C87.8494 51.4256 87.5211 51.9374 87.1778 52.4343C87.2823 52.6299 87.4166 52.7955 87.4763 52.9912C87.8046 54.1654 88.5806 54.3611 89.7148 54.3461C95.714 54.2557 99.3554 47.9783 96.4154 42.6944C95.5051 41.0385 94.147 39.8944 92.3115 39.2773C92.207 39.6385 92.1623 39.9395 92.0429 40.2106C91.625 41.174 91.1922 42.1224 90.7446 43.0707C90.5356 43.5073 90.1625 43.6578 89.7595 43.417C89.3119 43.1461 89.4164 42.7547 89.6551 42.3783C89.7446 42.2278 89.8342 42.0773 89.9237 41.9266C91.1026 39.8343 91.4758 37.5761 91.0728 35.2428C90.1625 29.7632 84.8199 26.3009 79.4774 27.6106C77.4179 28.1224 75.7316 29.2514 74.4034 30.9676C74.5974 31.2084 74.7765 31.3891 74.9257 31.5847C75.2242 32.0063 75.851 32.4428 75.2242 32.9847C74.5974 33.5267 74.2691 32.8493 73.9259 32.4428C71.0009 28.9654 66.0911 28.8751 63.1661 32.217C61.0918 34.5804 60.9127 38.6149 62.4498 40.8428C62.7035 41.2191 62.8826 41.6407 62.4199 41.9568C61.9125 42.3031 61.5843 41.9568 61.3455 41.5353C61.0321 40.9783 60.7485 40.4062 60.4202 39.789ZM68.5684 69.6256C68.9265 69.3547 69.2847 69.1137 69.5981 68.8278C70.1204 68.316 70.583 68.3611 71.1949 68.7224C71.9858 69.189 72.8067 69.731 73.6722 69.8815C75.0899 70.1073 75.7166 70.7697 75.6868 72.1697C75.6868 72.3353 75.8957 72.6214 76.03 72.6364C76.7315 72.6815 77.4478 72.6514 78.1492 72.6514C78.2388 72.0794 78.3283 71.6428 78.3731 71.1912C78.4328 70.589 78.7162 70.3181 79.3132 70.1224C80.522 69.716 81.7159 69.2041 82.8649 68.632C83.3873 68.3761 83.7753 68.3461 84.208 68.7224C84.5812 69.0385 84.9841 69.3095 85.2975 69.5503C85.9243 68.9482 86.4765 68.4214 87.0584 67.8643C86.7302 67.3826 86.372 66.9611 86.1332 66.4643C85.9989 66.1783 85.9541 65.6966 86.1034 65.4557C86.9092 64.116 87.4912 62.6858 87.8046 61.1503C87.8643 60.8794 88.2524 60.5331 88.5358 60.4729C90.1774 60.1116 90.1774 60.1418 90.1177 58.4407C90.1177 58.3202 90.0879 58.1998 90.073 58.0191C89.5655 57.9439 89.088 57.8536 88.5955 57.8085C88.0434 57.7632 87.8046 57.4622 87.6106 56.9503C87.0883 55.5804 86.4615 54.2557 85.9243 52.8858C85.8049 52.5697 85.8198 52.1181 85.9541 51.8019C86.178 51.3052 86.5362 50.8837 86.8196 50.4773C86.3123 49.9353 85.8646 49.4536 85.3871 48.9568C84.9543 49.2729 84.5364 49.559 84.1483 49.8751C83.7007 50.2514 83.3127 50.1912 82.7903 49.9353C81.6114 49.3632 80.4026 48.8514 79.164 48.4299C78.6565 48.2493 78.4028 48.0235 78.3431 47.5266C78.2686 47.0149 78.1791 46.5031 78.0895 45.9461C77.806 45.9461 77.5821 45.9461 77.3731 45.9461C75.7017 45.931 75.7017 45.931 75.463 47.5719C75.3884 48.0686 75.1347 48.2493 74.6869 48.4299C73.4334 48.9116 72.2097 49.4385 71.0009 50.0106C70.5681 50.2062 70.2248 50.2514 69.8369 49.9353C69.4339 49.6041 69.0161 49.3031 68.628 49.0019C68.0311 49.589 67.4789 50.116 66.897 50.688C67.2252 51.1395 67.5088 51.5761 67.8371 51.9676C68.1953 52.4041 68.1356 52.7503 67.8968 53.2472C67.3148 54.4815 66.8821 55.7912 66.3448 57.0407C66.2105 57.3266 65.897 57.6428 65.6136 57.7331C65.0614 57.9137 64.4495 57.9289 63.8675 58.0191C63.8675 58.8773 63.8675 59.6751 63.8675 60.5031C64.4345 60.5933 64.9569 60.7137 65.4942 60.774C65.9567 60.8343 66.1358 61.0902 66.3 61.5116C66.7776 62.8214 67.3745 64.0858 67.852 65.3955C67.9714 65.7116 67.9416 66.1783 67.7923 66.4794C67.5536 66.9611 67.1655 67.3826 66.8671 67.789C67.464 68.4514 68.0013 69.0385 68.5684 69.6256ZM63.6586 71.3266C62.808 71.3116 62.0767 72.0191 62.0618 72.8773C62.0468 73.7052 62.7334 74.4278 63.5392 74.4578C64.3899 74.5031 65.136 73.8106 65.1658 72.9525C65.2106 72.0944 64.5092 71.3418 63.6586 71.3266ZM91.9235 72.9374C91.9384 72.0794 91.237 71.3418 90.3864 71.3266C89.5655 71.3116 88.8492 71.989 88.8194 72.817C88.7746 73.6751 89.4612 74.4278 90.3117 74.4578C91.1773 74.488 91.9086 73.7804 91.9235 72.9374ZM70.1204 79.1095C70.1204 78.2214 69.4339 77.559 68.5386 77.574C67.6879 77.589 67.0164 78.2514 67.0015 79.0944C66.9865 79.9374 67.7028 80.6751 68.5535 80.6902C69.419 80.6902 70.1204 79.9826 70.1204 79.1095ZM85.3871 77.574C84.5065 77.589 83.85 78.2966 83.8798 79.1697C83.9097 80.0127 84.5961 80.6751 85.4317 80.6751C86.2675 80.6751 86.9987 79.9374 86.9987 79.0944C86.9838 78.2364 86.2675 77.5439 85.3871 77.574ZM57.4505 69.3697C58.316 69.3697 59.0025 68.6773 58.9876 67.789C58.9876 66.931 58.3309 66.2686 57.4952 66.2536C56.6147 66.2385 55.9283 66.916 55.9133 67.789C55.9133 68.6622 56.5998 69.3697 57.4505 69.3697ZM96.5647 69.3697C97.4302 69.3547 98.1017 68.632 98.0719 67.759C98.042 66.8858 97.3407 66.2235 96.4602 66.2536C95.6095 66.2837 94.9828 66.9611 94.9828 67.8191C95.0126 68.7073 95.6991 69.3848 96.5647 69.3697ZM78.5073 78.5675C78.5372 77.7095 77.9254 77.032 77.0748 77.0019C76.1942 76.9719 75.5376 77.574 75.4929 78.432C75.463 79.2902 76.0897 79.9826 76.9255 80.0127C77.7761 80.0428 78.4776 79.4106 78.5073 78.5675ZM58.0922 57.7933C57.2565 57.7783 56.5849 58.4557 56.57 59.2987C56.57 60.1266 57.2415 60.8493 58.0623 60.8643C58.8682 60.8794 59.5696 60.1719 59.5845 59.3439C59.5845 58.4858 58.9129 57.8085 58.0922 57.7933ZM95.9528 60.8643C96.7735 60.8493 97.4451 60.1266 97.4302 59.2987C97.4153 58.4557 96.7437 57.7783 95.908 57.7933C95.0723 57.8085 94.4157 58.4858 94.4306 59.3439C94.4306 60.1719 95.147 60.8794 95.9528 60.8643Z" fill="#191D26"/>
<path d="M89.8641 36.5075C89.8641 36.5828 89.8641 36.6581 89.8641 36.7334C89.879 37.1699 89.8342 37.5764 89.2821 37.6065C88.7598 37.6366 88.6255 37.2904 88.5807 36.8387C88.4911 36.1463 88.4464 35.4237 88.2077 34.7764C87.163 31.8409 85.0588 30.2452 81.9846 29.9441C81.507 29.899 81.0146 29.8538 81.0594 29.2517C81.104 28.6495 81.5965 28.6345 82.0741 28.6495C86.2377 28.8151 89.6999 32.3226 89.8641 36.5075Z" fill="#191D26"/>
<path d="M89.8641 52.7958C89.7596 52.7054 89.3417 52.4947 89.2671 52.1936C89.1328 51.6517 89.5954 51.5162 90.0581 51.4711C92.804 51.185 94.4903 49.4538 94.7291 46.6388C94.7738 46.1871 94.9081 45.8259 95.4007 45.8259C95.908 45.8259 96.0423 46.1871 96.0423 46.6538C96.0871 49.7549 93.2516 52.7205 89.8641 52.7958Z" fill="#191D26"/>
<path d="M62.6586 36.5979C62.7779 33.7076 65.3001 31.1635 68.0907 31.0882C68.5533 31.0732 69.001 31.1183 69.0458 31.6603C69.0906 32.2474 68.6279 32.3678 68.1504 32.4129C65.8522 32.6388 64.3001 34.1742 63.9719 36.4925C63.957 36.5678 63.942 36.643 63.942 36.7183C63.9122 37.17 63.8376 37.6216 63.2555 37.5764C62.6139 37.5613 62.6288 37.0646 62.6586 36.5979Z" fill="#191D26"/>
<path d="M76.985 53.1567C80.4472 53.1567 83.2081 55.9869 83.1931 59.4944C83.1782 63.0019 80.3726 65.8621 76.9551 65.847C73.5676 65.832 70.8068 63.0019 70.7769 59.5094C70.7769 56.0019 73.5377 53.1717 76.985 53.1567ZM77.0148 64.5223C79.701 64.5073 81.8948 62.2492 81.8948 59.4944C81.8948 56.7395 79.6861 54.4815 76.9999 54.4664C74.2988 54.4513 72.0454 56.7696 72.0752 59.5395C72.12 62.2944 74.3286 64.5374 77.0148 64.5223Z" fill="#191D26"/>
</g>
</g>
<defs>
<clipPath id="clip0_17402_3118">
<rect fill="white" height="90" width="154"/>
</clipPath>
</defs>
</svg>