<?xml version="1.0" encoding="utf-8"?>
<svg xmlns="http://www.w3.org/2000/svg" fill="none" height="90" viewBox="0 0 154 90" width="154">
<g clip-path="url(#clip0_17402_3144)">
<path d="M88.7685 18.9342C88.7748 18.9379 88.7798 18.9409 88.7836 18.9432L89.8135 19.7648L90.9832 19.1184C96.9489 15.8221 103.011 14.5374 109.433 16.1104C119.54 18.6122 125.81 24.8945 128.474 34.9196L128.478 34.9343L128.482 34.949C128.675 35.6332 128.961 36.4994 129.603 37.2279C130.293 38.0113 131.186 38.4157 132.162 38.6344C144.312 41.5488 152.288 51.7837 151.992 63.7132L151.992 63.7151C151.696 76.1217 141.39 86.9593 128.979 87.8852C127.905 87.9616 126.79 88 125.714 88H125.523H125.333H125.143H124.952H124.762H124.572H124.381H124.191H124.001H123.81H123.62H123.43H123.239H123.049H122.858H122.668H122.478H122.287H122.097H121.907H121.716H121.526H121.336H121.145H120.955H120.765H120.574H120.384H120.194H120.003H119.813H119.623H119.432H119.242H119.052H118.861H118.671H118.481H118.29H118.1H117.91H117.719H117.529H117.339H117.148H116.958H116.768H116.577H116.387H116.197H116.006H115.816H115.626H115.435H115.245H115.055H114.864H114.674H114.484H114.293H114.103H113.913H113.722H113.532H113.342H113.152H112.961H112.771H112.581H112.39H112.2H112.01H111.819H111.629H111.439H111.248H111.058H110.868H110.678H110.487H110.297H110.107H109.916H109.726H109.536H109.345H109.155H108.965H108.775H108.584H108.394H108.204H108.013H107.823H107.633H107.442H107.252H107.062H106.872H106.681H106.491H106.301H106.11H105.92H105.73H105.54H105.349H105.159H104.969H104.778H104.588H104.398H104.208H104.017H103.827H103.637H103.446H103.256H103.066H102.876H102.685H102.495H102.305H102.114H101.924H101.734H101.544H101.353H101.163H100.973H100.782H100.592H100.402H100.212H100.021H99.8311H99.6408H99.4506H99.2603H99.07H98.8797H98.6895H98.4992H98.3089H98.1187H97.9284H97.7381H97.5478H97.3576H97.1673H96.977H96.7868H96.5965H96.4062H96.216H96.0257H95.8354H95.6452H95.4549H95.2646H95.0744H94.8841H94.6938H94.5036H94.3133H94.1231H93.9328H93.7425H93.5523H93.362H93.1717H92.9815H92.7912H92.601H92.4107H92.2204H92.0302H91.8399H91.6497H91.4594H91.2691H91.0789H90.8886H90.6984H90.5081H90.3179H90.1276H89.9373H89.7471H89.5568H89.3666H89.1763H88.9861H88.7958H88.6056H88.4153H88.2251H88.0348H87.8445H87.6543H87.464H87.2738H87.0835H86.8933H86.703H86.5128H86.3225H86.1323H85.942H85.7518H85.5615H85.3713H85.181H84.9908H84.8005H84.6103H84.42H84.2298H84.0395H83.8493H83.659H83.4688H83.2785H83.0882H82.898H82.7077H82.5175H82.3272H82.137H81.9467H81.7565H81.5663H81.376H81.1858H80.9955H80.8053H80.615H80.4248H80.2345H80.0443H79.854H79.6638H79.4735H79.2833H79.093H78.9028H78.7125H78.5223H78.332H78.1418H77.9515H77.7613H77.571H77.3808H77.1905H77.0003H76.81H76.6198H76.4295H76.2393H76.049H75.8588H75.6685H75.4783H75.288H75.0978H74.9076H74.7173H74.5271H74.3368H74.1466H73.9563H73.7661H73.5758H73.3856H73.1953H73.0051H72.8148H72.6246H72.4343H72.2441H72.0538H71.8636H71.6733H71.4831H71.2928H71.1026H70.9123H70.7221H70.5318H70.3416H70.1513H69.9611H69.7708H69.5806H69.3903H69.2001H69.0098H68.8196H68.6293H68.4391H68.2488H68.0586H67.8683H67.6781H67.4878H67.2975H67.1073H66.917H66.7268H66.5365H66.3463H66.156H65.9658H65.7755H65.5853H65.395H65.2048H65.0145H64.8242H64.634H64.4437H64.2535H64.0632H63.873H63.6827H63.4925H63.3022H63.1119H62.9217H62.7314H62.5412H62.3509H62.1606H61.9704H61.7801H61.5899H61.3996H61.2093H61.0191H60.8288H60.6386H60.4483H60.258H60.0678H59.8775H59.6872H59.497H59.3067H59.1165H58.9262H58.7359H58.5457H58.3554H58.1651H57.9749H57.7846H57.5943H57.4041H57.2138H57.0235H56.8333H56.643H56.4527H56.2625H56.0722H55.8819H55.6916H55.5014H55.3111H55.1208H54.9306H54.7403H54.55H54.3597H54.1695H53.9792H53.7889H53.5986H53.4084H53.2181H53.0278H52.8375H52.6473H52.457H52.2667H52.0764H51.8862H51.6959H51.5056H51.3153H51.125H50.9347H50.7445H50.5542H50.3639H50.1736H49.9833H49.793H49.6028H49.4125H49.2222H49.0319H48.8416H48.6513H48.461H48.2708H48.0805H47.8902H47.6999H47.5096H47.3193H47.129H46.9387H46.7484H46.5581H46.3678H46.1775H45.9872H45.7969H45.6066H45.4164H45.2261H45.0358H44.8455H44.6552H44.4649H44.2746H44.0843H43.894H43.7036H43.5133H43.323H43.1327H42.9424H42.7521H42.5618H42.3715H42.1812H41.9909H41.8006H41.6103H41.42H41.2297H41.0393H40.849H40.6587H40.4684H40.2781H40.0878H39.8975H39.7071H39.5168H39.3265H39.1362H38.9459H38.7555H38.5652H38.3749H38.1846H37.9943H37.8039H37.6136H37.4233H37.233H37.0426H36.8523H36.662H36.4716H36.2813H36.091H35.9007H35.7103H35.52H35.3297H35.1393H34.949H34.7586H34.5683H34.378H34.1876H33.9973H33.807H33.6166H33.4263H33.2359H33.0456H32.8552H32.6649H32.4746H32.2842H32.0939H31.9035H31.7132H31.5228H31.3325H31.1421H30.9518H30.7614H30.571H30.3807H30.1903H30H29.8096H29.6193H29.4289H29.2385H29.0482H28.8578H28.6675H28.4771H28.2867C18.4248 88 10.8244 84.0404 5.63703 75.7431C-3.02595 61.8238 4.53028 43.0896 20.5215 38.9829L20.526 38.9818C21.563 38.7129 22.7634 38.3239 23.6553 37.3778C24.5951 36.3809 24.8946 35.1028 24.9873 33.7865L24.9879 33.7772C26.2759 14.1719 43.6559 -0.182798 63.2545 2.27422L63.255 2.27428C73.2243 3.52162 81.1136 8.4042 86.939 16.6428L86.9461 16.6528C87.3271 17.1847 87.6606 17.6651 87.9895 18.1735C88.1213 18.3915 88.2804 18.567 88.4442 18.7052C88.5929 18.8307 88.7386 18.9165 88.7652 18.9322L88.7685 18.9342Z" fill="#F0F3FB" stroke="white" stroke-width="4"/>
<g clip-path="url(#clip1_17402_3144)">
<mask height="52" id="mask0_17402_3144" maskUnits="userSpaceOnUse" style="mask-type:luminance" width="52" x="51" y="25">
<path d="M103 25H51V77H103V25Z" fill="white"/>
</mask>
<g mask="url(#mask0_17402_3144)">
<mask height="52" id="mask1_17402_3144" maskUnits="userSpaceOnUse" style="mask-type:luminance" width="52" x="51" y="25">
<path d="M103 25H51V77H103V25Z" fill="white"/>
</mask>
<g mask="url(#mask1_17402_3144)">
<path d="M97.4615 45.0872C99.3356 45.0872 101.126 45.0872 102.986 45.0872C102.986 47.8689 102.986 50.6367 102.986 53.4324C99.6853 53.4324 96.3706 53.4324 92.972 53.4324C92.972 52.9152 92.972 52.384 92.972 51.8388C91.8391 51.8388 90.7762 51.8388 89.6293 51.8388C89.6293 53.4883 89.6293 55.1238 89.6293 56.8012C88.4965 56.8012 87.4195 56.8012 86.3006 56.8012C86.3006 56.298 86.3006 55.7808 86.3006 55.1797C86.8041 55.1797 87.3216 55.1797 87.8951 55.1797C87.8951 53.4883 87.8951 51.8668 87.8951 50.1614C89.5874 50.1614 91.2237 50.1614 92.916 50.1614C92.916 49.5603 92.916 49.0431 92.916 48.47C90.1608 48.47 87.4055 48.47 84.6503 48.47C84.5384 50.0076 84.4965 51.5313 84.2867 53.013C82.986 62.3507 78.6643 69.9689 71.2377 75.798C69.1398 77.4474 66.2867 77.3636 64.1748 75.6861C57.1538 70.1227 52.93 62.8958 51.4195 54.0754C50.916 51.1259 50.986 48.1485 51.0139 45.199C51.909 45.0593 52.7622 44.9195 53.5734 44.7797C53.2797 43.7593 52.958 42.8926 52.7902 41.998C52.0909 38.0141 54.93 34.1001 58.93 33.4711C59.5174 33.3732 59.8951 33.2614 60.1748 32.5765C62.0069 27.9775 65.4475 25.3216 70.3846 25.0141C75.3076 24.7066 79.0559 26.8732 81.4895 31.2066C81.6993 31.584 81.909 31.7098 82.3566 31.6958C85.951 31.584 88.6223 33.1356 90.3566 36.2808C90.5384 36.6302 90.6643 36.8818 91.1678 36.798C95.6153 36.0851 99.1398 40.3485 97.6153 44.584C97.6013 44.7378 97.5454 44.8636 97.4615 45.0872ZM80.0489 32.1291C78.5804 28.8023 74.7622 26.4399 70.7902 26.6775C65.5314 26.999 62.4545 30.0184 61.1678 34.9947C55.1398 34.5055 53.1818 40.7259 55.0839 43.4937C56.0489 42.3754 56.1608 41.0754 55.951 39.7334C63.8951 37.9722 71.7552 37.9861 79.6573 39.7334C79.3776 41.2571 79.6293 42.613 80.6783 43.7453C81.7132 44.8775 83.0839 45.1711 84.6083 45.0872C84.6083 45.7023 84.6083 46.2195 84.6083 46.7367C87.2937 46.7367 89.909 46.7367 92.5104 46.7367C92.6503 46.7367 92.7762 46.6668 92.986 46.6109C92.986 46.1216 92.986 45.6184 92.986 45.0872C93.7132 45.0872 94.3706 45.1291 95.0139 45.0732C95.2657 45.0453 95.5874 44.8775 95.7132 44.6679C96.5944 43.284 96.5244 41.4808 95.5174 40.1388C94.4825 38.755 93.0699 38.1679 91.3496 38.4894C90.7622 38.6012 90.2167 38.8388 89.5734 39.0345C89.0419 36.7141 87.8111 34.9249 85.6013 33.9464C83.3916 32.9679 81.2517 33.2055 79.1398 34.4636C78.8321 34.0023 78.5524 33.5689 78.2027 33.0517C78.8741 32.7302 79.4615 32.4367 80.0489 32.1291ZM66.916 39.9711C63.7972 40.3205 60.7762 40.6421 57.8111 40.9775C57.1258 44.5141 56.0349 45.7302 52.7342 46.7786C52.7202 46.8765 52.7062 46.9883 52.7062 47.1001C52.5944 51.3496 53.1118 55.5012 54.5524 59.527C56.6923 65.4818 60.2167 70.4582 65.2097 74.3442C65.6853 74.7216 66.2867 74.9453 66.916 75.2808C66.916 73.4915 66.916 71.87 66.916 70.2485C66.7342 70.2066 66.6083 70.1786 66.4685 70.1507C62.3985 69.5496 59.2237 66.4324 58.7062 62.3786C58.5104 60.8689 58.5804 59.3173 58.5664 57.7797C58.5524 56.1582 59.2797 54.9281 60.6503 54.0474C60.8601 53.9076 61.0559 53.5582 61.0699 53.3066C61.1118 52.2162 61.0559 51.1119 61.0978 50.0216C61.1958 47.5614 62.2727 45.6324 64.4125 44.3883C65.1818 43.941 66.0629 43.6894 66.93 43.3399C66.916 42.3195 66.916 41.2431 66.916 39.9711ZM82.8741 46.7507C79.7972 46.0517 78.1608 44.1227 77.8111 41.0474C76.2587 40.8238 74.7622 40.5861 73.2657 40.4184C71.7552 40.2507 70.2167 40.1668 68.6923 40.055C68.6923 41.2711 68.6923 42.3754 68.6923 43.4657C72.0629 44.2205 74.0769 46.2474 74.4545 49.4066C74.6083 50.6646 74.5104 51.9646 74.5104 53.2507C74.5104 53.6281 74.5804 53.8657 74.958 54.0754C76.0489 54.6904 76.8181 55.627 76.93 56.8851C77.0559 58.4507 77.0979 60.0442 77.0139 61.6238C76.8181 65.3001 74.3566 68.5012 70.8741 69.7033C70.1608 69.955 69.4055 70.0947 68.7062 70.2765C68.7062 71.898 68.7062 73.4915 68.7062 75.3087C69.4755 74.8474 70.1468 74.5399 70.7062 74.0926C72.7762 72.4851 74.5944 70.6119 76.1748 68.5291C81.0279 62.113 83.2097 54.8302 82.8741 46.7507ZM67.8251 55.1657C66.1468 55.1657 64.4685 55.1517 62.7902 55.1657C61.4335 55.1797 60.3286 56.0883 60.2727 57.3883C60.2028 59.0098 60.1748 60.6593 60.3846 62.2528C60.8741 65.8872 64.1048 68.5571 67.7832 68.5571C71.4615 68.5571 74.6783 65.8732 75.1818 62.2388C75.3776 60.799 75.3076 59.3173 75.3216 57.8496C75.3356 56.1722 74.3006 55.1517 72.6223 55.1378C71.0419 55.1657 69.4335 55.1657 67.8251 55.1657ZM62.8601 53.4324C66.1608 53.4324 69.4615 53.4324 72.8041 53.4324C72.8041 52.1743 72.8741 50.9722 72.7902 49.77C72.6223 47.2399 70.5804 45.255 68.0629 45.1152C65.5454 44.9754 63.2657 46.6947 62.8881 49.2248C62.7062 50.5808 62.8601 51.9926 62.8601 53.4324ZM101.336 46.8345C99.0699 46.8345 96.8741 46.8345 94.6923 46.8345C94.6923 48.5119 94.6923 50.1195 94.6923 51.7689C96.916 51.7689 99.1118 51.7689 101.336 51.7689C101.336 50.1055 101.336 48.484 101.336 46.8345Z" fill="#191D26"/>
<path d="M92.986 73.6035C91.2378 73.6035 89.6154 73.6035 87.9371 73.6035C87.9371 71.3669 87.9371 69.1863 87.9371 66.9357C87.3637 66.9357 86.8462 66.9357 86.2867 66.9357C86.2867 66.3346 86.2867 65.8174 86.2867 65.2583C87.3777 65.2583 88.4406 65.2583 89.5874 65.2583C89.5874 67.4529 89.5874 69.6475 89.5874 71.8841C90.7203 71.8841 91.7832 71.8841 92.9301 71.8841C92.9301 70.8217 92.9301 69.7454 92.9301 68.6271C96.3287 68.6271 99.6434 68.6271 103 68.6271C103 71.3949 103 74.1486 103 76.9303C99.6714 76.9303 96.3707 76.9303 93 76.9303C92.986 75.868 92.986 74.7916 92.986 73.6035ZM101.308 75.2669C101.308 73.5755 101.308 71.94 101.308 70.3325C99.07 70.3325 96.8742 70.3325 94.6784 70.3325C94.6784 72.0099 94.6784 73.6174 94.6784 75.2669C96.9021 75.2669 99.07 75.2669 101.308 75.2669Z" fill="#191D26"/>
<path d="M102.986 65.2022C99.6433 65.2022 96.3426 65.2022 92.986 65.2022C92.986 64.1118 92.986 63.0495 92.986 61.9172C89.8951 61.9172 86.8601 61.9172 83.7832 61.9172C83.7832 61.3301 83.7832 60.7989 83.7832 60.2118C86.8182 60.2118 89.8531 60.2118 92.944 60.2118C92.944 59.0796 92.944 58.0172 92.944 56.8989C96.3147 56.8989 99.6294 56.8989 102.986 56.8989C102.986 59.6387 102.986 62.3925 102.986 65.2022ZM94.6783 63.4968C96.944 63.4968 99.1398 63.4968 101.322 63.4968C101.322 61.8194 101.322 60.2118 101.322 58.5624C99.0979 58.5624 96.9021 58.5624 94.6783 58.5624C94.6783 60.2258 94.6783 61.8333 94.6783 63.4968Z" fill="#191D26"/>
<path d="M71.1259 28.3551C71.1259 28.9142 71.1259 29.4174 71.1259 29.9766C69.6154 30.0605 68.2028 30.4798 67 31.4303C65.7832 32.3949 65.028 33.6389 64.5944 35.1906C64.0909 35.0787 63.6014 34.9809 63.1259 34.8691C63.1678 32.311 66.4266 28.2992 71.1259 28.3551Z" fill="#191D26"/>
<path d="M68.6224 63.4829C68.6224 64.6011 68.6224 65.7194 68.6224 66.8657C68.063 66.8657 67.5455 66.8657 66.9721 66.8657C66.9721 65.7334 66.9721 64.6291 66.9721 63.5388C64.7343 62.2667 64.049 60.9667 64.6084 59.1355C65.042 57.7377 66.4826 56.7452 67.9931 56.8431C69.5875 56.9409 70.8602 58.1151 71.1259 59.7226C71.3777 61.3022 70.4826 62.6861 68.6224 63.4829ZM67.8252 61.8753C68.7203 61.8614 69.4616 61.0925 69.4616 60.1979C69.4616 59.2753 68.6784 58.5065 67.7553 58.5205C66.8322 58.5485 66.077 59.3452 66.1189 60.2678C66.1609 61.1624 66.9441 61.8893 67.8252 61.8753Z" fill="#191D26"/>
<path d="M99.6574 48.5117C99.6574 49.0569 99.6574 49.5601 99.6574 50.1053C98.5525 50.1053 97.4756 50.1053 96.3567 50.1053C96.3567 49.5741 96.3567 49.0709 96.3567 48.5117C97.4336 48.5117 98.5105 48.5117 99.6574 48.5117Z" fill="#191D26"/>
<path d="M96.3427 73.5615C96.3427 73.0303 96.3427 72.5271 96.3427 71.9819C97.4475 71.9819 98.5245 71.9819 99.6433 71.9819C99.6433 72.4991 99.6433 73.0024 99.6433 73.5615C98.5804 73.5615 97.5035 73.5615 96.3427 73.5615Z" fill="#191D26"/>
<path d="M96.3286 61.8335C96.3286 61.5539 96.3286 61.3442 96.3286 61.1485C96.3286 60.869 96.3286 60.5894 96.3286 60.2539C97.4335 60.2539 98.5104 60.2539 99.6433 60.2539C99.6433 60.7571 99.6433 61.2743 99.6433 61.8335C98.5524 61.8335 97.4755 61.8335 96.3286 61.8335Z" fill="#191D26"/>
</g>
</g>
</g>
</g>
<defs>
<clipPath id="clip0_17402_3144">
<rect fill="white" height="90" width="154"/>
</clipPath>
<clipPath id="clip1_17402_3144">
<rect fill="white" height="52" transform="translate(51 25)" width="52"/>
</clipPath>
</defs>
</svg>