<?xml version="1.0" encoding="utf-8"?>
<svg xmlns="http://www.w3.org/2000/svg" fill="none" height="90" viewBox="0 0 154 90" width="154">
<g clip-path="url(#clip0_17402_3138)">
<path d="M88.7685 18.9342C88.7748 18.9379 88.7798 18.9409 88.7836 18.9432L89.8135 19.7648L90.9832 19.1184C96.9489 15.8221 103.011 14.5374 109.433 16.1104C119.54 18.6122 125.81 24.8945 128.474 34.9196L128.478 34.9343L128.482 34.949C128.675 35.6332 128.961 36.4994 129.603 37.2279C130.293 38.0113 131.186 38.4157 132.162 38.6344C144.312 41.5488 152.288 51.7837 151.992 63.7132L151.992 63.7151C151.696 76.1217 141.39 86.9593 128.979 87.8852C127.905 87.9616 126.79 88 125.714 88H125.523H125.333H125.143H124.952H124.762H124.572H124.381H124.191H124.001H123.81H123.62H123.43H123.239H123.049H122.858H122.668H122.478H122.287H122.097H121.907H121.716H121.526H121.336H121.145H120.955H120.765H120.574H120.384H120.194H120.003H119.813H119.623H119.432H119.242H119.052H118.861H118.671H118.481H118.29H118.1H117.91H117.719H117.529H117.339H117.148H116.958H116.768H116.577H116.387H116.197H116.006H115.816H115.626H115.435H115.245H115.055H114.864H114.674H114.484H114.293H114.103H113.913H113.722H113.532H113.342H113.152H112.961H112.771H112.581H112.39H112.2H112.01H111.819H111.629H111.439H111.248H111.058H110.868H110.678H110.487H110.297H110.107H109.916H109.726H109.536H109.345H109.155H108.965H108.775H108.584H108.394H108.204H108.013H107.823H107.633H107.442H107.252H107.062H106.872H106.681H106.491H106.301H106.11H105.92H105.73H105.54H105.349H105.159H104.969H104.778H104.588H104.398H104.208H104.017H103.827H103.637H103.446H103.256H103.066H102.876H102.685H102.495H102.305H102.114H101.924H101.734H101.544H101.353H101.163H100.973H100.782H100.592H100.402H100.212H100.021H99.8311H99.6408H99.4506H99.2603H99.07H98.8797H98.6895H98.4992H98.3089H98.1187H97.9284H97.7381H97.5478H97.3576H97.1673H96.977H96.7868H96.5965H96.4062H96.216H96.0257H95.8354H95.6452H95.4549H95.2646H95.0744H94.8841H94.6938H94.5036H94.3133H94.1231H93.9328H93.7425H93.5523H93.362H93.1717H92.9815H92.7912H92.601H92.4107H92.2204H92.0302H91.8399H91.6497H91.4594H91.2691H91.0789H90.8886H90.6984H90.5081H90.3179H90.1276H89.9373H89.7471H89.5568H89.3666H89.1763H88.9861H88.7958H88.6056H88.4153H88.2251H88.0348H87.8445H87.6543H87.464H87.2738H87.0835H86.8933H86.703H86.5128H86.3225H86.1323H85.942H85.7518H85.5615H85.3713H85.181H84.9908H84.8005H84.6103H84.42H84.2298H84.0395H83.8493H83.659H83.4688H83.2785H83.0882H82.898H82.7077H82.5175H82.3272H82.137H81.9467H81.7565H81.5663H81.376H81.1858H80.9955H80.8053H80.615H80.4248H80.2345H80.0443H79.854H79.6638H79.4735H79.2833H79.093H78.9028H78.7125H78.5223H78.332H78.1418H77.9515H77.7613H77.571H77.3808H77.1905H77.0003H76.81H76.6198H76.4295H76.2393H76.049H75.8588H75.6685H75.4783H75.288H75.0978H74.9076H74.7173H74.5271H74.3368H74.1466H73.9563H73.7661H73.5758H73.3856H73.1953H73.0051H72.8148H72.6246H72.4343H72.2441H72.0538H71.8636H71.6733H71.4831H71.2928H71.1026H70.9123H70.7221H70.5318H70.3416H70.1513H69.9611H69.7708H69.5806H69.3903H69.2001H69.0098H68.8196H68.6293H68.4391H68.2488H68.0586H67.8683H67.6781H67.4878H67.2975H67.1073H66.917H66.7268H66.5365H66.3463H66.156H65.9658H65.7755H65.5853H65.395H65.2048H65.0145H64.8242H64.634H64.4437H64.2535H64.0632H63.873H63.6827H63.4925H63.3022H63.1119H62.9217H62.7314H62.5412H62.3509H62.1606H61.9704H61.7801H61.5899H61.3996H61.2093H61.0191H60.8288H60.6386H60.4483H60.258H60.0678H59.8775H59.6872H59.497H59.3067H59.1165H58.9262H58.7359H58.5457H58.3554H58.1651H57.9749H57.7846H57.5943H57.4041H57.2138H57.0235H56.8333H56.643H56.4527H56.2625H56.0722H55.8819H55.6916H55.5014H55.3111H55.1208H54.9306H54.7403H54.55H54.3597H54.1695H53.9792H53.7889H53.5986H53.4084H53.2181H53.0278H52.8375H52.6473H52.457H52.2667H52.0764H51.8862H51.6959H51.5056H51.3153H51.125H50.9347H50.7445H50.5542H50.3639H50.1736H49.9833H49.793H49.6028H49.4125H49.2222H49.0319H48.8416H48.6513H48.461H48.2708H48.0805H47.8902H47.6999H47.5096H47.3193H47.129H46.9387H46.7484H46.5581H46.3678H46.1775H45.9872H45.7969H45.6066H45.4164H45.2261H45.0358H44.8455H44.6552H44.4649H44.2746H44.0843H43.894H43.7036H43.5133H43.323H43.1327H42.9424H42.7521H42.5618H42.3715H42.1812H41.9909H41.8006H41.6103H41.42H41.2297H41.0393H40.849H40.6587H40.4684H40.2781H40.0878H39.8975H39.7071H39.5168H39.3265H39.1362H38.9459H38.7555H38.5652H38.3749H38.1846H37.9943H37.8039H37.6136H37.4233H37.233H37.0426H36.8523H36.662H36.4716H36.2813H36.091H35.9007H35.7103H35.52H35.3297H35.1393H34.949H34.7586H34.5683H34.378H34.1876H33.9973H33.807H33.6166H33.4263H33.2359H33.0456H32.8552H32.6649H32.4746H32.2842H32.0939H31.9035H31.7132H31.5228H31.3325H31.1421H30.9518H30.7614H30.571H30.3807H30.1903H30H29.8096H29.6193H29.4289H29.2385H29.0482H28.8578H28.6675H28.4771H28.2867C18.4248 88 10.8244 84.0404 5.63703 75.7431C-3.02595 61.8238 4.53028 43.0896 20.5215 38.9829L20.526 38.9818C21.563 38.7129 22.7634 38.3239 23.6553 37.3778C24.5951 36.3809 24.8946 35.1028 24.9873 33.7865L24.9879 33.7772C26.2759 14.1719 43.6559 -0.182798 63.2545 2.27422L63.255 2.27428C73.2243 3.52162 81.1136 8.4042 86.939 16.6428L86.9461 16.6528C87.3271 17.1847 87.6606 17.6651 87.9895 18.1735C88.1213 18.3915 88.2804 18.567 88.4442 18.7052C88.5929 18.8307 88.7386 18.9165 88.7652 18.9322L88.7685 18.9342Z" fill="#F0F3FB" stroke="white" stroke-width="4"/>
<mask height="42" id="mask0_17402_3138" maskUnits="userSpaceOnUse" style="mask-type:luminance" width="70" x="42" y="33">
<path d="M112 33H42V74.7308H112V33Z" fill="white"/>
</mask>
<g mask="url(#mask0_17402_3138)">
<path d="M75.6068 74.7126C67.3189 74.7126 59.0312 74.7305 50.7433 74.7126C46.8635 74.7126 43.9491 72.7656 42.6012 69.3407C40.798 64.7801 43.257 59.7147 48.0111 58.3447C48.9218 58.0923 49.2861 57.6957 49.359 56.7945C49.4136 56.0914 49.6504 55.3884 49.8872 54.7033C50.124 54.0184 50.7069 53.7299 51.4173 53.8921C52.1641 54.0724 52.5466 54.5952 52.4555 55.3704C52.2734 56.7403 52.0548 58.0923 51.818 59.4442C51.6541 60.3456 50.9983 60.598 50.1604 60.67C46.8271 60.9405 44.6413 63.3741 44.787 66.6367C44.9145 69.3767 46.8818 71.5219 49.614 71.9005C50.0694 71.9544 50.5247 71.9905 50.9801 71.9905C67.3371 71.9905 83.7124 72.0086 100.069 71.9905C103.476 71.9905 106.317 70.7827 108.084 67.7544C110.962 62.7972 108.558 55.4245 101.381 54.6853C101.016 54.6494 100.652 54.6494 100.288 54.5772C99.4318 54.397 99.1768 53.766 99.1587 52.9729C99.0857 49.8544 98.3937 46.88 96.6997 44.2301C92.7651 38.0651 86.9729 35.3071 79.7415 35.7759C72.9655 36.2084 68.1204 39.7416 65.1878 45.7804C64.6778 46.844 64.0402 47.3306 62.8381 47.3847C61.9091 47.4208 60.9983 47.7093 60.0876 47.9255C59.1587 48.1598 58.4118 47.8715 58.175 47.0783C57.9382 46.3211 58.3025 45.6362 59.2133 45.3657C60.1423 45.0954 61.1076 44.9511 62.0366 44.6628C62.3827 44.5545 62.8016 44.3023 62.9656 43.9958C66.7725 36.9476 72.7105 33.0899 80.7616 32.9998C88.9037 32.9277 95.2788 36.3527 99.4318 43.437C100.78 45.7262 101.508 48.25 101.763 50.8638C101.854 51.729 102.146 51.9995 102.947 52.1797C107.61 53.2253 110.652 56.0193 111.691 60.67C112.965 66.4024 110.179 71.8283 104.896 73.8112C103.366 74.388 101.654 74.6404 100.015 74.6585C91.8726 74.7485 83.7305 74.7126 75.6068 74.7126Z" fill="#191D26"/>
<path d="M90.8526 67.5382C90.0511 67.2679 89.2314 67.0515 88.4846 66.7091C87.8289 66.4026 87.5921 65.7897 87.8472 65.1047C88.1203 64.3836 88.7032 64.1133 89.4501 64.2575C89.778 64.3295 90.0694 64.4738 90.3972 64.5639C91.1804 64.7982 91.8726 64.5278 92.1459 63.8429C92.4191 63.1578 92.164 62.4729 91.4355 62.1124C90.9801 61.878 90.4883 61.7158 90.0148 61.5175C87.7014 60.508 86.7542 57.8942 87.9382 55.8031C89.0675 53.8202 91.4902 52.937 94.0038 54.397C94.6049 54.7396 94.8782 55.3165 94.5684 56.0194C94.277 56.6864 93.7306 56.9748 93.0202 56.8306C92.6376 56.7586 92.2733 56.5603 91.9091 56.4521C91.1441 56.2538 90.5977 56.5423 90.2879 57.2452C89.9965 57.9303 90.2516 58.5071 90.8708 58.8496C91.399 59.1561 91.9819 59.3183 92.5283 59.5706C94.4046 60.4178 95.2971 62.2385 94.8782 64.2394C94.4774 66.0781 92.8016 67.394 90.8526 67.5382Z" fill="#191D26"/>
<path d="M62.4918 67.5384C61.6903 67.268 60.8706 67.0697 60.1239 66.7092C59.5045 66.4208 59.2131 65.826 59.4864 65.1229C59.7595 64.4019 60.3242 64.1314 61.0892 64.2756C61.4172 64.3297 61.7086 64.4919 62.0364 64.5821C62.8197 64.8165 63.4754 64.546 63.785 63.8611C64.0765 63.1941 63.8215 62.5091 63.0928 62.1486C62.6376 61.9142 62.1457 61.752 61.6721 61.5537C59.3589 60.5442 58.3934 57.9484 59.5774 55.8574C60.7614 53.7123 63.5482 53.0634 65.643 54.4333C66.2441 54.8299 66.4808 55.4067 66.2259 56.0738C65.9708 56.7406 65.4062 57.0291 64.6958 56.903C64.3133 56.8308 63.949 56.6326 63.5847 56.5243C62.8561 56.3081 62.2915 56.5784 62 57.2274C61.7086 57.8944 61.8361 58.5613 62.5283 58.9399C63.0565 59.2283 63.6394 59.4086 64.1858 59.661C65.9891 60.4722 66.9727 62.3468 66.572 64.1675C66.1166 66.0782 64.5137 67.3942 62.4918 67.5384Z" fill="#191D26"/>
<path d="M86.0802 63.3744C86.0802 64.2398 86.1167 65.1231 86.0802 65.9883C86.0256 67.106 85.1877 67.6107 84.1131 67.2682C83.8216 67.178 83.4755 67.16 83.1841 67.2321C81.4354 67.6828 79.705 67.106 78.6668 65.718C77.6832 64.3839 77.6285 62.5273 78.5392 61.1573C79.5228 59.6791 81.2897 59.0301 83.0748 59.4267C83.4209 59.4989 83.8398 59.4989 84.1859 59.4087C85.2059 59.1203 86.0256 59.625 86.0802 60.6886C86.1167 61.5718 86.062 62.4732 86.0802 63.3744ZM81.9818 62.0045C81.2533 61.9864 80.6521 62.5453 80.6158 63.2663C80.5793 64.0595 81.1258 64.6544 81.9272 64.6724C82.7105 64.6904 83.3116 64.0956 83.3116 63.3385C83.3116 62.6174 82.7105 62.0045 81.9818 62.0045Z" fill="#191D26"/>
<path d="M76.4809 63.4102C76.4809 64.2574 76.4991 65.0867 76.4809 65.9339C76.4444 67.1056 75.6247 67.6283 74.4954 67.2678C74.2403 67.1778 73.9126 67.1597 73.6393 67.2318C71.1621 67.8627 68.8852 66.5468 68.357 64.1493C67.8652 61.896 69.4316 59.7509 71.8725 59.3543C72.255 59.3002 72.6556 59.3724 73.0382 59.3543C73.6393 59.3543 74.2586 59.3904 74.8597 59.3183C75.6976 59.2102 76.4262 59.7509 76.4626 60.6341C76.5172 61.5355 76.4809 62.4728 76.4809 63.4102ZM72.4007 64.672C73.1839 64.654 73.7668 64.0411 73.7304 63.284C73.6939 62.563 73.0929 62.0042 72.3642 62.0042C71.6538 62.0221 71.0346 62.617 71.0346 63.3201C71.0163 64.0591 71.6357 64.672 72.4007 64.672Z" fill="#191D26"/>
<path d="M54.3132 51.3149C53.5846 51.3329 52.9835 50.7742 52.9471 50.0351C52.9107 49.242 53.4753 48.6291 54.2586 48.6291C55.0418 48.611 55.6611 49.2059 55.6429 49.981C55.6247 50.72 55.0418 51.2969 54.3132 51.3149Z" fill="#191D26"/>
</g>
</g>
<defs>
<clipPath id="clip0_17402_3138">
<rect fill="white" height="90" width="154"/>
</clipPath>
</defs>
</svg>