<svg width="369" height="369" viewBox="0 0 369 369" fill="none" xmlns="http://www.w3.org/2000/svg">
<path d="M281.761 301.606L227.061 287.584H278.698L334.646 301.606H281.761Z" fill="#1A8EF7" fill-opacity="0.19"/>
<path d="M86.8695 301.606L141.57 287.584H89.9395L33.9844 301.606H86.8695Z" fill="#1A8EF7" fill-opacity="0.19"/>
<path d="M186.84 243.274C186.84 243.274 186.788 243.016 186.707 242.536" stroke="#2E353A" stroke-miterlimit="10"/>
<path d="M186.463 241.09C185.673 235.976 184.338 223.216 189.349 217.518C195.703 210.308 203.319 216.485 224.544 217.518C245.769 218.551 256.691 215.459 256.913 197.26C257.134 179.061 244.684 177.858 244.684 177.858H236.817" stroke="#2E353A" stroke-miterlimit="10" stroke-dasharray="2.01 2.01"/>
<path d="M236.072 177.888H235.334" stroke="#2E353A" stroke-miterlimit="10"/>
<path d="M235.334 121.984H236.072" stroke="#2E353A" stroke-miterlimit="10"/>
<path d="M237.547 121.984H264.115C264.115 121.984 272.122 122.678 271.79 131.917C271.458 141.157 258.137 149.814 258.986 168.264C259.834 186.714 291.318 183.961 295.605 202.433C299.893 220.906 268.395 219.983 265.465 229.518C264.544 231.656 264.092 233.966 264.137 236.293C264.137 239.392 264.137 246.758 264.137 249.909" stroke="#2E353A" stroke-miterlimit="10" stroke-dasharray="2 2"/>
<path d="M264.139 250.654V251.392" stroke="#2E353A" stroke-miterlimit="10"/>
<path d="M137.533 69.6893H136.795" stroke="#2E353A" stroke-miterlimit="10"/>
<path d="M135.328 69.6894H122.317C122.317 69.6894 86.8926 69.2835 86.8926 99.2094C86.8926 113.062 91.7043 123.416 105.963 140.434C120.221 157.452 119.985 210.647 115.35 220.19C110.715 229.732 100.885 228.308 97.4312 233.474C97.4312 233.474 94.9442 236.079 94.7301 239.26C94.5604 241.761 94.6563 249.961 94.7301 253.326" stroke="#2E353A" stroke-miterlimit="10" stroke-dasharray="1.99 1.99"/>
<path d="M94.6934 254.101C94.6934 254.566 94.6934 254.839 94.6934 254.839" stroke="#2E353A" stroke-miterlimit="10"/>
<path d="M145.496 108.22C144.626 108.222 143.764 108.348 142.936 108.593C142.119 108.835 141.149 108.149 141.15 107.298C141.152 104.17 139.986 101.154 137.881 98.8417C135.775 96.5289 132.881 95.0861 129.767 94.796C126.653 94.506 123.543 95.3896 121.046 97.2736C119.846 98.179 118.83 99.2842 118.034 100.529C116.675 102.654 114.047 104.135 111.534 104.35C109.928 104.487 108.371 104.973 106.973 105.775C105.574 106.576 104.367 107.673 103.437 108.989C102.506 110.306 101.874 111.809 101.586 113.395C101.297 114.981 101.357 116.611 101.764 118.171C102.17 119.731 102.913 121.183 103.939 122.426C104.965 123.67 106.25 124.674 107.705 125.369C109.16 126.063 110.748 126.432 112.36 126.449M145.496 108.22V108.72H145.497C144.674 108.722 143.86 108.841 143.078 109.073C142.493 109.246 141.889 109.081 141.445 108.762C141 108.442 140.649 107.919 140.65 107.298V107.297C140.652 104.294 139.533 101.399 137.511 99.1783C135.489 96.9577 132.711 95.5724 129.721 95.2939C126.731 95.0154 123.744 95.8637 121.347 97.6727C120.195 98.5421 119.219 99.6031 118.455 100.799C117.006 103.065 114.231 104.621 111.577 104.848C110.043 104.979 108.557 105.443 107.221 106.208C105.886 106.974 104.734 108.021 103.845 109.278C102.957 110.535 102.353 111.971 102.077 113.485C101.802 114.999 101.86 116.555 102.248 118.045C102.636 119.534 103.345 120.921 104.325 122.108C105.304 123.295 106.532 124.254 107.92 124.917C109.309 125.58 110.825 125.932 112.363 125.949M145.496 108.22H145.504C147.921 108.22 150.239 109.181 151.949 110.89C153.658 112.599 154.618 114.917 154.618 117.335C154.618 119.752 153.658 122.07 151.949 123.779C150.239 125.489 147.921 126.449 145.504 126.449H112.36M145.496 108.22L145.497 108.72L145.504 108.72C147.788 108.72 149.98 109.628 151.595 111.243C153.211 112.859 154.118 115.05 154.118 117.335C154.118 119.619 153.211 121.81 151.595 123.426C149.98 125.041 147.788 125.949 145.504 125.949H112.363M112.363 125.949H112.36V126.449M112.363 125.949C112.364 125.949 112.365 125.949 112.365 125.949L112.36 126.449" fill="white" fill-opacity="0.15" stroke="url(#paint0_linear_1804_7780)"/>
<path d="M280.464 144.271C280.462 144.921 280.828 145.47 281.295 145.805C281.762 146.14 282.396 146.31 283.007 146.13C283.805 145.894 284.634 145.767 285.471 145.754C285.517 145.768 285.566 145.775 285.616 145.775C288.054 145.778 290.391 146.748 292.115 148.471C293.841 150.198 294.811 152.539 294.811 154.98C294.811 157.421 293.841 159.762 292.115 161.489C290.388 163.215 288.047 164.185 285.606 164.185H250.309C248.657 164.176 247.028 163.806 245.535 163.1C244.042 162.394 242.721 161.369 241.667 160.098C240.612 158.827 239.848 157.34 239.43 155.742C239.011 154.144 238.948 152.474 239.244 150.849C239.54 149.224 240.189 147.684 241.144 146.336C242.099 144.989 243.338 143.867 244.774 143.05C246.209 142.233 247.806 141.74 249.453 141.606C252.279 141.376 255.242 139.724 256.789 137.317C257.603 136.051 258.64 134.926 259.862 134.004C262.42 132.074 265.607 131.169 268.798 131.466C271.988 131.763 274.953 133.24 277.111 135.609C279.269 137.978 280.465 141.067 280.464 144.271ZM280.464 144.271C280.464 144.271 280.464 144.27 280.464 144.27L280.964 144.272L280.464 144.272C280.464 144.271 280.464 144.271 280.464 144.271Z" fill="white" fill-opacity="0.15" stroke="url(#paint1_linear_1804_7780)"/>
<path d="M279.334 167.157H282.286" stroke="#2E353A" stroke-linecap="round" stroke-linejoin="round"/>
<path d="M264.941 167.157H275.273" stroke="#2E353A" stroke-linecap="round" stroke-linejoin="round"/>
<path d="M255.172 131.504C256.683 130.234 258.549 129.461 260.515 129.29" stroke="#2E353A" stroke-linecap="round" stroke-linejoin="round"/>
<path d="M251.658 136.899C251.924 135.732 252.427 134.632 253.134 133.667" stroke="#2E353A" stroke-linecap="round" stroke-linejoin="round"/>
<path d="M132.118 188.706V188.707C132.119 189.584 132.615 190.337 133.266 190.805C133.917 191.273 134.79 191.504 135.619 191.259C136.868 190.89 138.167 190.695 139.48 190.683C139.515 190.692 139.551 190.697 139.588 190.697L139.6 190.198L139.588 190.697C143.265 190.782 146.763 192.301 149.334 194.931C151.907 197.562 153.347 201.096 153.347 204.777C153.347 208.457 151.907 211.991 149.334 214.622C146.762 217.252 143.264 218.772 139.587 218.856H86.5694C84.0614 218.833 81.5886 218.263 79.324 217.185C77.0589 216.106 75.0569 214.545 73.4583 212.612C71.8597 210.678 70.7031 208.418 70.0695 205.991C69.436 203.563 69.3408 201.027 69.7906 198.558C70.2405 196.09 71.2244 193.75 72.6736 191.702C74.1228 189.654 76.0022 187.948 78.1802 186.702C80.3581 185.457 82.782 184.703 85.282 184.493C89.445 184.143 93.8017 181.697 96.0652 178.155C97.3051 176.215 98.8881 174.493 100.757 173.081C104.649 170.14 109.501 168.759 114.359 169.209C119.217 169.66 123.731 171.909 127.017 175.516C130.302 179.123 132.122 183.827 132.118 188.706ZM139.586 190.683C139.585 190.683 139.585 190.683 139.585 190.683H139.586Z" fill="white" fill-opacity="0.15" stroke="url(#paint2_linear_1804_7780)"/>
<path d="M72.9512 217.872C73.6936 218.365 74.4705 218.804 75.2759 219.186" stroke="#2E353A" stroke-linecap="round" stroke-linejoin="round"/>
<path d="M67.1582 211.068C67.865 212.749 68.8928 214.275 70.184 215.562" stroke="#2E353A" stroke-linecap="round" stroke-linejoin="round"/>
<path d="M99.873 167.526C102.938 165.417 106.615 164.379 110.331 164.574" stroke="#2E353A" stroke-linecap="round" stroke-linejoin="round"/>
<path d="M96.6777 170.478C97.1921 169.806 97.7759 169.19 98.4194 168.64" stroke="#2E353A" stroke-linecap="round" stroke-linejoin="round"/>
<g filter="url(#filter0_di_1804_7780)">
<path d="M235.334 125.419V119.656C235.334 118.688 234.549 117.903 233.581 117.903C232.613 117.903 231.828 118.688 231.828 119.656V125.419C231.828 126.388 232.613 127.172 233.581 127.172C234.549 127.172 235.334 126.388 235.334 125.419Z" fill="#D9D9D9" fill-opacity="0.1" shape-rendering="crispEdges"/>
</g>
<g filter="url(#filter1_di_1804_7780)">
<path d="M235.334 180.098V174.334C235.334 173.366 234.549 172.581 233.581 172.581C232.613 172.581 231.828 173.366 231.828 174.334V180.098C231.828 181.066 232.613 181.851 233.581 181.851C234.549 181.851 235.334 181.066 235.334 180.098Z" fill="#D9D9D9" fill-opacity="0.1" shape-rendering="crispEdges"/>
</g>
<g filter="url(#filter2_di_1804_7780)">
<path d="M141.039 71.789V66.0252C141.039 65.0572 140.254 64.2725 139.286 64.2725C138.318 64.2725 137.533 65.0572 137.533 66.0252V71.789C137.533 72.757 138.318 73.5417 139.286 73.5417C140.254 73.5417 141.039 72.757 141.039 71.789Z" fill="#D9D9D9" fill-opacity="0.1" shape-rendering="crispEdges"/>
</g>
<g filter="url(#filter3_di_1804_7780)">
<path d="M141.039 153.109V147.345C141.039 146.377 140.254 145.593 139.286 145.593C138.318 145.593 137.533 146.377 137.533 147.345V153.109C137.533 154.077 138.318 154.862 139.286 154.862C140.254 154.862 141.039 154.077 141.039 153.109Z" fill="#D9D9D9" fill-opacity="0.1" shape-rendering="crispEdges"/>
</g>
<g filter="url(#filter4_di_1804_7780)">
<path d="M226.967 59.1433H146.719C143.399 59.1433 140.707 61.8349 140.707 65.1552V73.1164C140.707 76.4367 143.399 79.1284 146.719 79.1284H226.967C230.288 79.1284 232.979 76.4367 232.979 73.1164V65.1552C232.979 61.8349 230.288 59.1433 226.967 59.1433Z" fill="#D9D9D9" fill-opacity="0.1" shape-rendering="crispEdges"/>
</g>
<path d="M208.736 64.2429H145.143V74.0288H208.736V64.2429Z" fill="#1A8EF7" fill-opacity="0.19" stroke="#2E353A" stroke-miterlimit="10"/>
<path d="M217.348 71.1728C218.709 71.1728 219.813 70.0692 219.813 68.7078C219.813 67.3465 218.709 66.2429 217.348 66.2429C215.986 66.2429 214.883 67.3465 214.883 68.7078C214.883 70.0692 215.986 71.1728 217.348 71.1728Z" fill="white" fill-opacity="0.2" stroke="#2E353A" stroke-miterlimit="10"/>
<path d="M229.473 68.7078C229.473 68.2203 229.328 67.7438 229.057 67.3384C228.787 66.933 228.402 66.6171 227.951 66.4306C227.501 66.244 227.005 66.1952 226.527 66.2903C226.049 66.3854 225.61 66.6202 225.265 66.9649C224.92 67.3096 224.685 67.7488 224.59 68.227C224.495 68.7051 224.544 69.2007 224.731 69.6511C224.917 70.1015 225.233 70.4865 225.638 70.7573C226.044 71.0282 226.52 71.1728 227.008 71.1728C227.662 71.1728 228.289 70.9131 228.751 70.4508C229.213 69.9885 229.473 69.3616 229.473 68.7078Z" fill="#1A8EF7" fill-opacity="0.19" stroke="#2E353A" stroke-miterlimit="10"/>
<path d="M202.965 71.1728C204.326 71.1728 205.43 70.0692 205.43 68.7078C205.43 67.3465 204.326 66.2429 202.965 66.2429C201.604 66.2429 200.5 67.3465 200.5 68.7078C200.5 70.0692 201.604 71.1728 202.965 71.1728Z" fill="white" fill-opacity="0.2" stroke="#2E353A" stroke-miterlimit="10"/>
<g filter="url(#filter5_di_1804_7780)">
<path d="M226.061 79.1284H147.634C145.744 79.1284 144.213 80.6599 144.213 82.549C144.213 84.4382 145.744 85.9697 147.634 85.9697H226.061C227.95 85.9697 229.481 84.4382 229.481 82.549C229.481 80.6599 227.95 79.1284 226.061 79.1284Z" fill="#D9D9D9" fill-opacity="0.1" shape-rendering="crispEdges"/>
</g>
<g filter="url(#filter6_di_1804_7780)">
<path d="M226.967 85.9696H146.719C143.399 85.9696 140.707 88.6612 140.707 91.9815V99.9427C140.707 103.263 143.399 105.955 146.719 105.955H226.967C230.288 105.955 232.979 103.263 232.979 99.9427V91.9815C232.979 88.6612 230.288 85.9696 226.967 85.9696Z" fill="#D9D9D9" fill-opacity="0.1" shape-rendering="crispEdges"/>
</g>
<path d="M208.736 91.0692H145.143V100.855H208.736V91.0692Z" fill="#1A8EF7" fill-opacity="0.19" stroke="#2E353A" stroke-miterlimit="10"/>
<path d="M217.348 98.0064C218.709 98.0064 219.813 96.9028 219.813 95.5415C219.813 94.1801 218.709 93.0765 217.348 93.0765C215.986 93.0765 214.883 94.1801 214.883 95.5415C214.883 96.9028 215.986 98.0064 217.348 98.0064Z" fill="#1A8EF7" fill-opacity="0.19" stroke="#2E353A" stroke-miterlimit="10"/>
<path d="M229.473 95.5415C229.473 95.054 229.328 94.5774 229.057 94.172C228.787 93.7667 228.402 93.4507 227.951 93.2642C227.501 93.0776 227.005 93.0288 226.527 93.1239C226.049 93.219 225.61 93.4538 225.265 93.7985C224.92 94.1432 224.685 94.5824 224.59 95.0606C224.495 95.5387 224.544 96.0343 224.731 96.4847C224.917 96.9351 225.233 97.3201 225.638 97.591C226.044 97.8618 226.52 98.0064 227.008 98.0064C227.332 98.0074 227.653 97.9443 227.952 97.8207C228.252 97.6972 228.524 97.5157 228.753 97.2866C228.982 97.0575 229.164 96.7854 229.287 96.4859C229.411 96.1864 229.474 95.8654 229.473 95.5415Z" fill="white" fill-opacity="0.2" stroke="#2E353A" stroke-miterlimit="10"/>
<path d="M202.965 98.0064C204.326 98.0064 205.43 96.9028 205.43 95.5415C205.43 94.1801 204.326 93.0765 202.965 93.0765C201.604 93.0765 200.5 94.1801 200.5 95.5415C200.5 96.9028 201.604 98.0064 202.965 98.0064Z" fill="white" fill-opacity="0.2" stroke="#2E353A" stroke-miterlimit="10"/>
<g filter="url(#filter7_di_1804_7780)">
<path d="M226.061 105.962H147.634C145.744 105.962 144.213 107.494 144.213 109.383C144.213 111.272 145.744 112.803 147.634 112.803H226.061C227.95 112.803 229.481 111.272 229.481 109.383C229.481 107.494 227.95 105.962 226.061 105.962Z" fill="#D9D9D9" fill-opacity="0.1" shape-rendering="crispEdges"/>
</g>
<g filter="url(#filter8_di_1804_7780)">
<path d="M226.967 112.803H146.719C143.399 112.803 140.707 115.495 140.707 118.815V126.776C140.707 130.097 143.399 132.788 146.719 132.788H226.967C230.288 132.788 232.979 130.097 232.979 126.776V118.815C232.979 115.495 230.288 112.803 226.967 112.803Z" fill="#D9D9D9" fill-opacity="0.1" shape-rendering="crispEdges"/>
</g>
<path d="M208.736 117.903H145.143V127.689H208.736V117.903Z" fill="#1A8EF7" fill-opacity="0.19" stroke="#2E353A" stroke-miterlimit="10"/>
<path d="M217.348 124.833C218.709 124.833 219.813 123.729 219.813 122.368C219.813 121.006 218.709 119.903 217.348 119.903C215.986 119.903 214.883 121.006 214.883 122.368C214.883 123.729 215.986 124.833 217.348 124.833Z" fill="white" fill-opacity="0.2" stroke="#2E353A" stroke-miterlimit="10"/>
<path d="M229.473 122.368C229.473 121.88 229.328 121.404 229.057 120.998C228.787 120.593 228.402 120.277 227.951 120.09C227.501 119.904 227.005 119.855 226.527 119.95C226.049 120.045 225.61 120.28 225.265 120.625C224.92 120.97 224.685 121.409 224.59 121.887C224.495 122.365 224.544 122.861 224.731 123.311C224.917 123.761 225.233 124.146 225.638 124.417C226.044 124.688 226.52 124.833 227.008 124.833C227.662 124.833 228.289 124.573 228.751 124.111C229.213 123.648 229.473 123.021 229.473 122.368Z" fill="#1A8EF7" fill-opacity="0.19" stroke="#2E353A" stroke-miterlimit="10"/>
<path d="M202.965 124.833C204.326 124.833 205.43 123.729 205.43 122.368C205.43 121.006 204.326 119.903 202.965 119.903C201.604 119.903 200.5 121.006 200.5 122.368C200.5 123.729 201.604 124.833 202.965 124.833Z" fill="white" fill-opacity="0.2" stroke="#2E353A" stroke-miterlimit="10"/>
<g filter="url(#filter9_di_1804_7780)">
<path d="M226.061 132.788H147.634C145.744 132.788 144.213 134.32 144.213 136.209C144.213 138.098 145.744 139.63 147.634 139.63H226.061C227.95 139.63 229.481 138.098 229.481 136.209C229.481 134.32 227.95 132.788 226.061 132.788Z" fill="#D9D9D9" fill-opacity="0.1" shape-rendering="crispEdges"/>
</g>
<g filter="url(#filter10_di_1804_7780)">
<path d="M226.967 139.63H146.719C143.399 139.63 140.707 142.321 140.707 145.642V153.603C140.707 156.923 143.399 159.615 146.719 159.615H226.967C230.288 159.615 232.979 156.923 232.979 153.603V145.642C232.979 142.321 230.288 139.63 226.967 139.63Z" fill="#D9D9D9" fill-opacity="0.1" shape-rendering="crispEdges"/>
</g>
<path d="M208.736 144.729H145.143V154.515H208.736V144.729Z" fill="#1A8EF7" fill-opacity="0.19" stroke="#2E353A" stroke-miterlimit="10"/>
<path d="M217.348 151.666C218.709 151.666 219.813 150.563 219.813 149.201C219.813 147.84 218.709 146.737 217.348 146.737C215.986 146.737 214.883 147.84 214.883 149.201C214.883 150.563 215.986 151.666 217.348 151.666Z" fill="#1A8EF7" fill-opacity="0.19" stroke="#2E353A" stroke-miterlimit="10"/>
<path d="M229.473 149.201C229.473 148.714 229.328 148.237 229.057 147.832C228.787 147.427 228.402 147.111 227.951 146.924C227.501 146.738 227.005 146.689 226.527 146.784C226.049 146.879 225.61 147.114 225.265 147.459C224.92 147.803 224.685 148.242 224.59 148.721C224.495 149.199 224.544 149.694 224.731 150.145C224.917 150.595 225.233 150.98 225.638 151.251C226.044 151.522 226.52 151.666 227.008 151.666C227.332 151.667 227.653 151.604 227.952 151.481C228.252 151.357 228.524 151.176 228.753 150.947C228.982 150.718 229.164 150.445 229.287 150.146C229.411 149.846 229.474 149.525 229.473 149.201Z" fill="white" fill-opacity="0.2" stroke="#2E353A" stroke-miterlimit="10"/>
<path d="M202.965 151.666C204.326 151.666 205.43 150.563 205.43 149.201C205.43 147.84 204.326 146.737 202.965 146.737C201.604 146.737 200.5 147.84 200.5 149.201C200.5 150.563 201.604 151.666 202.965 151.666Z" fill="white" fill-opacity="0.2" stroke="#2E353A" stroke-miterlimit="10"/>
<g filter="url(#filter11_di_1804_7780)">
<path d="M226.061 159.622H147.634C145.744 159.622 144.213 161.154 144.213 163.043C144.213 164.932 145.744 166.463 147.634 166.463H226.061C227.95 166.463 229.481 164.932 229.481 163.043C229.481 161.154 227.95 159.622 226.061 159.622Z" fill="#D9D9D9" fill-opacity="0.1" shape-rendering="crispEdges"/>
</g>
<g filter="url(#filter12_di_1804_7780)">
<path d="M226.967 166.463H146.719C143.399 166.463 140.707 169.155 140.707 172.475V180.436C140.707 183.757 143.399 186.448 146.719 186.448H226.967C230.288 186.448 232.979 183.757 232.979 180.436V172.475C232.979 169.155 230.288 166.463 226.967 166.463Z" fill="#D9D9D9" fill-opacity="0.1" shape-rendering="crispEdges"/>
</g>
<path d="M208.736 171.563H145.143V181.349H208.736V171.563Z" fill="#1A8EF7" fill-opacity="0.19" stroke="#2E353A" stroke-miterlimit="10"/>
<path d="M217.348 178.493C218.709 178.493 219.813 177.389 219.813 176.028C219.813 174.666 218.709 173.563 217.348 173.563C215.986 173.563 214.883 174.666 214.883 176.028C214.883 177.389 215.986 178.493 217.348 178.493Z" fill="white" fill-opacity="0.2" stroke="#2E353A" stroke-miterlimit="10"/>
<path d="M229.473 176.028C229.473 175.54 229.328 175.064 229.057 174.658C228.787 174.253 228.402 173.937 227.951 173.751C227.501 173.564 227.005 173.515 226.527 173.61C226.049 173.705 225.61 173.94 225.265 174.285C224.92 174.63 224.685 175.069 224.59 175.547C224.495 176.025 224.544 176.521 224.731 176.971C224.917 177.421 225.233 177.806 225.638 178.077C226.044 178.348 226.52 178.493 227.008 178.493C227.662 178.493 228.289 178.233 228.751 177.771C229.213 177.308 229.473 176.682 229.473 176.028Z" fill="#1A8EF7" fill-opacity="0.19" stroke="#2E353A" stroke-miterlimit="10"/>
<path d="M202.965 178.493C204.326 178.493 205.43 177.389 205.43 176.028C205.43 174.666 204.326 173.563 202.965 173.563C201.604 173.563 200.5 174.666 200.5 176.028C200.5 177.389 201.604 178.493 202.965 178.493Z" fill="white" fill-opacity="0.2" stroke="#2E353A" stroke-miterlimit="10"/>
<path d="M192.986 56.457H198.152" stroke="#2E353A" stroke-linecap="round" stroke-linejoin="round"/>
<path d="M157.193 56.457H187.082" stroke="#2E353A" stroke-linecap="round" stroke-linejoin="round"/>
<path d="M136.898 177.858V181.548" stroke="#2E353A" stroke-linecap="round" stroke-linejoin="round"/>
<path d="M136.898 166.419V174.168" stroke="#2E353A" stroke-linecap="round" stroke-linejoin="round"/>
<path d="M219.968 243.274H154.205V288.329H219.968V243.274Z" fill="#2E353A" stroke="#2E353A" stroke-miterlimit="10"/>
<path d="M229.836 308.248H144.346L154.205 288.329H219.969L229.836 308.248Z" fill="white" fill-opacity="0.2" stroke="#2E353A" stroke-linecap="round" stroke-linejoin="round"/>
<g filter="url(#filter13_di_1804_7780)">
<path d="M209.97 246.839H164.201C160.881 246.839 158.189 249.531 158.189 252.851V278.753C158.189 282.073 160.881 284.765 164.201 284.765H209.97C213.291 284.765 215.982 282.073 215.982 278.753V252.851C215.982 249.53 213.291 246.839 209.97 246.839Z" fill="#D9D9D9" fill-opacity="0.1" shape-rendering="crispEdges"/>
</g>
<path d="M195.747 262.16L187.105 251.938L178.463 262.16H182.079V278.167H192.131V262.16H195.747Z" fill="#1A8EF7" fill-opacity="0.19"/>
<path d="M184.344 294.639L184.455 292.211H180.986L180.75 294.639H184.344Z" fill="white" fill-opacity="0.2" stroke="#2E353A" stroke-miterlimit="10"/>
<path d="M191.526 294.639L191.408 292.211H187.932L187.939 294.639H191.526Z" fill="white" fill-opacity="0.2" stroke="#2E353A" stroke-miterlimit="10"/>
<path d="M210.226 297.23H213.945L213.067 294.639H209.48L210.226 297.23Z" fill="white" fill-opacity="0.2" stroke="#2E353A" stroke-miterlimit="10"/>
<path d="M180.751 294.639L180.987 292.211H177.511L177.164 294.639H180.751Z" fill="white" fill-opacity="0.2" stroke="#2E353A" stroke-miterlimit="10"/>
<path d="M173.569 294.639L174.034 292.211H170.558L169.982 294.639H173.569Z" fill="white" fill-opacity="0.2" stroke="#2E353A" stroke-miterlimit="10"/>
<path d="M205.887 294.639L205.304 292.211H201.828L202.3 294.639H205.887Z" fill="white" fill-opacity="0.2" stroke="#2E353A" stroke-miterlimit="10"/>
<path d="M209.482 294.639L208.781 292.211H205.305L205.888 294.639H209.482Z" fill="white" fill-opacity="0.2" stroke="#2E353A" stroke-miterlimit="10"/>
<path d="M169.983 294.639L170.558 292.211H167.082L166.389 294.639H169.983Z" fill="white" fill-opacity="0.2" stroke="#2E353A" stroke-miterlimit="10"/>
<path d="M195.118 294.639L194.882 292.211H191.406L191.524 294.639H195.118Z" fill="white" fill-opacity="0.2" stroke="#2E353A" stroke-miterlimit="10"/>
<path d="M213.067 294.639L212.255 292.211H208.779L209.48 294.639H213.067Z" fill="white" fill-opacity="0.2" stroke="#2E353A" stroke-miterlimit="10"/>
<path d="M202.3 294.639L201.828 292.211H198.359L198.706 294.639H202.3Z" fill="white" fill-opacity="0.2" stroke="#2E353A" stroke-miterlimit="10"/>
<path d="M198.706 294.639L198.359 292.211H194.883L195.119 294.639H198.706Z" fill="white" fill-opacity="0.2" stroke="#2E353A" stroke-miterlimit="10"/>
<path d="M187.938 294.639L187.93 292.211H184.454L184.344 294.639H187.938Z" fill="white" fill-opacity="0.2" stroke="#2E353A" stroke-miterlimit="10"/>
<path d="M162.802 294.639H159.208L158.219 297.23H161.931L162.802 294.639Z" fill="white" fill-opacity="0.2" stroke="#2E353A" stroke-miterlimit="10"/>
<path d="M163.607 292.211H160.139L159.209 294.639H162.803L163.607 292.211Z" fill="white" fill-opacity="0.2" stroke="#2E353A" stroke-miterlimit="10"/>
<path d="M166.389 294.639L167.083 292.211H163.607L162.803 294.639H166.389Z" fill="white" fill-opacity="0.2" stroke="#2E353A" stroke-miterlimit="10"/>
<path d="M157.158 300.012L156.014 303.001H160.006L161.003 300.012H157.158Z" fill="white" fill-opacity="0.2" stroke="#2E353A" stroke-miterlimit="10"/>
<path d="M161.931 297.229H158.219L157.156 300.012H161.001L161.931 297.229Z" fill="white" fill-opacity="0.2" stroke="#2E353A" stroke-miterlimit="10"/>
<path d="M161.002 300.012L160.006 303.001H163.998L164.855 300.012H161.002Z" fill="white" fill-opacity="0.2" stroke="#2E353A" stroke-miterlimit="10"/>
<path d="M177.164 294.639L177.511 292.211H174.035L173.57 294.639H177.164Z" fill="white" fill-opacity="0.2" stroke="#2E353A" stroke-miterlimit="10"/>
<path d="M176.796 297.23L177.165 294.639H173.571L173.076 297.23H176.796Z" fill="white" fill-opacity="0.2" stroke="#2E353A" stroke-miterlimit="10"/>
<path d="M173.075 297.23L173.57 294.639H169.983L169.363 297.23H173.075Z" fill="white" fill-opacity="0.2" stroke="#2E353A" stroke-miterlimit="10"/>
<path d="M180.507 297.23L180.751 294.639H177.164L176.795 297.23H180.507Z" fill="white" fill-opacity="0.2" stroke="#2E353A" stroke-miterlimit="10"/>
<path d="M166.389 294.639H162.802L161.932 297.23H165.651L166.389 294.639Z" fill="white" fill-opacity="0.2" stroke="#2E353A" stroke-miterlimit="10"/>
<path d="M211.031 300.012H214.876L213.946 297.229H210.227L211.031 300.012Z" fill="white" fill-opacity="0.2" stroke="#2E353A" stroke-miterlimit="10"/>
<path d="M169.363 297.23L169.982 294.639H166.388L165.65 297.23H169.363Z" fill="white" fill-opacity="0.2" stroke="#2E353A" stroke-miterlimit="10"/>
<path d="M161.932 297.229L161.002 300.012H164.854L165.651 297.229H161.932Z" fill="white" fill-opacity="0.2" stroke="#2E353A" stroke-miterlimit="10"/>
<path d="M202.794 297.23L202.299 294.639H198.705L199.081 297.23H202.794Z" fill="white" fill-opacity="0.2" stroke="#2E353A" stroke-miterlimit="10"/>
<path d="M199.082 297.23L198.706 294.639H195.119L195.37 297.23H199.082Z" fill="white" fill-opacity="0.2" stroke="#2E353A" stroke-miterlimit="10"/>
<path d="M210.226 297.23L209.481 294.639H205.887L206.514 297.23H210.226Z" fill="white" fill-opacity="0.2" stroke="#2E353A" stroke-miterlimit="10"/>
<path d="M187.938 297.23V294.639H184.344L184.219 297.23H187.938Z" fill="white" fill-opacity="0.2" stroke="#2E353A" stroke-miterlimit="10"/>
<path d="M195.37 297.23L195.119 294.639H191.525L191.651 297.23H195.37Z" fill="white" fill-opacity="0.2" stroke="#2E353A" stroke-miterlimit="10"/>
<path d="M191.652 297.23L191.526 294.639H187.939V297.23H191.652Z" fill="white" fill-opacity="0.2" stroke="#2E353A" stroke-miterlimit="10"/>
<path d="M184.22 297.23L184.345 294.639H180.751L180.508 297.23H184.22Z" fill="white" fill-opacity="0.2" stroke="#2E353A" stroke-miterlimit="10"/>
<path d="M195.371 297.229L195.637 300.012H199.489L199.083 297.229H195.371Z" fill="white" fill-opacity="0.2" stroke="#2E353A" stroke-miterlimit="10"/>
<path d="M199.082 297.229L199.488 300.012H203.333L202.794 297.229H199.082Z" fill="white" fill-opacity="0.2" stroke="#2E353A" stroke-miterlimit="10"/>
<path d="M165.651 297.229L164.854 300.012H168.698L169.363 297.229H165.651Z" fill="white" fill-opacity="0.2" stroke="#2E353A" stroke-miterlimit="10"/>
<path d="M202.795 297.229L203.334 300.012H207.179L206.514 297.229H202.795Z" fill="white" fill-opacity="0.2" stroke="#2E353A" stroke-miterlimit="10"/>
<path d="M187.939 297.229V300.012H191.792L191.652 297.229H187.939Z" fill="white" fill-opacity="0.2" stroke="#2E353A" stroke-miterlimit="10"/>
<path d="M206.514 297.229L207.178 300.012H211.03L210.226 297.229H206.514Z" fill="white" fill-opacity="0.2" stroke="#2E353A" stroke-miterlimit="10"/>
<path d="M191.65 297.229L191.791 300.012H195.636L195.37 297.229H191.65Z" fill="white" fill-opacity="0.2" stroke="#2E353A" stroke-miterlimit="10"/>
<path d="M173.074 297.229L172.543 300.012H176.395L176.794 297.229H173.074Z" fill="white" fill-opacity="0.2" stroke="#2E353A" stroke-miterlimit="10"/>
<path d="M169.363 297.229L168.699 300.012H172.544L173.076 297.229H169.363Z" fill="white" fill-opacity="0.2" stroke="#2E353A" stroke-miterlimit="10"/>
<path d="M184.219 297.229L184.094 300.012H187.939V297.229H184.219Z" fill="white" fill-opacity="0.2" stroke="#2E353A" stroke-miterlimit="10"/>
<path d="M180.508 297.229L180.242 300.012H184.095L184.22 297.229H180.508Z" fill="white" fill-opacity="0.2" stroke="#2E353A" stroke-miterlimit="10"/>
<path d="M176.795 297.229L176.396 300.012H180.241L180.507 297.229H176.795Z" fill="white" fill-opacity="0.2" stroke="#2E353A" stroke-miterlimit="10"/>
<path d="M206.515 297.23L205.887 294.639H202.301L202.795 297.23H206.515Z" fill="white" fill-opacity="0.2" stroke="#2E353A" stroke-miterlimit="10"/>
<path d="M163.607 292.211L164.441 289.724H161.083L160.139 292.211H163.607Z" fill="white" fill-opacity="0.2" stroke="#2E353A" stroke-miterlimit="10"/>
<path d="M160.138 292.211H156.928L155.895 294.639H159.208L160.138 292.211Z" fill="white" fill-opacity="0.2" stroke="#2E353A" stroke-miterlimit="10"/>
<path d="M161.083 289.724H157.99L156.928 292.211H160.138L161.083 289.724Z" fill="white" fill-opacity="0.2" stroke="#2E353A" stroke-miterlimit="10"/>
<path d="M159.208 294.639H155.894L154.787 297.23H158.219L159.208 294.639Z" fill="white" fill-opacity="0.2" stroke="#2E353A" stroke-miterlimit="10"/>
<path d="M158.219 297.229H154.788L153.6 300.012H157.157L158.219 297.229Z" fill="white" fill-opacity="0.2" stroke="#2E353A" stroke-miterlimit="10"/>
<path d="M157.157 300.012H153.599L152.33 303.001H156.013L157.157 300.012Z" fill="white" fill-opacity="0.2" stroke="#2E353A" stroke-miterlimit="10"/>
<path d="M216.662 294.639L217.658 297.23H220.943L219.836 294.639H216.662Z" fill="white" fill-opacity="0.2" stroke="#2E353A" stroke-miterlimit="10"/>
<path d="M218.728 300.012H222.13L220.942 297.229H217.658L218.728 300.012Z" fill="white" fill-opacity="0.2" stroke="#2E353A" stroke-miterlimit="10"/>
<path d="M219.872 303.001H223.4L222.131 300.012H218.729L219.872 303.001Z" fill="white" fill-opacity="0.2" stroke="#2E353A" stroke-miterlimit="10"/>
<path d="M191.408 292.211L191.29 289.724H187.932V292.211H191.408Z" fill="white" fill-opacity="0.2" stroke="#2E353A" stroke-miterlimit="10"/>
<path d="M216.662 294.639H219.836L218.803 292.211H215.732L216.662 294.639Z" fill="white" fill-opacity="0.2" stroke="#2E353A" stroke-miterlimit="10"/>
<path d="M214.875 300.012H218.728L217.657 297.229H213.945L214.875 300.012Z" fill="white" fill-opacity="0.2" stroke="#2E353A" stroke-miterlimit="10"/>
<path d="M167.083 292.211L167.799 289.724H164.441L163.607 292.211H167.083Z" fill="white" fill-opacity="0.2" stroke="#2E353A" stroke-miterlimit="10"/>
<path d="M212.256 292.211L213.068 294.639H216.662L215.732 292.211H212.256Z" fill="white" fill-opacity="0.2" stroke="#2E353A" stroke-miterlimit="10"/>
<path d="M218.801 292.211L217.746 289.724H214.771L215.731 292.211H218.801Z" fill="white" fill-opacity="0.2" stroke="#2E353A" stroke-miterlimit="10"/>
<path d="M215.732 292.211L214.772 289.724H211.422L212.256 292.211H215.732Z" fill="white" fill-opacity="0.2" stroke="#2E353A" stroke-miterlimit="10"/>
<path d="M203.334 300.012L203.91 303.001H207.902L207.179 300.012H203.334Z" fill="white" fill-opacity="0.2" stroke="#2E353A" stroke-miterlimit="10"/>
<path d="M215.879 303.001H219.871L218.727 300.012H214.875L215.879 303.001Z" fill="white" fill-opacity="0.2" stroke="#2E353A" stroke-miterlimit="10"/>
<path d="M212.256 292.211L211.422 289.724H208.064L208.78 292.211H212.256Z" fill="white" fill-opacity="0.2" stroke="#2E353A" stroke-miterlimit="10"/>
<path d="M211.031 300.012L211.887 303.001H215.88L214.876 300.012H211.031Z" fill="white" fill-opacity="0.2" stroke="#2E353A" stroke-miterlimit="10"/>
<path d="M207.178 300.012L207.901 303.001H211.886L211.03 300.012H207.178Z" fill="white" fill-opacity="0.2" stroke="#2E353A" stroke-miterlimit="10"/>
<path d="M213.947 297.23H217.659L216.662 294.639H213.068L213.947 297.23Z" fill="white" fill-opacity="0.2" stroke="#2E353A" stroke-miterlimit="10"/>
<path d="M180.986 292.211L181.222 289.724H177.864L177.51 292.211H180.986Z" fill="white" fill-opacity="0.2" stroke="#2E353A" stroke-miterlimit="10"/>
<path d="M208.779 292.211L208.063 289.724H204.705L205.303 292.211H208.779Z" fill="white" fill-opacity="0.2" stroke="#2E353A" stroke-miterlimit="10"/>
<path d="M177.511 292.211L177.865 289.724H174.507L174.035 292.211H177.511Z" fill="white" fill-opacity="0.2" stroke="#2E353A" stroke-miterlimit="10"/>
<path d="M187.931 292.211V289.724H184.573L184.455 292.211H187.931Z" fill="white" fill-opacity="0.2" stroke="#2E353A" stroke-miterlimit="10"/>
<path d="M174.035 292.211L174.507 289.724H171.149L170.559 292.211H174.035Z" fill="white" fill-opacity="0.2" stroke="#2E353A" stroke-miterlimit="10"/>
<path d="M170.558 292.211L171.148 289.724H167.798L167.082 292.211H170.558Z" fill="white" fill-opacity="0.2" stroke="#2E353A" stroke-miterlimit="10"/>
<path d="M184.455 292.211L184.573 289.724H181.222L180.986 292.211H184.455Z" fill="white" fill-opacity="0.2" stroke="#2E353A" stroke-miterlimit="10"/>
<path d="M205.304 292.211L204.706 289.724H201.355L201.828 292.211H205.304Z" fill="white" fill-opacity="0.2" stroke="#2E353A" stroke-miterlimit="10"/>
<path d="M201.828 292.211L201.356 289.724H197.998L198.36 292.211H201.828Z" fill="white" fill-opacity="0.2" stroke="#2E353A" stroke-miterlimit="10"/>
<path d="M194.883 292.211L194.64 289.724H191.289L191.407 292.211H194.883Z" fill="white" fill-opacity="0.2" stroke="#2E353A" stroke-miterlimit="10"/>
<path d="M203.333 300.012H199.488H195.636H191.791H187.939H184.094H180.241H176.396H172.544H168.699H164.854L163.998 303.001H167.991H171.976H175.968H179.961H183.954H187.939H191.931H195.924H199.917H203.909L203.333 300.012Z" fill="white" fill-opacity="0.2" stroke="#2E353A" stroke-miterlimit="10"/>
<path d="M198.36 292.211L197.999 289.724H194.641L194.884 292.211H198.36Z" fill="white" fill-opacity="0.2" stroke="#2E353A" stroke-miterlimit="10"/>
<path d="M229.873 308.248H144.346V309.458H229.873V308.248Z" fill="#2E353A" stroke="#2E353A" stroke-miterlimit="10"/>
<path d="M244.166 243.274H294.35V288.329H244.166C243.849 288.329 243.545 288.203 243.321 287.979C243.097 287.755 242.971 287.451 242.971 287.134V244.477C242.97 244.32 243 244.163 243.06 244.017C243.119 243.872 243.207 243.739 243.318 243.627C243.429 243.515 243.562 243.427 243.707 243.366C243.853 243.305 244.009 243.274 244.166 243.274Z" fill="white" fill-opacity="0.2" stroke="#2E353A" stroke-linecap="round" stroke-linejoin="round"/>
<path d="M296.078 243.274H244.322V288.329H296.078V243.274Z" fill="#2E353A" stroke="#2E353A" stroke-miterlimit="10"/>
<g filter="url(#filter14_di_1804_7780)">
<path d="M287.239 246.839H254.319C250.998 246.839 248.307 249.531 248.307 252.851V278.753C248.307 282.073 250.998 284.765 254.319 284.765H287.239C290.559 284.765 293.251 282.073 293.251 278.753V252.851C293.251 249.53 290.559 246.839 287.239 246.839Z" fill="#D9D9D9" fill-opacity="0.1" shape-rendering="crispEdges"/>
</g>
<path d="M263.658 262.16L270.359 251.938L277.06 262.16H274.256V278.167H266.463V262.16H263.658Z" fill="#1A8EF7" fill-opacity="0.19"/>
<path d="M244.322 288.329L283.554 299.672H336.447L296.078 288.329H244.322Z" fill="white" fill-opacity="0.2" stroke="#2E353A" stroke-linecap="round" stroke-linejoin="round"/>
<path d="M286.217 292.816L281.31 291.421L279.162 291.399L284.055 292.801L286.217 292.816Z" fill="white" fill-opacity="0.2" stroke="#2E353A" stroke-width="0.25" stroke-miterlimit="10"/>
<path d="M290.492 292.853L285.569 291.466L283.451 291.444L288.359 292.838L290.492 292.853Z" fill="white" fill-opacity="0.2" stroke="#2E353A" stroke-width="0.25" stroke-miterlimit="10"/>
<path d="M306.004 294.322L308.056 294.337L302.956 292.942L300.912 292.927L306.004 294.322Z" fill="white" fill-opacity="0.2" stroke="#2E353A" stroke-width="0.25" stroke-miterlimit="10"/>
<path d="M284.055 292.802L279.162 291.399L277 291.377L281.878 292.787L284.055 292.802Z" fill="white" fill-opacity="0.2" stroke="#2E353A" stroke-width="0.25" stroke-miterlimit="10"/>
<path d="M279.695 292.772L274.817 291.362L272.625 291.34L277.488 292.757L279.695 292.772Z" fill="white" fill-opacity="0.2" stroke="#2E353A" stroke-width="0.25" stroke-miterlimit="10"/>
<path d="M298.86 292.912L293.901 291.54L291.842 291.525L296.786 292.897L298.86 292.912Z" fill="white" fill-opacity="0.2" stroke="#2E353A" stroke-width="0.25" stroke-miterlimit="10"/>
<path d="M300.911 292.927L295.945 291.562L293.9 291.54L298.86 292.912L300.911 292.927Z" fill="white" fill-opacity="0.2" stroke="#2E353A" stroke-width="0.25" stroke-miterlimit="10"/>
<path d="M277.488 292.757L272.624 291.34L270.41 291.318L275.259 292.742L277.488 292.757Z" fill="white" fill-opacity="0.2" stroke="#2E353A" stroke-width="0.25" stroke-miterlimit="10"/>
<path d="M292.601 292.868L287.672 291.48L285.568 291.466L290.491 292.853L292.601 292.868Z" fill="white" fill-opacity="0.2" stroke="#2E353A" stroke-width="0.25" stroke-miterlimit="10"/>
<path d="M302.956 292.942L297.982 291.584L295.945 291.562L300.912 292.927L302.956 292.942Z" fill="white" fill-opacity="0.2" stroke="#2E353A" stroke-width="0.25" stroke-miterlimit="10"/>
<path d="M296.786 292.897L291.841 291.525L289.76 291.503L294.704 292.883L296.786 292.897Z" fill="white" fill-opacity="0.2" stroke="#2E353A" stroke-width="0.25" stroke-miterlimit="10"/>
<path d="M294.705 292.883L289.76 291.503L287.672 291.48L292.602 292.868L294.705 292.883Z" fill="white" fill-opacity="0.2" stroke="#2E353A" stroke-width="0.25" stroke-miterlimit="10"/>
<path d="M288.358 292.838L283.451 291.444L281.311 291.421L286.218 292.816L288.358 292.838Z" fill="white" fill-opacity="0.2" stroke="#2E353A" stroke-width="0.25" stroke-miterlimit="10"/>
<path d="M273.022 292.72L270.764 292.706L275.723 294.174L277.989 294.189L273.022 292.72Z" fill="white" fill-opacity="0.2" stroke="#2E353A" stroke-width="0.25" stroke-miterlimit="10"/>
<path d="M268.181 291.296L265.938 291.274L270.764 292.706L273.022 292.72L268.181 291.296Z" fill="white" fill-opacity="0.2" stroke="#2E353A" stroke-width="0.25" stroke-miterlimit="10"/>
<path d="M275.259 292.742L270.41 291.318L268.182 291.296L273.023 292.72L275.259 292.742Z" fill="white" fill-opacity="0.2" stroke="#2E353A" stroke-width="0.25" stroke-miterlimit="10"/>
<path d="M280.809 295.68L286.041 297.229H288.329L283.089 295.687L280.809 295.68Z" fill="white" fill-opacity="0.2" stroke="#2E353A" stroke-width="0.25" stroke-miterlimit="10"/>
<path d="M277.99 294.189L275.725 294.174L280.809 295.68L283.09 295.687L277.99 294.189Z" fill="white" fill-opacity="0.2" stroke="#2E353A" stroke-width="0.25" stroke-miterlimit="10"/>
<path d="M283.09 295.687L288.33 297.229H290.603L285.348 295.694L283.09 295.687Z" fill="white" fill-opacity="0.2" stroke="#2E353A" stroke-width="0.25" stroke-miterlimit="10"/>
<path d="M281.879 292.787L277.001 291.377L274.816 291.362L279.695 292.772L281.879 292.787Z" fill="white" fill-opacity="0.2" stroke="#2E353A" stroke-width="0.25" stroke-miterlimit="10"/>
<path d="M286.889 294.233L281.878 292.787L279.693 292.772L284.69 294.218L286.889 294.233Z" fill="white" fill-opacity="0.2" stroke="#2E353A" stroke-width="0.25" stroke-miterlimit="10"/>
<path d="M284.691 294.218L279.695 292.772L277.488 292.757L282.477 294.211L284.691 294.218Z" fill="white" fill-opacity="0.2" stroke="#2E353A" stroke-width="0.25" stroke-miterlimit="10"/>
<path d="M289.074 294.241L284.056 292.801L281.879 292.787L286.89 294.233L289.074 294.241Z" fill="white" fill-opacity="0.2" stroke="#2E353A" stroke-width="0.25" stroke-miterlimit="10"/>
<path d="M275.26 292.742L273.023 292.72L277.99 294.189L280.241 294.196L275.26 292.742Z" fill="white" fill-opacity="0.2" stroke="#2E353A" stroke-width="0.25" stroke-miterlimit="10"/>
<path d="M311.229 295.761L313.281 295.768L308.056 294.337L306.004 294.322L311.229 295.761Z" fill="white" fill-opacity="0.2" stroke="#2E353A" stroke-width="0.25" stroke-miterlimit="10"/>
<path d="M282.475 294.211L277.487 292.757L275.258 292.742L280.239 294.196L282.475 294.211Z" fill="white" fill-opacity="0.2" stroke="#2E353A" stroke-width="0.25" stroke-miterlimit="10"/>
<path d="M277.99 294.189L283.09 295.687L285.348 295.694L280.241 294.196L277.99 294.189Z" fill="white" fill-opacity="0.2" stroke="#2E353A" stroke-width="0.25" stroke-miterlimit="10"/>
<path d="M301.864 294.307L296.786 292.897L294.705 292.883L299.768 294.292L301.864 294.307Z" fill="white" fill-opacity="0.2" stroke="#2E353A" stroke-width="0.25" stroke-miterlimit="10"/>
<path d="M299.768 294.292L294.705 292.883L292.602 292.868L297.664 294.285L299.768 294.292Z" fill="white" fill-opacity="0.2" stroke="#2E353A" stroke-width="0.25" stroke-miterlimit="10"/>
<path d="M306.003 294.322L300.911 292.927L298.859 292.912L303.944 294.314L306.003 294.322Z" fill="white" fill-opacity="0.2" stroke="#2E353A" stroke-width="0.25" stroke-miterlimit="10"/>
<path d="M293.399 294.263L288.359 292.838L286.219 292.816L291.245 294.248L293.399 294.263Z" fill="white" fill-opacity="0.2" stroke="#2E353A" stroke-width="0.25" stroke-miterlimit="10"/>
<path d="M297.664 294.285L292.601 292.868L290.49 292.853L295.538 294.27L297.664 294.285Z" fill="white" fill-opacity="0.2" stroke="#2E353A" stroke-width="0.25" stroke-miterlimit="10"/>
<path d="M295.538 294.27L290.49 292.853L288.357 292.838L293.398 294.263L295.538 294.27Z" fill="white" fill-opacity="0.2" stroke="#2E353A" stroke-width="0.25" stroke-miterlimit="10"/>
<path d="M291.245 294.248L286.219 292.816L284.057 292.802L289.075 294.241L291.245 294.248Z" fill="white" fill-opacity="0.2" stroke="#2E353A" stroke-width="0.25" stroke-miterlimit="10"/>
<path d="M297.664 294.285L302.852 295.739L304.97 295.746L299.767 294.292L297.664 294.285Z" fill="white" fill-opacity="0.2" stroke="#2E353A" stroke-width="0.25" stroke-miterlimit="10"/>
<path d="M299.768 294.292L304.97 295.746L307.066 295.753L301.863 294.307L299.768 294.292Z" fill="white" fill-opacity="0.2" stroke="#2E353A" stroke-width="0.25" stroke-miterlimit="10"/>
<path d="M280.24 294.196L285.347 295.694L287.598 295.702L282.476 294.211L280.24 294.196Z" fill="white" fill-opacity="0.2" stroke="#2E353A" stroke-width="0.25" stroke-miterlimit="10"/>
<path d="M301.863 294.307L307.066 295.753H309.155L303.944 294.314L301.863 294.307Z" fill="white" fill-opacity="0.2" stroke="#2E353A" stroke-width="0.25" stroke-miterlimit="10"/>
<path d="M293.398 294.263L298.572 295.724L300.719 295.731L295.539 294.27L293.398 294.263Z" fill="white" fill-opacity="0.2" stroke="#2E353A" stroke-width="0.25" stroke-miterlimit="10"/>
<path d="M303.945 294.314L309.156 295.753L311.229 295.761L306.004 294.322L303.945 294.314Z" fill="white" fill-opacity="0.2" stroke="#2E353A" stroke-width="0.25" stroke-miterlimit="10"/>
<path d="M295.539 294.27L300.72 295.731L302.853 295.739L297.665 294.285L295.539 294.27Z" fill="white" fill-opacity="0.2" stroke="#2E353A" stroke-width="0.25" stroke-miterlimit="10"/>
<path d="M284.691 294.219L289.82 295.709H292.034L286.891 294.233L284.691 294.219Z" fill="white" fill-opacity="0.2" stroke="#2E353A" stroke-width="0.25" stroke-miterlimit="10"/>
<path d="M282.477 294.211L287.598 295.702L289.82 295.709L284.691 294.218L282.477 294.211Z" fill="white" fill-opacity="0.2" stroke="#2E353A" stroke-width="0.25" stroke-miterlimit="10"/>
<path d="M291.244 294.248L296.41 295.724H298.572L293.399 294.263L291.244 294.248Z" fill="white" fill-opacity="0.2" stroke="#2E353A" stroke-width="0.25" stroke-miterlimit="10"/>
<path d="M289.074 294.241L294.233 295.717L296.41 295.724L291.244 294.248L289.074 294.241Z" fill="white" fill-opacity="0.2" stroke="#2E353A" stroke-width="0.25" stroke-miterlimit="10"/>
<path d="M286.891 294.233L292.034 295.709L294.234 295.717L289.075 294.241L286.891 294.233Z" fill="white" fill-opacity="0.2" stroke="#2E353A" stroke-width="0.25" stroke-miterlimit="10"/>
<path d="M303.946 294.314L298.861 292.912L296.787 292.897L301.865 294.307L303.946 294.314Z" fill="white" fill-opacity="0.2" stroke="#2E353A" stroke-width="0.25" stroke-miterlimit="10"/>
<path d="M268.182 291.296L263.024 289.776L260.795 289.754L265.939 291.274L268.182 291.296Z" fill="white" fill-opacity="0.2" stroke="#2E353A" stroke-width="0.25" stroke-miterlimit="10"/>
<path d="M265.938 291.274L263.85 291.252L268.669 292.691L270.765 292.706L265.938 291.274Z" fill="white" fill-opacity="0.2" stroke="#2E353A" stroke-width="0.25" stroke-miterlimit="10"/>
<path d="M260.794 289.754L258.721 289.724L263.85 291.252L265.938 291.274L260.794 289.754Z" fill="white" fill-opacity="0.2" stroke="#2E353A" stroke-width="0.25" stroke-miterlimit="10"/>
<path d="M270.764 292.706L268.668 292.691L273.613 294.167L275.723 294.174L270.764 292.706Z" fill="white" fill-opacity="0.2" stroke="#2E353A" stroke-width="0.25" stroke-miterlimit="10"/>
<path d="M275.724 294.174L273.613 294.167L278.691 295.68H280.809L275.724 294.174Z" fill="white" fill-opacity="0.2" stroke="#2E353A" stroke-width="0.25" stroke-miterlimit="10"/>
<path d="M280.809 295.68H278.691L283.909 297.229H286.042L280.809 295.68Z" fill="white" fill-opacity="0.2" stroke="#2E353A" stroke-width="0.25" stroke-miterlimit="10"/>
<path d="M304.986 292.956L310.093 294.344L311.879 294.359L306.765 292.971L304.986 292.956Z" fill="white" fill-opacity="0.2" stroke="#2E353A" stroke-width="0.25" stroke-miterlimit="10"/>
<path d="M315.324 295.768L317.118 295.776L311.878 294.359L310.092 294.344L315.324 295.768Z" fill="white" fill-opacity="0.2" stroke="#2E353A" stroke-width="0.25" stroke-miterlimit="10"/>
<path d="M320.697 297.229H322.49L317.118 295.776L315.324 295.768L320.697 297.229Z" fill="white" fill-opacity="0.2" stroke="#2E353A" stroke-width="0.25" stroke-miterlimit="10"/>
<path d="M285.568 291.466L280.314 289.982L278.203 289.96L283.45 291.444L285.568 291.466Z" fill="white" fill-opacity="0.2" stroke="#2E353A" stroke-width="0.25" stroke-miterlimit="10"/>
<path d="M304.985 292.956L306.764 292.971L301.775 291.621L299.996 291.599L304.985 292.956Z" fill="white" fill-opacity="0.2" stroke="#2E353A" stroke-width="0.25" stroke-miterlimit="10"/>
<path d="M313.28 295.768H315.324L310.092 294.344L308.055 294.337L313.28 295.768Z" fill="white" fill-opacity="0.2" stroke="#2E353A" stroke-width="0.25" stroke-miterlimit="10"/>
<path d="M270.411 291.318L265.237 289.805L263.023 289.776L268.182 291.296L270.411 291.318Z" fill="white" fill-opacity="0.2" stroke="#2E353A" stroke-width="0.25" stroke-miterlimit="10"/>
<path d="M297.982 291.584L302.957 292.942L304.986 292.956L299.997 291.598L297.982 291.584Z" fill="white" fill-opacity="0.2" stroke="#2E353A" stroke-width="0.25" stroke-miterlimit="10"/>
<path d="M301.776 291.621L296.447 290.174L294.684 290.152L299.997 291.599L301.776 291.621Z" fill="white" fill-opacity="0.2" stroke="#2E353A" stroke-width="0.25" stroke-miterlimit="10"/>
<path d="M299.996 291.598L294.683 290.152L292.668 290.13L297.982 291.584L299.996 291.598Z" fill="white" fill-opacity="0.2" stroke="#2E353A" stroke-width="0.25" stroke-miterlimit="10"/>
<path d="M307.066 295.754L312.41 297.23H314.505L309.155 295.754H307.066Z" fill="white" fill-opacity="0.2" stroke="#2E353A" stroke-width="0.25" stroke-miterlimit="10"/>
<path d="M318.647 297.229H320.698L315.326 295.768H313.281L318.647 297.229Z" fill="white" fill-opacity="0.2" stroke="#2E353A" stroke-width="0.25" stroke-miterlimit="10"/>
<path d="M297.982 291.584L292.669 290.13L290.646 290.108L295.945 291.562L297.982 291.584Z" fill="white" fill-opacity="0.2" stroke="#2E353A" stroke-width="0.25" stroke-miterlimit="10"/>
<path d="M311.229 295.761L316.579 297.229H318.645L313.28 295.768L311.229 295.761Z" fill="white" fill-opacity="0.2" stroke="#2E353A" stroke-width="0.25" stroke-miterlimit="10"/>
<path d="M309.154 295.754L314.505 297.23H316.579L311.228 295.761L309.154 295.754Z" fill="white" fill-opacity="0.2" stroke="#2E353A" stroke-width="0.25" stroke-miterlimit="10"/>
<path d="M308.055 294.336L310.092 294.344L304.985 292.956L302.955 292.942L308.055 294.336Z" fill="white" fill-opacity="0.2" stroke="#2E353A" stroke-width="0.25" stroke-miterlimit="10"/>
<path d="M279.164 291.399L273.946 289.909L271.791 289.879L277.001 291.377L279.164 291.399Z" fill="white" fill-opacity="0.2" stroke="#2E353A" stroke-width="0.25" stroke-miterlimit="10"/>
<path d="M295.945 291.562L290.646 290.108L288.609 290.078L293.901 291.539L295.945 291.562Z" fill="white" fill-opacity="0.2" stroke="#2E353A" stroke-width="0.25" stroke-miterlimit="10"/>
<path d="M277.001 291.377L271.791 289.879L269.621 289.857L274.817 291.362L277.001 291.377Z" fill="white" fill-opacity="0.2" stroke="#2E353A" stroke-width="0.25" stroke-miterlimit="10"/>
<path d="M283.451 291.444L278.204 289.96L276.086 289.931L281.311 291.421L283.451 291.444Z" fill="white" fill-opacity="0.2" stroke="#2E353A" stroke-width="0.25" stroke-miterlimit="10"/>
<path d="M274.816 291.362L269.62 289.857L267.436 289.827L272.624 291.34L274.816 291.362Z" fill="white" fill-opacity="0.2" stroke="#2E353A" stroke-width="0.25" stroke-miterlimit="10"/>
<path d="M272.624 291.34L267.436 289.827L265.236 289.805L270.41 291.318L272.624 291.34Z" fill="white" fill-opacity="0.2" stroke="#2E353A" stroke-width="0.25" stroke-miterlimit="10"/>
<path d="M281.311 291.421L276.086 289.931L273.945 289.909L279.163 291.399L281.311 291.421Z" fill="white" fill-opacity="0.2" stroke="#2E353A" stroke-width="0.25" stroke-miterlimit="10"/>
<path d="M293.9 291.54L288.608 290.078L286.557 290.056L291.841 291.525L293.9 291.54Z" fill="white" fill-opacity="0.2" stroke="#2E353A" stroke-width="0.25" stroke-miterlimit="10"/>
<path d="M291.841 291.525L286.557 290.056L284.49 290.034L289.76 291.503L291.841 291.525Z" fill="white" fill-opacity="0.2" stroke="#2E353A" stroke-width="0.25" stroke-miterlimit="10"/>
<path d="M287.672 291.48L282.41 290.004L280.314 289.982L285.569 291.466L287.672 291.48Z" fill="white" fill-opacity="0.2" stroke="#2E353A" stroke-width="0.25" stroke-miterlimit="10"/>
<path d="M307.067 295.753L304.971 295.746L302.853 295.739L300.72 295.731L298.573 295.724H296.41L294.233 295.717L292.034 295.709H289.82L287.599 295.702L285.348 295.694L290.602 297.229H292.853H295.097H297.318H299.517H301.709H303.879H306.034H308.174H310.299H312.41L307.067 295.753Z" fill="white" fill-opacity="0.2" stroke="#2E353A" stroke-width="0.25" stroke-miterlimit="10"/>
<path d="M289.761 291.503L284.491 290.034L282.41 290.005L287.672 291.481L289.761 291.503Z" fill="white" fill-opacity="0.2" stroke="#2E353A" stroke-width="0.25" stroke-miterlimit="10"/>
<path d="M244.322 288.329V289.835L283.54 301.606L283.554 299.672L244.322 288.329Z" fill="white" fill-opacity="0.2" stroke="#2E353A" stroke-linecap="round" stroke-linejoin="round"/>
<path d="M336.447 299.672H283.555V301.598H336.447V299.672Z" fill="#2E353A" stroke="#2E353A" stroke-linecap="round" stroke-linejoin="round"/>
<path d="M128.064 288.329H77.8802V243.274H128.064C128.381 243.274 128.685 243.4 128.91 243.625C129.134 243.849 129.26 244.153 129.26 244.47V287.126C129.261 287.284 129.231 287.44 129.171 287.586C129.111 287.732 129.023 287.865 128.912 287.976C128.801 288.088 128.669 288.177 128.523 288.238C128.378 288.298 128.222 288.329 128.064 288.329Z" fill="white" fill-opacity="0.2" stroke="#2E353A" stroke-linecap="round" stroke-linejoin="round"/>
<path d="M76.1542 288.329H127.91V243.274H76.1542V288.329Z" fill="#2E353A" stroke="#2E353A" stroke-miterlimit="10"/>
<g filter="url(#filter15_di_1804_7780)">
<path d="M84.9916 284.765H117.912C121.232 284.765 123.924 282.073 123.924 278.753V252.851C123.924 249.53 121.232 246.839 117.912 246.839H84.9916C81.6713 246.839 78.9796 249.53 78.9796 252.851V278.753C78.9796 282.073 81.6713 284.765 84.9916 284.765Z" fill="#D9D9D9" fill-opacity="0.1" shape-rendering="crispEdges"/>
</g>
<path d="M105.761 262.16L99.0604 251.938L92.3594 262.16H95.1638V278.167H102.957V262.16H105.761Z" fill="#1A8EF7" fill-opacity="0.19"/>
<path d="M127.91 288.329L88.6776 299.672H35.7852L76.1538 288.329H127.91Z" fill="white" fill-opacity="0.2" stroke="#2E353A" stroke-linecap="round" stroke-linejoin="round"/>
<path d="M86.0137 292.816L90.9214 291.421L93.069 291.399L88.176 292.801L86.0137 292.816Z" fill="white" fill-opacity="0.2" stroke="#2E353A" stroke-width="0.25" stroke-miterlimit="10"/>
<path d="M81.7402 292.853L86.6627 291.466L88.7808 291.444L83.8731 292.838L81.7402 292.853Z" fill="white" fill-opacity="0.2" stroke="#2E353A" stroke-width="0.25" stroke-miterlimit="10"/>
<path d="M66.2274 294.322L64.1758 294.337L69.2754 292.942L71.3196 292.927L66.2274 294.322Z" fill="white" fill-opacity="0.2" stroke="#2E353A" stroke-width="0.25" stroke-miterlimit="10"/>
<path d="M88.1758 292.802L93.0687 291.399L95.2311 291.377L90.3529 292.787L88.1758 292.802Z" fill="white" fill-opacity="0.2" stroke="#2E353A" stroke-width="0.25" stroke-miterlimit="10"/>
<path d="M92.5371 292.772L97.4153 291.362L99.6072 291.34L94.7437 292.757L92.5371 292.772Z" fill="white" fill-opacity="0.2" stroke="#2E353A" stroke-width="0.25" stroke-miterlimit="10"/>
<path d="M73.3711 292.912L78.3305 291.54L80.3895 291.525L75.4449 292.897L73.3711 292.912Z" fill="white" fill-opacity="0.2" stroke="#2E353A" stroke-width="0.25" stroke-miterlimit="10"/>
<path d="M71.3203 292.927L76.2871 291.562L78.3313 291.54L73.372 292.912L71.3203 292.927Z" fill="white" fill-opacity="0.2" stroke="#2E353A" stroke-width="0.25" stroke-miterlimit="10"/>
<path d="M94.7441 292.757L99.6076 291.34L101.822 291.318L96.9729 292.742L94.7441 292.757Z" fill="white" fill-opacity="0.2" stroke="#2E353A" stroke-width="0.25" stroke-miterlimit="10"/>
<path d="M79.6289 292.868L84.5587 291.48L86.662 291.466L81.7396 292.853L79.6289 292.868Z" fill="white" fill-opacity="0.2" stroke="#2E353A" stroke-width="0.25" stroke-miterlimit="10"/>
<path d="M69.2754 292.942L74.2495 291.584L76.2864 291.562L71.3196 292.927L69.2754 292.942Z" fill="white" fill-opacity="0.2" stroke="#2E353A" stroke-width="0.25" stroke-miterlimit="10"/>
<path d="M75.4453 292.897L80.3899 291.525L82.4711 291.503L77.5265 292.883L75.4453 292.897Z" fill="white" fill-opacity="0.2" stroke="#2E353A" stroke-width="0.25" stroke-miterlimit="10"/>
<path d="M77.5273 292.883L82.4719 291.503L84.5605 291.48L79.6306 292.868L77.5273 292.883Z" fill="white" fill-opacity="0.2" stroke="#2E353A" stroke-width="0.25" stroke-miterlimit="10"/>
<path d="M83.873 292.838L88.7807 291.444L90.9209 291.421L86.0132 292.816L83.873 292.838Z" fill="white" fill-opacity="0.2" stroke="#2E353A" stroke-width="0.25" stroke-miterlimit="10"/>
<path d="M99.2089 292.72L101.467 292.706L96.5079 294.174L94.2422 294.189L99.2089 292.72Z" fill="white" fill-opacity="0.2" stroke="#2E353A" stroke-width="0.25" stroke-miterlimit="10"/>
<path d="M104.05 291.296L106.294 291.274L101.467 292.706L99.209 292.72L104.05 291.296Z" fill="white" fill-opacity="0.2" stroke="#2E353A" stroke-width="0.25" stroke-miterlimit="10"/>
<path d="M96.9727 292.742L101.821 291.318L104.05 291.296L99.2088 292.72L96.9727 292.742Z" fill="white" fill-opacity="0.2" stroke="#2E353A" stroke-width="0.25" stroke-miterlimit="10"/>
<path d="M91.4226 295.68L86.1901 297.229H83.9023L89.1421 295.687L91.4226 295.68Z" fill="white" fill-opacity="0.2" stroke="#2E353A" stroke-width="0.25" stroke-miterlimit="10"/>
<path d="M94.2422 294.189L96.5078 294.174L91.423 295.68L89.1426 295.687L94.2422 294.189Z" fill="white" fill-opacity="0.2" stroke="#2E353A" stroke-width="0.25" stroke-miterlimit="10"/>
<path d="M89.1417 295.687L83.9019 297.229H81.6289L86.8761 295.694L89.1417 295.687Z" fill="white" fill-opacity="0.2" stroke="#2E353A" stroke-width="0.25" stroke-miterlimit="10"/>
<path d="M90.3535 292.787L95.2317 291.377L97.4162 291.362L92.538 292.772L90.3535 292.787Z" fill="white" fill-opacity="0.2" stroke="#2E353A" stroke-width="0.25" stroke-miterlimit="10"/>
<path d="M85.3418 294.233L90.3528 292.787L92.5373 292.772L87.541 294.218L85.3418 294.233Z" fill="white" fill-opacity="0.2" stroke="#2E353A" stroke-width="0.25" stroke-miterlimit="10"/>
<path d="M87.541 294.218L92.5373 292.772L94.7439 292.757L89.755 294.211L87.541 294.218Z" fill="white" fill-opacity="0.2" stroke="#2E353A" stroke-width="0.25" stroke-miterlimit="10"/>
<path d="M83.1582 294.241L88.1766 292.801L90.3537 292.787L85.3427 294.233L83.1582 294.241Z" fill="white" fill-opacity="0.2" stroke="#2E353A" stroke-width="0.25" stroke-miterlimit="10"/>
<path d="M96.9737 292.742L99.2098 292.72L94.2431 294.189L91.9922 294.196L96.9737 292.742Z" fill="white" fill-opacity="0.2" stroke="#2E353A" stroke-width="0.25" stroke-miterlimit="10"/>
<path d="M61.0028 295.761L58.9512 295.768L64.1762 294.337L66.2279 294.322L61.0028 295.761Z" fill="white" fill-opacity="0.2" stroke="#2E353A" stroke-width="0.25" stroke-miterlimit="10"/>
<path d="M89.7559 294.211L94.7447 292.757L96.9735 292.742L91.992 294.196L89.7559 294.211Z" fill="white" fill-opacity="0.2" stroke="#2E353A" stroke-width="0.25" stroke-miterlimit="10"/>
<path d="M94.2422 294.189L89.1426 295.687L86.877 295.694L91.9913 294.196L94.2422 294.189Z" fill="white" fill-opacity="0.2" stroke="#2E353A" stroke-width="0.25" stroke-miterlimit="10"/>
<path d="M70.3672 294.307L75.4446 292.897L77.5258 292.883L72.4631 294.292L70.3672 294.307Z" fill="white" fill-opacity="0.2" stroke="#2E353A" stroke-width="0.25" stroke-miterlimit="10"/>
<path d="M72.4629 294.292L77.5256 292.883L79.6289 292.868L74.5662 294.285L72.4629 294.292Z" fill="white" fill-opacity="0.2" stroke="#2E353A" stroke-width="0.25" stroke-miterlimit="10"/>
<path d="M66.2285 294.322L71.3207 292.927L73.3724 292.912L68.2875 294.314L66.2285 294.322Z" fill="white" fill-opacity="0.2" stroke="#2E353A" stroke-width="0.25" stroke-miterlimit="10"/>
<path d="M78.832 294.263L83.8726 292.838L86.0128 292.816L80.987 294.248L78.832 294.263Z" fill="white" fill-opacity="0.2" stroke="#2E353A" stroke-width="0.25" stroke-miterlimit="10"/>
<path d="M74.5664 294.285L79.6291 292.868L81.7398 292.853L76.6918 294.27L74.5664 294.285Z" fill="white" fill-opacity="0.2" stroke="#2E353A" stroke-width="0.25" stroke-miterlimit="10"/>
<path d="M76.6934 294.27L81.7413 292.853L83.8741 292.838L78.8336 294.263L76.6934 294.27Z" fill="white" fill-opacity="0.2" stroke="#2E353A" stroke-width="0.25" stroke-miterlimit="10"/>
<path d="M80.9883 294.248L86.0141 292.816L88.1764 292.802L83.158 294.241L80.9883 294.248Z" fill="white" fill-opacity="0.2" stroke="#2E353A" stroke-width="0.25" stroke-miterlimit="10"/>
<path d="M74.5679 294.285L69.3798 295.739L67.2617 295.746L72.4646 294.292L74.5679 294.285Z" fill="white" fill-opacity="0.2" stroke="#2E353A" stroke-width="0.25" stroke-miterlimit="10"/>
<path d="M72.4629 294.292L67.26 295.746L65.1641 295.753L70.367 294.307L72.4629 294.292Z" fill="white" fill-opacity="0.2" stroke="#2E353A" stroke-width="0.25" stroke-miterlimit="10"/>
<path d="M91.9907 294.196L86.8763 295.694L84.6328 295.702L89.7545 294.211L91.9907 294.196Z" fill="white" fill-opacity="0.2" stroke="#2E353A" stroke-width="0.25" stroke-miterlimit="10"/>
<path d="M70.3676 294.307L65.1647 295.753H63.0762L68.2865 294.314L70.3676 294.307Z" fill="white" fill-opacity="0.2" stroke="#2E353A" stroke-width="0.25" stroke-miterlimit="10"/>
<path d="M78.8327 294.263L73.6593 295.724L71.5117 295.731L76.6925 294.27L78.8327 294.263Z" fill="white" fill-opacity="0.2" stroke="#2E353A" stroke-width="0.25" stroke-miterlimit="10"/>
<path d="M68.286 294.314L63.0757 295.753L61.002 295.761L66.227 294.322L68.286 294.314Z" fill="white" fill-opacity="0.2" stroke="#2E353A" stroke-width="0.25" stroke-miterlimit="10"/>
<path d="M76.6925 294.27L71.5117 295.731L69.3789 295.739L74.567 294.285L76.6925 294.27Z" fill="white" fill-opacity="0.2" stroke="#2E353A" stroke-width="0.25" stroke-miterlimit="10"/>
<path d="M87.5404 294.219L82.4113 295.709H80.1973L85.3411 294.233L87.5404 294.219Z" fill="white" fill-opacity="0.2" stroke="#2E353A" stroke-width="0.25" stroke-miterlimit="10"/>
<path d="M89.7552 294.211L84.6335 295.702L82.4121 295.709L87.5412 294.218L89.7552 294.211Z" fill="white" fill-opacity="0.2" stroke="#2E353A" stroke-width="0.25" stroke-miterlimit="10"/>
<path d="M80.9885 294.248L75.8225 295.724H73.6602L78.8335 294.263L80.9885 294.248Z" fill="white" fill-opacity="0.2" stroke="#2E353A" stroke-width="0.25" stroke-miterlimit="10"/>
<path d="M83.158 294.241L77.9994 295.717L75.8223 295.724L80.9883 294.248L83.158 294.241Z" fill="white" fill-opacity="0.2" stroke="#2E353A" stroke-width="0.25" stroke-miterlimit="10"/>
<path d="M85.3411 294.233L80.1973 295.709L77.998 295.717L83.1567 294.241L85.3411 294.233Z" fill="white" fill-opacity="0.2" stroke="#2E353A" stroke-width="0.25" stroke-miterlimit="10"/>
<path d="M68.2871 294.314L73.3719 292.912L75.4457 292.897L70.3683 294.307L68.2871 294.314Z" fill="white" fill-opacity="0.2" stroke="#2E353A" stroke-width="0.25" stroke-miterlimit="10"/>
<path d="M104.051 291.296L109.209 289.776L111.438 289.754L106.294 291.274L104.051 291.296Z" fill="white" fill-opacity="0.2" stroke="#2E353A" stroke-width="0.25" stroke-miterlimit="10"/>
<path d="M106.293 291.274L108.382 291.252L103.563 292.691L101.467 292.706L106.293 291.274Z" fill="white" fill-opacity="0.2" stroke="#2E353A" stroke-width="0.25" stroke-miterlimit="10"/>
<path d="M111.437 289.754L113.511 289.724L108.382 291.252L106.293 291.274L111.437 289.754Z" fill="white" fill-opacity="0.2" stroke="#2E353A" stroke-width="0.25" stroke-miterlimit="10"/>
<path d="M101.467 292.706L103.563 292.691L98.6185 294.167L96.5078 294.174L101.467 292.706Z" fill="white" fill-opacity="0.2" stroke="#2E353A" stroke-width="0.25" stroke-miterlimit="10"/>
<path d="M96.5087 294.174L98.6193 294.167L93.5419 295.68H91.4238L96.5087 294.174Z" fill="white" fill-opacity="0.2" stroke="#2E353A" stroke-width="0.25" stroke-miterlimit="10"/>
<path d="M91.4238 295.68H93.5419L88.3242 297.229H86.1914L91.4238 295.68Z" fill="white" fill-opacity="0.2" stroke="#2E353A" stroke-width="0.25" stroke-miterlimit="10"/>
<path d="M67.2464 292.956L62.1395 294.344L60.3535 294.359L65.4679 292.971L67.2464 292.956Z" fill="white" fill-opacity="0.2" stroke="#2E353A" stroke-width="0.25" stroke-miterlimit="10"/>
<path d="M56.9066 295.768L55.1133 295.776L60.3531 294.359L62.139 294.344L56.9066 295.768Z" fill="white" fill-opacity="0.2" stroke="#2E353A" stroke-width="0.25" stroke-miterlimit="10"/>
<path d="M51.5336 297.229H49.7402L55.1129 295.776L56.9062 295.768L51.5336 297.229Z" fill="white" fill-opacity="0.2" stroke="#2E353A" stroke-width="0.25" stroke-miterlimit="10"/>
<path d="M86.6621 291.466L91.9167 289.982L94.0274 289.96L88.7802 291.444L86.6621 291.466Z" fill="white" fill-opacity="0.2" stroke="#2E353A" stroke-width="0.25" stroke-miterlimit="10"/>
<path d="M67.2454 292.956L65.4668 292.971L70.4557 291.621L72.2269 291.599L67.2454 292.956Z" fill="white" fill-opacity="0.2" stroke="#2E353A" stroke-width="0.25" stroke-miterlimit="10"/>
<path d="M58.9505 295.768H56.9062L62.1387 294.344L64.1755 294.337L58.9505 295.768Z" fill="white" fill-opacity="0.2" stroke="#2E353A" stroke-width="0.25" stroke-miterlimit="10"/>
<path d="M101.822 291.318L106.996 289.805L109.21 289.776L104.051 291.296L101.822 291.318Z" fill="white" fill-opacity="0.2" stroke="#2E353A" stroke-width="0.25" stroke-miterlimit="10"/>
<path d="M74.2497 291.584L69.2756 292.942L67.2461 292.956L72.2276 291.598L74.2497 291.584Z" fill="white" fill-opacity="0.2" stroke="#2E353A" stroke-width="0.25" stroke-miterlimit="10"/>
<path d="M70.457 291.621L75.7854 290.174L77.5492 290.152L72.2282 291.599L70.457 291.621Z" fill="white" fill-opacity="0.2" stroke="#2E353A" stroke-width="0.25" stroke-miterlimit="10"/>
<path d="M72.2285 291.598L77.5495 290.152L79.5642 290.13L74.2506 291.584L72.2285 291.598Z" fill="white" fill-opacity="0.2" stroke="#2E353A" stroke-width="0.25" stroke-miterlimit="10"/>
<path d="M65.1656 295.754L59.8225 297.23H57.7266L63.0771 295.754H65.1656Z" fill="white" fill-opacity="0.2" stroke="#2E353A" stroke-width="0.25" stroke-miterlimit="10"/>
<path d="M53.5848 297.229H51.5332L56.9058 295.768H58.9501L53.5848 297.229Z" fill="white" fill-opacity="0.2" stroke="#2E353A" stroke-width="0.25" stroke-miterlimit="10"/>
<path d="M74.25 291.584L79.5636 290.13L81.5857 290.108L76.2869 291.562L74.25 291.584Z" fill="white" fill-opacity="0.2" stroke="#2E353A" stroke-width="0.25" stroke-miterlimit="10"/>
<path d="M61.0028 295.761L55.6523 297.229H53.5859L58.9512 295.768L61.0028 295.761Z" fill="white" fill-opacity="0.2" stroke="#2E353A" stroke-width="0.25" stroke-miterlimit="10"/>
<path d="M63.0766 295.754L57.7261 297.23H55.6523L61.0028 295.761L63.0766 295.754Z" fill="white" fill-opacity="0.2" stroke="#2E353A" stroke-width="0.25" stroke-miterlimit="10"/>
<path d="M64.1756 294.336L62.1387 294.344L67.2456 292.956L69.2751 292.942L64.1756 294.336Z" fill="white" fill-opacity="0.2" stroke="#2E353A" stroke-width="0.25" stroke-miterlimit="10"/>
<path d="M93.0684 291.399L98.286 289.909L100.441 289.879L95.2307 291.377L93.0684 291.399Z" fill="white" fill-opacity="0.2" stroke="#2E353A" stroke-width="0.25" stroke-miterlimit="10"/>
<path d="M76.2871 291.562L81.5859 290.108L83.6228 290.078L78.3314 291.539L76.2871 291.562Z" fill="white" fill-opacity="0.2" stroke="#2E353A" stroke-width="0.25" stroke-miterlimit="10"/>
<path d="M95.2305 291.377L100.441 289.879L102.61 289.857L97.415 291.362L95.2305 291.377Z" fill="white" fill-opacity="0.2" stroke="#2E353A" stroke-width="0.25" stroke-miterlimit="10"/>
<path d="M88.7812 291.444L94.0284 289.96L96.1465 289.931L90.9214 291.421L88.7812 291.444Z" fill="white" fill-opacity="0.2" stroke="#2E353A" stroke-width="0.25" stroke-miterlimit="10"/>
<path d="M97.416 291.362L102.612 289.857L104.796 289.827L99.6079 291.34L97.416 291.362Z" fill="white" fill-opacity="0.2" stroke="#2E353A" stroke-width="0.25" stroke-miterlimit="10"/>
<path d="M99.6074 291.34L104.796 289.827L106.995 289.805L101.821 291.318L99.6074 291.34Z" fill="white" fill-opacity="0.2" stroke="#2E353A" stroke-width="0.25" stroke-miterlimit="10"/>
<path d="M90.9219 291.421L96.1469 289.931L98.2871 289.909L93.0695 291.399L90.9219 291.421Z" fill="white" fill-opacity="0.2" stroke="#2E353A" stroke-width="0.25" stroke-miterlimit="10"/>
<path d="M78.3301 291.54L83.6215 290.078L85.6732 290.056L80.3891 291.525L78.3301 291.54Z" fill="white" fill-opacity="0.2" stroke="#2E353A" stroke-width="0.25" stroke-miterlimit="10"/>
<path d="M80.3906 291.525L85.6747 290.056L87.7411 290.034L82.4718 291.503L80.3906 291.525Z" fill="white" fill-opacity="0.2" stroke="#2E353A" stroke-width="0.25" stroke-miterlimit="10"/>
<path d="M84.5605 291.48L89.8225 290.004L91.9184 289.982L86.6638 291.466L84.5605 291.48Z" fill="white" fill-opacity="0.2" stroke="#2E353A" stroke-width="0.25" stroke-miterlimit="10"/>
<path d="M65.1654 295.753L67.2613 295.746L69.3794 295.739L71.5122 295.731L73.6598 295.724H75.8221L77.9992 295.717L80.1984 295.709H82.4124L84.6338 295.702L86.8773 295.694L81.6302 297.229H79.3793H77.1357H74.9217H72.7151H70.5233H68.3535H66.1986H64.0584H61.9329H59.8223L65.1654 295.753Z" fill="white" fill-opacity="0.2" stroke="#2E353A" stroke-width="0.25" stroke-miterlimit="10"/>
<path d="M82.4707 291.503L87.74 290.034L89.8212 290.005L84.5592 291.481L82.4707 291.503Z" fill="white" fill-opacity="0.2" stroke="#2E353A" stroke-width="0.25" stroke-miterlimit="10"/>
<path d="M127.91 288.329V289.835L88.6851 301.606L88.6777 299.672L127.91 288.329Z" fill="white" fill-opacity="0.2" stroke="#2E353A" stroke-linecap="round" stroke-linejoin="round"/>
<path d="M35.7853 301.606H88.6777V299.68H35.7853V301.606Z" fill="#2E353A" stroke="#2E353A" stroke-linecap="round" stroke-linejoin="round"/>
<defs>
<filter id="filter0_di_1804_7780" x="219.804" y="111.891" width="27.5536" height="33.317" filterUnits="userSpaceOnUse" color-interpolation-filters="sRGB">
<feFlood flood-opacity="0" result="BackgroundImageFix"/>
<feColorMatrix in="SourceAlpha" type="matrix" values="0 0 0 0 0 0 0 0 0 0 0 0 0 0 0 0 0 0 127 0" result="hardAlpha"/>
<feOffset dy="6.01193"/>
<feGaussianBlur stdDeviation="6.01193"/>
<feComposite in2="hardAlpha" operator="out"/>
<feColorMatrix type="matrix" values="0 0 0 0 0 0 0 0 0 0 0 0 0 0 0 0 0 0 0.1 0"/>
<feBlend mode="normal" in2="BackgroundImageFix" result="effect1_dropShadow_1804_7780"/>
<feBlend mode="normal" in="SourceGraphic" in2="effect1_dropShadow_1804_7780" result="shape"/>
<feColorMatrix in="SourceAlpha" type="matrix" values="0 0 0 0 0 0 0 0 0 0 0 0 0 0 0 0 0 0 127 0" result="hardAlpha"/>
<feOffset/>
<feGaussianBlur stdDeviation="9.01789"/>
<feComposite in2="hardAlpha" operator="arithmetic" k2="-1" k3="1"/>
<feColorMatrix type="matrix" values="0 0 0 0 1 0 0 0 0 1 0 0 0 0 1 0 0 0 0.15 0"/>
<feBlend mode="normal" in2="shape" result="effect2_innerShadow_1804_7780"/>
</filter>
<filter id="filter1_di_1804_7780" x="219.804" y="166.569" width="27.5536" height="33.317" filterUnits="userSpaceOnUse" color-interpolation-filters="sRGB">
<feFlood flood-opacity="0" result="BackgroundImageFix"/>
<feColorMatrix in="SourceAlpha" type="matrix" values="0 0 0 0 0 0 0 0 0 0 0 0 0 0 0 0 0 0 127 0" result="hardAlpha"/>
<feOffset dy="6.01193"/>
<feGaussianBlur stdDeviation="6.01193"/>
<feComposite in2="hardAlpha" operator="out"/>
<feColorMatrix type="matrix" values="0 0 0 0 0 0 0 0 0 0 0 0 0 0 0 0 0 0 0.1 0"/>
<feBlend mode="normal" in2="BackgroundImageFix" result="effect1_dropShadow_1804_7780"/>
<feBlend mode="normal" in="SourceGraphic" in2="effect1_dropShadow_1804_7780" result="shape"/>
<feColorMatrix in="SourceAlpha" type="matrix" values="0 0 0 0 0 0 0 0 0 0 0 0 0 0 0 0 0 0 127 0" result="hardAlpha"/>
<feOffset/>
<feGaussianBlur stdDeviation="9.01789"/>
<feComposite in2="hardAlpha" operator="arithmetic" k2="-1" k3="1"/>
<feColorMatrix type="matrix" values="0 0 0 0 1 0 0 0 0 1 0 0 0 0 1 0 0 0 0.15 0"/>
<feBlend mode="normal" in2="shape" result="effect2_innerShadow_1804_7780"/>
</filter>
<filter id="filter2_di_1804_7780" x="125.509" y="58.2605" width="27.5536" height="33.317" filterUnits="userSpaceOnUse" color-interpolation-filters="sRGB">
<feFlood flood-opacity="0" result="BackgroundImageFix"/>
<feColorMatrix in="SourceAlpha" type="matrix" values="0 0 0 0 0 0 0 0 0 0 0 0 0 0 0 0 0 0 127 0" result="hardAlpha"/>
<feOffset dy="6.01193"/>
<feGaussianBlur stdDeviation="6.01193"/>
<feComposite in2="hardAlpha" operator="out"/>
<feColorMatrix type="matrix" values="0 0 0 0 0 0 0 0 0 0 0 0 0 0 0 0 0 0 0.1 0"/>
<feBlend mode="normal" in2="BackgroundImageFix" result="effect1_dropShadow_1804_7780"/>
<feBlend mode="normal" in="SourceGraphic" in2="effect1_dropShadow_1804_7780" result="shape"/>
<feColorMatrix in="SourceAlpha" type="matrix" values="0 0 0 0 0 0 0 0 0 0 0 0 0 0 0 0 0 0 127 0" result="hardAlpha"/>
<feOffset/>
<feGaussianBlur stdDeviation="9.01789"/>
<feComposite in2="hardAlpha" operator="arithmetic" k2="-1" k3="1"/>
<feColorMatrix type="matrix" values="0 0 0 0 1 0 0 0 0 1 0 0 0 0 1 0 0 0 0.15 0"/>
<feBlend mode="normal" in2="shape" result="effect2_innerShadow_1804_7780"/>
</filter>
<filter id="filter3_di_1804_7780" x="125.509" y="139.581" width="27.5536" height="33.317" filterUnits="userSpaceOnUse" color-interpolation-filters="sRGB">
<feFlood flood-opacity="0" result="BackgroundImageFix"/>
<feColorMatrix in="SourceAlpha" type="matrix" values="0 0 0 0 0 0 0 0 0 0 0 0 0 0 0 0 0 0 127 0" result="hardAlpha"/>
<feOffset dy="6.01193"/>
<feGaussianBlur stdDeviation="6.01193"/>
<feComposite in2="hardAlpha" operator="out"/>
<feColorMatrix type="matrix" values="0 0 0 0 0 0 0 0 0 0 0 0 0 0 0 0 0 0 0.1 0"/>
<feBlend mode="normal" in2="BackgroundImageFix" result="effect1_dropShadow_1804_7780"/>
<feBlend mode="normal" in="SourceGraphic" in2="effect1_dropShadow_1804_7780" result="shape"/>
<feColorMatrix in="SourceAlpha" type="matrix" values="0 0 0 0 0 0 0 0 0 0 0 0 0 0 0 0 0 0 127 0" result="hardAlpha"/>
<feOffset/>
<feGaussianBlur stdDeviation="9.01789"/>
<feComposite in2="hardAlpha" operator="arithmetic" k2="-1" k3="1"/>
<feColorMatrix type="matrix" values="0 0 0 0 1 0 0 0 0 1 0 0 0 0 1 0 0 0 0.15 0"/>
<feBlend mode="normal" in2="shape" result="effect2_innerShadow_1804_7780"/>
</filter>
<filter id="filter4_di_1804_7780" x="128.683" y="53.1314" width="116.319" height="44.0327" filterUnits="userSpaceOnUse" color-interpolation-filters="sRGB">
<feFlood flood-opacity="0" result="BackgroundImageFix"/>
<feColorMatrix in="SourceAlpha" type="matrix" values="0 0 0 0 0 0 0 0 0 0 0 0 0 0 0 0 0 0 127 0" result="hardAlpha"/>
<feOffset dy="6.01193"/>
<feGaussianBlur stdDeviation="6.01193"/>
<feComposite in2="hardAlpha" operator="out"/>
<feColorMatrix type="matrix" values="0 0 0 0 0 0 0 0 0 0 0 0 0 0 0 0 0 0 0.1 0"/>
<feBlend mode="normal" in2="BackgroundImageFix" result="effect1_dropShadow_1804_7780"/>
<feBlend mode="normal" in="SourceGraphic" in2="effect1_dropShadow_1804_7780" result="shape"/>
<feColorMatrix in="SourceAlpha" type="matrix" values="0 0 0 0 0 0 0 0 0 0 0 0 0 0 0 0 0 0 127 0" result="hardAlpha"/>
<feOffset/>
<feGaussianBlur stdDeviation="9.01789"/>
<feComposite in2="hardAlpha" operator="arithmetic" k2="-1" k3="1"/>
<feColorMatrix type="matrix" values="0 0 0 0 1 0 0 0 0 1 0 0 0 0 1 0 0 0 0.15 0"/>
<feBlend mode="normal" in2="shape" result="effect2_innerShadow_1804_7780"/>
</filter>
<filter id="filter5_di_1804_7780" x="132.189" y="73.1165" width="109.315" height="30.889" filterUnits="userSpaceOnUse" color-interpolation-filters="sRGB">
<feFlood flood-opacity="0" result="BackgroundImageFix"/>
<feColorMatrix in="SourceAlpha" type="matrix" values="0 0 0 0 0 0 0 0 0 0 0 0 0 0 0 0 0 0 127 0" result="hardAlpha"/>
<feOffset dy="6.01193"/>
<feGaussianBlur stdDeviation="6.01193"/>
<feComposite in2="hardAlpha" operator="out"/>
<feColorMatrix type="matrix" values="0 0 0 0 0 0 0 0 0 0 0 0 0 0 0 0 0 0 0.1 0"/>
<feBlend mode="normal" in2="BackgroundImageFix" result="effect1_dropShadow_1804_7780"/>
<feBlend mode="normal" in="SourceGraphic" in2="effect1_dropShadow_1804_7780" result="shape"/>
<feColorMatrix in="SourceAlpha" type="matrix" values="0 0 0 0 0 0 0 0 0 0 0 0 0 0 0 0 0 0 127 0" result="hardAlpha"/>
<feOffset/>
<feGaussianBlur stdDeviation="9.01789"/>
<feComposite in2="hardAlpha" operator="arithmetic" k2="-1" k3="1"/>
<feColorMatrix type="matrix" values="0 0 0 0 1 0 0 0 0 1 0 0 0 0 1 0 0 0 0.15 0"/>
<feBlend mode="normal" in2="shape" result="effect2_innerShadow_1804_7780"/>
</filter>
<filter id="filter6_di_1804_7780" x="128.683" y="79.9577" width="116.319" height="44.0327" filterUnits="userSpaceOnUse" color-interpolation-filters="sRGB">
<feFlood flood-opacity="0" result="BackgroundImageFix"/>
<feColorMatrix in="SourceAlpha" type="matrix" values="0 0 0 0 0 0 0 0 0 0 0 0 0 0 0 0 0 0 127 0" result="hardAlpha"/>
<feOffset dy="6.01193"/>
<feGaussianBlur stdDeviation="6.01193"/>
<feComposite in2="hardAlpha" operator="out"/>
<feColorMatrix type="matrix" values="0 0 0 0 0 0 0 0 0 0 0 0 0 0 0 0 0 0 0.1 0"/>
<feBlend mode="normal" in2="BackgroundImageFix" result="effect1_dropShadow_1804_7780"/>
<feBlend mode="normal" in="SourceGraphic" in2="effect1_dropShadow_1804_7780" result="shape"/>
<feColorMatrix in="SourceAlpha" type="matrix" values="0 0 0 0 0 0 0 0 0 0 0 0 0 0 0 0 0 0 127 0" result="hardAlpha"/>
<feOffset/>
<feGaussianBlur stdDeviation="9.01789"/>
<feComposite in2="hardAlpha" operator="arithmetic" k2="-1" k3="1"/>
<feColorMatrix type="matrix" values="0 0 0 0 1 0 0 0 0 1 0 0 0 0 1 0 0 0 0.15 0"/>
<feBlend mode="normal" in2="shape" result="effect2_innerShadow_1804_7780"/>
</filter>
<filter id="filter7_di_1804_7780" x="132.189" y="99.9501" width="109.315" height="30.889" filterUnits="userSpaceOnUse" color-interpolation-filters="sRGB">
<feFlood flood-opacity="0" result="BackgroundImageFix"/>
<feColorMatrix in="SourceAlpha" type="matrix" values="0 0 0 0 0 0 0 0 0 0 0 0 0 0 0 0 0 0 127 0" result="hardAlpha"/>
<feOffset dy="6.01193"/>
<feGaussianBlur stdDeviation="6.01193"/>
<feComposite in2="hardAlpha" operator="out"/>
<feColorMatrix type="matrix" values="0 0 0 0 0 0 0 0 0 0 0 0 0 0 0 0 0 0 0.1 0"/>
<feBlend mode="normal" in2="BackgroundImageFix" result="effect1_dropShadow_1804_7780"/>
<feBlend mode="normal" in="SourceGraphic" in2="effect1_dropShadow_1804_7780" result="shape"/>
<feColorMatrix in="SourceAlpha" type="matrix" values="0 0 0 0 0 0 0 0 0 0 0 0 0 0 0 0 0 0 127 0" result="hardAlpha"/>
<feOffset/>
<feGaussianBlur stdDeviation="9.01789"/>
<feComposite in2="hardAlpha" operator="arithmetic" k2="-1" k3="1"/>
<feColorMatrix type="matrix" values="0 0 0 0 1 0 0 0 0 1 0 0 0 0 1 0 0 0 0.15 0"/>
<feBlend mode="normal" in2="shape" result="effect2_innerShadow_1804_7780"/>
</filter>
<filter id="filter8_di_1804_7780" x="128.683" y="106.791" width="116.319" height="44.0327" filterUnits="userSpaceOnUse" color-interpolation-filters="sRGB">
<feFlood flood-opacity="0" result="BackgroundImageFix"/>
<feColorMatrix in="SourceAlpha" type="matrix" values="0 0 0 0 0 0 0 0 0 0 0 0 0 0 0 0 0 0 127 0" result="hardAlpha"/>
<feOffset dy="6.01193"/>
<feGaussianBlur stdDeviation="6.01193"/>
<feComposite in2="hardAlpha" operator="out"/>
<feColorMatrix type="matrix" values="0 0 0 0 0 0 0 0 0 0 0 0 0 0 0 0 0 0 0.1 0"/>
<feBlend mode="normal" in2="BackgroundImageFix" result="effect1_dropShadow_1804_7780"/>
<feBlend mode="normal" in="SourceGraphic" in2="effect1_dropShadow_1804_7780" result="shape"/>
<feColorMatrix in="SourceAlpha" type="matrix" values="0 0 0 0 0 0 0 0 0 0 0 0 0 0 0 0 0 0 127 0" result="hardAlpha"/>
<feOffset/>
<feGaussianBlur stdDeviation="9.01789"/>
<feComposite in2="hardAlpha" operator="arithmetic" k2="-1" k3="1"/>
<feColorMatrix type="matrix" values="0 0 0 0 1 0 0 0 0 1 0 0 0 0 1 0 0 0 0.15 0"/>
<feBlend mode="normal" in2="shape" result="effect2_innerShadow_1804_7780"/>
</filter>
<filter id="filter9_di_1804_7780" x="132.189" y="126.776" width="109.315" height="30.889" filterUnits="userSpaceOnUse" color-interpolation-filters="sRGB">
<feFlood flood-opacity="0" result="BackgroundImageFix"/>
<feColorMatrix in="SourceAlpha" type="matrix" values="0 0 0 0 0 0 0 0 0 0 0 0 0 0 0 0 0 0 127 0" result="hardAlpha"/>
<feOffset dy="6.01193"/>
<feGaussianBlur stdDeviation="6.01193"/>
<feComposite in2="hardAlpha" operator="out"/>
<feColorMatrix type="matrix" values="0 0 0 0 0 0 0 0 0 0 0 0 0 0 0 0 0 0 0.1 0"/>
<feBlend mode="normal" in2="BackgroundImageFix" result="effect1_dropShadow_1804_7780"/>
<feBlend mode="normal" in="SourceGraphic" in2="effect1_dropShadow_1804_7780" result="shape"/>
<feColorMatrix in="SourceAlpha" type="matrix" values="0 0 0 0 0 0 0 0 0 0 0 0 0 0 0 0 0 0 127 0" result="hardAlpha"/>
<feOffset/>
<feGaussianBlur stdDeviation="9.01789"/>
<feComposite in2="hardAlpha" operator="arithmetic" k2="-1" k3="1"/>
<feColorMatrix type="matrix" values="0 0 0 0 1 0 0 0 0 1 0 0 0 0 1 0 0 0 0.15 0"/>
<feBlend mode="normal" in2="shape" result="effect2_innerShadow_1804_7780"/>
</filter>
<filter id="filter10_di_1804_7780" x="128.683" y="133.618" width="116.319" height="44.0327" filterUnits="userSpaceOnUse" color-interpolation-filters="sRGB">
<feFlood flood-opacity="0" result="BackgroundImageFix"/>
<feColorMatrix in="SourceAlpha" type="matrix" values="0 0 0 0 0 0 0 0 0 0 0 0 0 0 0 0 0 0 127 0" result="hardAlpha"/>
<feOffset dy="6.01193"/>
<feGaussianBlur stdDeviation="6.01193"/>
<feComposite in2="hardAlpha" operator="out"/>
<feColorMatrix type="matrix" values="0 0 0 0 0 0 0 0 0 0 0 0 0 0 0 0 0 0 0.1 0"/>
<feBlend mode="normal" in2="BackgroundImageFix" result="effect1_dropShadow_1804_7780"/>
<feBlend mode="normal" in="SourceGraphic" in2="effect1_dropShadow_1804_7780" result="shape"/>
<feColorMatrix in="SourceAlpha" type="matrix" values="0 0 0 0 0 0 0 0 0 0 0 0 0 0 0 0 0 0 127 0" result="hardAlpha"/>
<feOffset/>
<feGaussianBlur stdDeviation="9.01789"/>
<feComposite in2="hardAlpha" operator="arithmetic" k2="-1" k3="1"/>
<feColorMatrix type="matrix" values="0 0 0 0 1 0 0 0 0 1 0 0 0 0 1 0 0 0 0.15 0"/>
<feBlend mode="normal" in2="shape" result="effect2_innerShadow_1804_7780"/>
</filter>
<filter id="filter11_di_1804_7780" x="132.189" y="153.61" width="109.315" height="30.889" filterUnits="userSpaceOnUse" color-interpolation-filters="sRGB">
<feFlood flood-opacity="0" result="BackgroundImageFix"/>
<feColorMatrix in="SourceAlpha" type="matrix" values="0 0 0 0 0 0 0 0 0 0 0 0 0 0 0 0 0 0 127 0" result="hardAlpha"/>
<feOffset dy="6.01193"/>
<feGaussianBlur stdDeviation="6.01193"/>
<feComposite in2="hardAlpha" operator="out"/>
<feColorMatrix type="matrix" values="0 0 0 0 0 0 0 0 0 0 0 0 0 0 0 0 0 0 0.1 0"/>
<feBlend mode="normal" in2="BackgroundImageFix" result="effect1_dropShadow_1804_7780"/>
<feBlend mode="normal" in="SourceGraphic" in2="effect1_dropShadow_1804_7780" result="shape"/>
<feColorMatrix in="SourceAlpha" type="matrix" values="0 0 0 0 0 0 0 0 0 0 0 0 0 0 0 0 0 0 127 0" result="hardAlpha"/>
<feOffset/>
<feGaussianBlur stdDeviation="9.01789"/>
<feComposite in2="hardAlpha" operator="arithmetic" k2="-1" k3="1"/>
<feColorMatrix type="matrix" values="0 0 0 0 1 0 0 0 0 1 0 0 0 0 1 0 0 0 0.15 0"/>
<feBlend mode="normal" in2="shape" result="effect2_innerShadow_1804_7780"/>
</filter>
<filter id="filter12_di_1804_7780" x="128.683" y="160.451" width="116.319" height="44.0327" filterUnits="userSpaceOnUse" color-interpolation-filters="sRGB">
<feFlood flood-opacity="0" result="BackgroundImageFix"/>
<feColorMatrix in="SourceAlpha" type="matrix" values="0 0 0 0 0 0 0 0 0 0 0 0 0 0 0 0 0 0 127 0" result="hardAlpha"/>
<feOffset dy="6.01193"/>
<feGaussianBlur stdDeviation="6.01193"/>
<feComposite in2="hardAlpha" operator="out"/>
<feColorMatrix type="matrix" values="0 0 0 0 0 0 0 0 0 0 0 0 0 0 0 0 0 0 0.1 0"/>
<feBlend mode="normal" in2="BackgroundImageFix" result="effect1_dropShadow_1804_7780"/>
<feBlend mode="normal" in="SourceGraphic" in2="effect1_dropShadow_1804_7780" result="shape"/>
<feColorMatrix in="SourceAlpha" type="matrix" values="0 0 0 0 0 0 0 0 0 0 0 0 0 0 0 0 0 0 127 0" result="hardAlpha"/>
<feOffset/>
<feGaussianBlur stdDeviation="9.01789"/>
<feComposite in2="hardAlpha" operator="arithmetic" k2="-1" k3="1"/>
<feColorMatrix type="matrix" values="0 0 0 0 1 0 0 0 0 1 0 0 0 0 1 0 0 0 0.15 0"/>
<feBlend mode="normal" in2="shape" result="effect2_innerShadow_1804_7780"/>
</filter>
<filter id="filter13_di_1804_7780" x="146.166" y="240.827" width="81.8407" height="61.9735" filterUnits="userSpaceOnUse" color-interpolation-filters="sRGB">
<feFlood flood-opacity="0" result="BackgroundImageFix"/>
<feColorMatrix in="SourceAlpha" type="matrix" values="0 0 0 0 0 0 0 0 0 0 0 0 0 0 0 0 0 0 127 0" result="hardAlpha"/>
<feOffset dy="6.01193"/>
<feGaussianBlur stdDeviation="6.01193"/>
<feComposite in2="hardAlpha" operator="out"/>
<feColorMatrix type="matrix" values="0 0 0 0 0 0 0 0 0 0 0 0 0 0 0 0 0 0 0.1 0"/>
<feBlend mode="normal" in2="BackgroundImageFix" result="effect1_dropShadow_1804_7780"/>
<feBlend mode="normal" in="SourceGraphic" in2="effect1_dropShadow_1804_7780" result="shape"/>
<feColorMatrix in="SourceAlpha" type="matrix" values="0 0 0 0 0 0 0 0 0 0 0 0 0 0 0 0 0 0 127 0" result="hardAlpha"/>
<feOffset/>
<feGaussianBlur stdDeviation="9.01789"/>
<feComposite in2="hardAlpha" operator="arithmetic" k2="-1" k3="1"/>
<feColorMatrix type="matrix" values="0 0 0 0 1 0 0 0 0 1 0 0 0 0 1 0 0 0 0.15 0"/>
<feBlend mode="normal" in2="shape" result="effect2_innerShadow_1804_7780"/>
</filter>
<filter id="filter14_di_1804_7780" x="236.283" y="240.827" width="68.9911" height="61.9735" filterUnits="userSpaceOnUse" color-interpolation-filters="sRGB">
<feFlood flood-opacity="0" result="BackgroundImageFix"/>
<feColorMatrix in="SourceAlpha" type="matrix" values="0 0 0 0 0 0 0 0 0 0 0 0 0 0 0 0 0 0 127 0" result="hardAlpha"/>
<feOffset dy="6.01193"/>
<feGaussianBlur stdDeviation="6.01193"/>
<feComposite in2="hardAlpha" operator="out"/>
<feColorMatrix type="matrix" values="0 0 0 0 0 0 0 0 0 0 0 0 0 0 0 0 0 0 0.1 0"/>
<feBlend mode="normal" in2="BackgroundImageFix" result="effect1_dropShadow_1804_7780"/>
<feBlend mode="normal" in="SourceGraphic" in2="effect1_dropShadow_1804_7780" result="shape"/>
<feColorMatrix in="SourceAlpha" type="matrix" values="0 0 0 0 0 0 0 0 0 0 0 0 0 0 0 0 0 0 127 0" result="hardAlpha"/>
<feOffset/>
<feGaussianBlur stdDeviation="9.01789"/>
<feComposite in2="hardAlpha" operator="arithmetic" k2="-1" k3="1"/>
<feColorMatrix type="matrix" values="0 0 0 0 1 0 0 0 0 1 0 0 0 0 1 0 0 0 0.15 0"/>
<feBlend mode="normal" in2="shape" result="effect2_innerShadow_1804_7780"/>
</filter>
<filter id="filter15_di_1804_7780" x="66.9566" y="240.827" width="68.9911" height="61.9735" filterUnits="userSpaceOnUse" color-interpolation-filters="sRGB">
<feFlood flood-opacity="0" result="BackgroundImageFix"/>
<feColorMatrix in="SourceAlpha" type="matrix" values="0 0 0 0 0 0 0 0 0 0 0 0 0 0 0 0 0 0 127 0" result="hardAlpha"/>
<feOffset dy="6.01193"/>
<feGaussianBlur stdDeviation="6.01193"/>
<feComposite in2="hardAlpha" operator="out"/>
<feColorMatrix type="matrix" values="0 0 0 0 0 0 0 0 0 0 0 0 0 0 0 0 0 0 0.1 0"/>
<feBlend mode="normal" in2="BackgroundImageFix" result="effect1_dropShadow_1804_7780"/>
<feBlend mode="normal" in="SourceGraphic" in2="effect1_dropShadow_1804_7780" result="shape"/>
<feColorMatrix in="SourceAlpha" type="matrix" values="0 0 0 0 0 0 0 0 0 0 0 0 0 0 0 0 0 0 127 0" result="hardAlpha"/>
<feOffset/>
<feGaussianBlur stdDeviation="9.01789"/>
<feComposite in2="hardAlpha" operator="arithmetic" k2="-1" k3="1"/>
<feColorMatrix type="matrix" values="0 0 0 0 1 0 0 0 0 1 0 0 0 0 1 0 0 0 0.15 0"/>
<feBlend mode="normal" in2="shape" result="effect2_innerShadow_1804_7780"/>
</filter>
<linearGradient id="paint0_linear_1804_7780" x1="102.441" y1="94.7419" x2="150.091" y2="132.207" gradientUnits="userSpaceOnUse">
<stop stop-color="#9A9A9A"/>
<stop offset="1" stop-color="#282828"/>
</linearGradient>
<linearGradient id="paint1_linear_1804_7780" x1="239.664" y1="130.911" x2="290.436" y2="170.878" gradientUnits="userSpaceOnUse">
<stop stop-color="#9A9A9A"/>
<stop offset="1" stop-color="#282828"/>
</linearGradient>
<linearGradient id="paint2_linear_1804_7780" x1="70.6613" y1="168.626" x2="146.836" y2="228.305" gradientUnits="userSpaceOnUse">
<stop stop-color="#9A9A9A"/>
<stop offset="1" stop-color="#282828"/>
</linearGradient>
</defs>
</svg>
