<svg width="381" height="381" viewBox="0 0 381 381" fill="none" xmlns="http://www.w3.org/2000/svg">
<path d="M207.858 93.5507H188.541C188.116 93.5507 187.708 93.3824 187.407 93.0825C187.106 92.7826 186.936 92.3756 186.934 91.9505V82.8523C186.934 79.8653 188.12 77.0007 190.232 74.8886C192.344 72.7765 195.209 71.5899 198.196 71.5899C201.183 71.5899 204.048 72.7765 206.16 74.8886C208.272 77.0007 209.458 79.8653 209.458 82.8523V91.9505C209.458 92.3749 209.29 92.782 208.99 93.0821C208.69 93.3821 208.283 93.5507 207.858 93.5507ZM190.149 90.3427H206.25V82.8523C206.283 81.7742 206.1 80.7005 205.71 79.6948C205.32 78.689 204.733 77.7718 203.982 76.9975C203.231 76.2232 202.332 75.6076 201.339 75.1872C200.346 74.7668 199.278 74.5502 198.2 74.5502C197.121 74.5502 196.054 74.7668 195.06 75.1872C194.067 75.6076 193.168 76.2232 192.418 76.9975C191.667 77.7718 191.079 78.689 190.689 79.6948C190.3 80.7005 190.116 81.7742 190.149 82.8523V90.3427Z" fill="#1A8EF7" fill-opacity="0.41" stroke="white" stroke-opacity="0.2" stroke-linecap="round" stroke-linejoin="round"/>
<g filter="url(#filter0_di_1804_8829)">
<path d="M204.324 89.1692H191.758C188.438 89.1692 185.746 91.8609 185.746 95.1812V103.937C185.746 107.257 188.438 109.949 191.758 109.949H204.324C207.644 109.949 210.336 107.257 210.336 103.937V95.1812C210.336 91.8609 207.644 89.1692 204.324 89.1692Z" fill="#D9D9D9" fill-opacity="0.1" shape-rendering="crispEdges"/>
</g>
<path d="M200.597 97.7951C200.599 97.3201 200.474 96.8531 200.237 96.4419C199.999 96.0307 199.656 95.69 199.244 95.4547C198.831 95.2193 198.364 95.0977 197.889 95.1023C197.414 95.1069 196.948 95.2376 196.541 95.4809C196.133 95.7242 195.797 96.0715 195.567 96.4873C195.337 96.903 195.222 97.3723 195.233 97.8471C195.244 98.322 195.381 98.7854 195.63 99.1899C195.879 99.5945 196.231 99.9257 196.65 100.15L196.2 104.874H199.644L199.195 100.15C199.62 99.9208 199.974 99.5809 200.221 99.1662C200.468 98.7516 200.598 98.2777 200.597 97.7951Z" fill="#1A8EF7" fill-opacity="0.41" stroke="white" stroke-opacity="0.2" stroke-miterlimit="10"/>
<path d="M297.766 196.124H278.45C278.239 196.124 278.03 196.082 277.836 196.001C277.641 195.92 277.464 195.802 277.315 195.652C277.167 195.503 277.049 195.325 276.969 195.13C276.889 194.935 276.849 194.727 276.85 194.516V185.425C276.81 183.922 277.073 182.426 277.621 181.026C278.169 179.626 278.992 178.35 280.041 177.273C281.091 176.196 282.345 175.34 283.731 174.755C285.116 174.171 286.604 173.87 288.108 173.87C289.612 173.87 291.1 174.171 292.486 174.755C293.871 175.34 295.125 176.196 296.175 177.273C297.224 178.35 298.047 179.626 298.595 181.026C299.143 182.426 299.406 183.922 299.367 185.425V194.516C299.368 194.727 299.327 194.935 299.247 195.13C299.167 195.325 299.049 195.503 298.901 195.652C298.752 195.802 298.575 195.92 298.381 196.001C298.186 196.082 297.977 196.124 297.766 196.124ZM280.058 192.916H296.159V185.425C296.192 184.347 296.008 183.273 295.618 182.268C295.229 181.262 294.641 180.345 293.89 179.57C293.139 178.796 292.241 178.18 291.247 177.76C290.254 177.34 289.187 177.123 288.108 177.123C287.029 177.123 285.962 177.34 284.969 177.76C283.975 178.18 283.077 178.796 282.326 179.57C281.575 180.345 280.987 181.262 280.598 182.268C280.208 183.273 280.024 184.347 280.058 185.425V192.916Z" fill="#1A8EF7" fill-opacity="0.41" stroke="white" stroke-opacity="0.2" stroke-linecap="round" stroke-linejoin="round"/>
<g filter="url(#filter1_di_1804_8829)">
<path d="M294.232 191.742H281.666C278.346 191.742 275.654 194.434 275.654 197.754V206.51C275.654 209.83 278.346 212.522 281.666 212.522H294.232C297.552 212.522 300.244 209.83 300.244 206.51V197.754C300.244 194.434 297.552 191.742 294.232 191.742Z" fill="#D9D9D9" fill-opacity="0.1" shape-rendering="crispEdges"/>
</g>
<path d="M290.505 200.406C290.507 199.931 290.383 199.464 290.145 199.053C289.907 198.642 289.565 198.301 289.152 198.066C288.739 197.83 288.272 197.709 287.797 197.713C287.322 197.718 286.857 197.848 286.449 198.092C286.041 198.335 285.705 198.682 285.475 199.098C285.245 199.514 285.13 199.983 285.141 200.458C285.152 200.933 285.289 201.396 285.538 201.801C285.787 202.205 286.139 202.537 286.558 202.761L286.108 207.477H289.56L289.103 202.692C289.517 202.468 289.865 202.139 290.111 201.737C290.357 201.336 290.493 200.877 290.505 200.406Z" fill="#1A8EF7" fill-opacity="0.41" stroke="white" stroke-opacity="0.2" stroke-miterlimit="10"/>
<path d="M116.868 196.124H97.5356C97.3241 196.125 97.1146 196.084 96.9191 196.003C96.7236 195.923 96.5459 195.804 96.3964 195.655C96.2469 195.505 96.1285 195.328 96.0481 195.132C95.9676 194.937 95.9267 194.727 95.9278 194.516V185.425C95.9278 182.438 97.1143 179.573 99.2264 177.461C101.339 175.349 104.203 174.163 107.19 174.163C110.177 174.163 113.042 175.349 115.154 177.461C117.266 179.573 118.452 182.438 118.452 185.425V194.516C118.455 194.939 118.289 195.346 117.992 195.647C117.695 195.948 117.291 196.12 116.868 196.124ZM99.1586 192.916H115.267V185.425C115.267 183.289 114.419 181.24 112.908 179.73C111.398 178.219 109.349 177.371 107.213 177.371C105.077 177.371 103.028 178.219 101.518 179.73C100.007 181.24 99.1586 183.289 99.1586 185.425V192.916Z" fill="#1A8EF7" fill-opacity="0.41" stroke="white" stroke-opacity="0.2" stroke-linecap="round" stroke-linejoin="round"/>
<g filter="url(#filter2_di_1804_8829)">
<path d="M113.34 191.742H100.774C97.4534 191.742 94.7617 194.434 94.7617 197.754V206.51C94.7617 209.83 97.4534 212.522 100.774 212.522H113.34C116.66 212.522 119.351 209.83 119.351 206.51V197.754C119.351 194.434 116.66 191.742 113.34 191.742Z" fill="#D9D9D9" fill-opacity="0.1" shape-rendering="crispEdges"/>
</g>
<path d="M109.614 200.406C109.616 199.932 109.491 199.465 109.253 199.055C109.015 198.644 108.673 198.304 108.261 198.069C107.848 197.834 107.381 197.713 106.907 197.717C106.432 197.722 105.968 197.852 105.56 198.095C105.152 198.337 104.816 198.684 104.586 199.099C104.356 199.514 104.24 199.982 104.251 200.457C104.261 200.931 104.396 201.394 104.644 201.799C104.892 202.204 105.242 202.535 105.66 202.761L105.21 207.477H108.654L108.205 202.692C108.621 202.47 108.971 202.141 109.218 201.739C109.466 201.338 109.603 200.878 109.614 200.406Z" fill="#1A8EF7" fill-opacity="0.41" stroke="white" stroke-opacity="0.2" stroke-miterlimit="10"/>
<path d="M312.619 181.356C309.571 184.541 307.757 189.418 307.787 194.379C307.818 199.339 309.731 204.285 312.893 207.439C313.134 207.681 313.462 207.816 313.803 207.816C314.145 207.816 314.473 207.681 314.714 207.439C314.835 207.32 314.93 207.177 314.994 207.02C315.058 206.863 315.09 206.695 315.087 206.525C315.085 206.186 314.951 205.861 314.714 205.618C312.017 202.943 310.394 198.76 310.363 194.371C310.333 189.982 311.887 185.859 314.478 183.147C314.595 183.025 314.687 182.881 314.748 182.723C314.81 182.565 314.84 182.397 314.836 182.228C314.832 182.059 314.796 181.892 314.728 181.737C314.66 181.583 314.562 181.443 314.44 181.326C314.318 181.208 314.174 181.117 314.016 181.055C313.859 180.994 313.69 180.964 313.521 180.967C313.352 180.971 313.185 181.008 313.03 181.076C312.876 181.144 312.736 181.242 312.619 181.364V181.356Z" fill="#1A8EF7" fill-opacity="0.41"/>
<path d="M316.374 184.823C314.231 187.537 313.08 190.902 313.112 194.36C313.144 197.818 314.357 201.161 316.549 203.835C316.773 204.094 317.09 204.253 317.432 204.279C317.773 204.305 318.11 204.194 318.37 203.972C318.512 203.849 318.625 203.697 318.702 203.526C318.778 203.355 318.816 203.169 318.812 202.982C318.814 202.679 318.705 202.387 318.508 202.159C316.709 199.945 315.715 197.187 315.689 194.335C315.662 191.484 316.605 188.707 318.363 186.461C318.58 186.198 318.684 185.858 318.651 185.518C318.618 185.178 318.451 184.865 318.188 184.648C317.924 184.431 317.585 184.327 317.245 184.36C316.904 184.393 316.591 184.559 316.374 184.823Z" fill="#1A8EF7" fill-opacity="0.41"/>
<path d="M320.086 188.336C318.7 190.053 317.964 192.204 318.008 194.41C318.051 196.616 318.87 198.737 320.322 200.398C320.492 200.606 320.721 200.756 320.98 200.827C321.238 200.898 321.513 200.886 321.764 200.794C322.016 200.702 322.232 200.533 322.384 200.312C322.535 200.091 322.614 199.828 322.608 199.56C322.609 199.26 322.501 198.971 322.304 198.745C321.24 197.53 320.64 195.979 320.608 194.365C320.576 192.751 321.114 191.177 322.128 189.921C322.321 189.651 322.402 189.317 322.354 188.989C322.307 188.66 322.134 188.363 321.873 188.159C321.612 187.955 321.282 187.859 320.952 187.892C320.622 187.925 320.317 188.084 320.101 188.336H320.086Z" fill="#1A8EF7" fill-opacity="0.41"/>
<path d="M83.5841 181.356C86.6321 184.541 88.4533 189.418 88.4152 194.379C88.3771 199.339 86.4721 204.285 83.3098 207.439C83.1897 207.558 83.0474 207.653 82.8908 207.717C82.7343 207.781 82.5667 207.813 82.3976 207.813C82.2285 207.812 82.0612 207.778 81.9052 207.713C81.7493 207.647 81.6077 207.552 81.4886 207.432C81.3695 207.312 81.2753 207.169 81.2112 207.013C81.1471 206.856 81.1145 206.689 81.1152 206.519C81.116 206.35 81.15 206.183 81.2153 206.027C81.2807 205.871 81.3762 205.73 81.4962 205.61C84.1861 202.936 85.8092 198.752 85.8396 194.363C85.8701 189.974 84.3156 185.852 81.7248 183.139C81.4852 182.897 81.3508 182.569 81.3508 182.228C81.3508 181.888 81.4852 181.56 81.7248 181.318C81.847 181.194 81.9932 181.096 82.1545 181.031C82.3157 180.965 82.4887 180.933 82.6627 180.937C82.8367 180.94 83.0082 180.979 83.1666 181.051C83.325 181.124 83.4671 181.227 83.5841 181.356Z" fill="#1A8EF7" fill-opacity="0.41"/>
<path d="M79.8347 184.823C81.9779 187.537 83.1284 190.903 83.0951 194.361C83.0619 197.82 81.8468 201.162 79.6518 203.835C79.4293 204.093 79.1134 204.253 78.7734 204.278C78.4334 204.304 78.0971 204.194 77.8383 203.972C77.6968 203.849 77.5834 203.697 77.5058 203.526C77.4283 203.355 77.3883 203.169 77.3887 202.982C77.3909 202.679 77.5018 202.387 77.7011 202.159C79.4998 199.945 80.4937 197.187 80.52 194.335C80.5463 191.484 79.6034 188.707 77.8459 186.461C77.6286 186.198 77.525 185.858 77.5579 185.518C77.5908 185.178 77.7574 184.865 78.0211 184.648C78.2849 184.431 78.6241 184.327 78.9642 184.36C79.3043 184.393 79.6174 184.559 79.8347 184.823Z" fill="#1A8EF7" fill-opacity="0.41"/>
<path d="M76.124 188.336C77.5078 190.056 78.2418 192.208 78.1972 194.415C78.1527 196.622 77.3323 198.743 75.8802 200.406C75.7722 200.536 75.6394 200.644 75.4894 200.723C75.3395 200.802 75.1755 200.85 75.0068 200.865C74.8381 200.879 74.6682 200.861 74.5068 200.81C74.3454 200.758 74.1958 200.675 74.0666 200.566C73.922 200.443 73.806 200.29 73.727 200.118C73.648 199.945 73.6079 199.758 73.6094 199.568C73.612 199.269 73.7199 198.98 73.9142 198.752C74.9869 197.543 75.5944 195.991 75.6279 194.374C75.6614 192.758 75.1188 191.182 74.0971 189.929C73.9922 189.796 73.9147 189.644 73.869 189.481C73.8233 189.318 73.8104 189.147 73.8309 188.979C73.8515 188.812 73.9051 188.649 73.9887 188.502C74.0723 188.355 74.1843 188.226 74.3181 188.123C74.5868 187.914 74.9269 187.819 75.2648 187.859C75.6027 187.899 75.9114 188.07 76.124 188.336Z" fill="#1A8EF7" fill-opacity="0.41"/>
<path d="M211.134 63.4822C207.941 66.5302 203.072 68.3438 198.104 68.3133C193.136 68.2828 188.213 66.3702 185.051 63.246C184.81 63.0045 184.674 62.6769 184.674 62.3354C184.674 61.9939 184.81 61.6663 185.051 61.4248C185.297 61.184 185.629 61.0499 185.973 61.0514C186.141 61.0513 186.307 61.085 186.461 61.1505C186.616 61.2159 186.756 61.3118 186.872 61.4324C189.547 64.1223 193.73 65.7454 198.119 65.7758C202.249 65.875 206.263 64.4046 209.351 61.661C209.598 61.4246 209.928 61.2958 210.27 61.3029C210.611 61.3101 210.936 61.4526 211.172 61.6991C211.409 61.9457 211.538 62.2761 211.53 62.6176C211.523 62.9592 211.381 63.2839 211.134 63.5203V63.4822Z" fill="#1A8EF7" fill-opacity="0.41"/>
<path d="M207.645 59.7256C204.933 61.8725 201.567 63.026 198.108 62.9941C194.649 62.9622 191.305 61.7469 188.633 59.5503C188.495 59.4434 188.38 59.3096 188.295 59.1568C188.21 59.0041 188.157 58.8356 188.139 58.6618C188.122 58.4879 188.14 58.3123 188.192 58.1456C188.244 57.9789 188.33 57.8246 188.444 57.692C188.558 57.5595 188.697 57.4515 188.854 57.3747C189.011 57.2979 189.182 57.2538 189.357 57.2452C189.531 57.2365 189.706 57.2635 189.87 57.3244C190.033 57.3853 190.183 57.479 190.31 57.5996C192.523 59.3983 195.281 60.3921 198.133 60.4184C200.985 60.4448 203.761 59.5019 206.007 57.7444C206.272 57.551 206.601 57.4661 206.926 57.5069C207.251 57.5477 207.549 57.7112 207.758 57.964C207.967 58.2168 208.072 58.5399 208.051 58.8672C208.03 59.1946 207.885 59.5016 207.645 59.7256Z" fill="#1A8EF7" fill-opacity="0.41"/>
<path d="M204.125 56.0222C202.405 57.4041 200.255 58.1369 198.049 58.0923C195.844 58.0477 193.725 57.2286 192.062 55.7784C191.855 55.6091 191.705 55.3793 191.634 55.1208C191.563 54.8624 191.574 54.5882 191.667 54.3366C191.759 54.085 191.927 53.8684 192.149 53.7171C192.37 53.5658 192.633 53.4872 192.901 53.4924C193.203 53.4912 193.495 53.5995 193.724 53.7972C194.934 54.8668 196.485 55.4717 198.1 55.5038C199.714 55.5359 201.288 54.9932 202.54 53.9725C202.81 53.7623 203.152 53.6679 203.491 53.71C203.831 53.7522 204.139 53.9275 204.35 54.1973C204.56 54.467 204.654 54.8093 204.612 55.1487C204.57 55.4881 204.395 55.7968 204.125 56.007V56.0222Z" fill="#1A8EF7" fill-opacity="0.41"/>
<g filter="url(#filter3_di_1804_8829)">
<path d="M196.123 324.589C263.967 324.589 318.965 307.395 318.965 286.184C318.965 264.974 263.967 247.78 196.123 247.78C128.279 247.78 73.2812 264.974 73.2812 286.184C73.2812 307.395 128.279 324.589 196.123 324.589Z" fill="#D9D9D9" fill-opacity="0.05" shape-rendering="crispEdges"/>
</g>
<g filter="url(#filter4_di_1804_8829)">
<path d="M197.358 316.1C259.171 316.1 309.281 300.881 309.281 282.108C309.281 263.334 259.171 248.115 197.358 248.115C135.545 248.115 85.4355 263.334 85.4355 282.108C85.4355 300.881 135.545 316.1 197.358 316.1Z" fill="#D9D9D9" fill-opacity="0.1" shape-rendering="crispEdges"/>
</g>
<path d="M197.357 298.193C247.622 298.193 288.37 286.847 288.37 272.849C288.37 258.852 247.622 247.505 197.357 247.505C147.092 247.505 106.344 258.852 106.344 272.849C106.344 286.847 147.092 298.193 197.357 298.193Z" fill="white" fill-opacity="0.1"/>
<path d="M111.663 294.49C111.747 295.118 111.637 295.757 111.347 296.321C111.058 296.885 110.603 297.347 110.043 297.645C109.484 297.943 108.847 298.063 108.217 297.989C107.588 297.915 106.996 297.65 106.521 297.23C106.046 296.809 105.712 296.254 105.561 295.638C105.411 295.023 105.453 294.376 105.68 293.784C105.908 293.192 106.311 292.685 106.836 292.329C107.361 291.973 107.981 291.786 108.615 291.793C109.376 291.753 110.121 292.013 110.691 292.518C111.261 293.022 111.61 293.731 111.663 294.49Z" fill="white" fill-opacity="0.1" stroke="white" stroke-opacity="0.2" stroke-miterlimit="10"/>
<path d="M152.926 308.961C154.626 308.961 156.005 307.753 156.005 306.263C156.005 304.773 154.626 303.566 152.926 303.566C151.226 303.566 149.848 304.773 149.848 306.263C149.848 307.753 151.226 308.961 152.926 308.961Z" fill="white" fill-opacity="0.1" stroke="white" stroke-opacity="0.2" stroke-miterlimit="10"/>
<path d="M208.788 308.191C208.872 308.819 208.762 309.458 208.472 310.022C208.183 310.586 207.728 311.048 207.168 311.346C206.609 311.644 205.972 311.764 205.342 311.69C204.713 311.615 204.121 311.35 203.646 310.93C203.171 310.51 202.837 309.955 202.686 309.339C202.536 308.723 202.578 308.076 202.805 307.485C203.033 306.893 203.436 306.385 203.961 306.03C204.486 305.674 205.106 305.487 205.74 305.493C206.501 305.454 207.246 305.714 207.816 306.219C208.386 306.723 208.735 307.431 208.788 308.191Z" fill="white" fill-opacity="0.1" stroke="white" stroke-opacity="0.2" stroke-miterlimit="10"/>
<path d="M258.051 306.263C259.751 306.263 261.13 305.055 261.13 303.566C261.13 302.076 259.751 300.868 258.051 300.868C256.351 300.868 254.973 302.076 254.973 303.566C254.973 305.055 256.351 306.263 258.051 306.263Z" fill="white" fill-opacity="0.1" stroke="white" stroke-opacity="0.2" stroke-miterlimit="10"/>
<path d="M291.938 293.942C293.638 293.942 295.016 292.734 295.016 291.244C295.016 289.754 293.638 288.547 291.938 288.547C290.238 288.547 288.859 289.754 288.859 291.244C288.859 292.734 290.238 293.942 291.938 293.942Z" fill="white" fill-opacity="0.1" stroke="white" stroke-opacity="0.2" stroke-miterlimit="10"/>
<path d="M305.729 276.4C305.219 277.376 303.443 277.452 301.752 276.576C300.06 275.699 299.108 274.19 299.618 273.215C300.129 272.24 301.904 272.164 303.596 273.04C305.287 273.916 306.24 275.425 305.729 276.4Z" fill="white" fill-opacity="0.1" stroke="white" stroke-opacity="0.2" stroke-miterlimit="10"/>
<path d="M88.9854 276.4C89.4959 277.376 91.2714 277.452 92.963 276.576C94.6547 275.699 95.6072 274.19 95.0966 273.215C94.5861 272.24 92.8106 272.164 91.119 273.04C89.4274 273.916 88.4749 275.425 88.9854 276.4Z" fill="white" fill-opacity="0.1" stroke="white" stroke-opacity="0.2" stroke-miterlimit="10"/>
<path d="M106.199 267.325V241.325" stroke="white" stroke-opacity="0.2" stroke-miterlimit="10"/>
<path d="M122.994 286.283V273.284" stroke="white" stroke-opacity="0.2" stroke-miterlimit="10"/>
<path d="M122.994 270.03V244.031" stroke="white" stroke-opacity="0.2" stroke-miterlimit="10"/>
<path d="M273.039 287.365V261.366" stroke="white" stroke-opacity="0.2" stroke-miterlimit="10"/>
<path d="M257.25 291.876V234.704" stroke="white" stroke-opacity="0.2" stroke-miterlimit="10"/>
<path d="M191.787 297.66V285.742" stroke="white" stroke-opacity="0.2" stroke-miterlimit="10"/>
<path d="M141.809 293.34V264.193" stroke="white" stroke-opacity="0.2" stroke-miterlimit="10"/>
<path d="M230.65 296.89V291" stroke="white" stroke-opacity="0.2" stroke-miterlimit="10"/>
<path d="M230.65 289.164V277.139" stroke="white" stroke-opacity="0.2" stroke-miterlimit="10"/>
<path d="M191.787 280.325V273.825" stroke="white" stroke-opacity="0.2" stroke-miterlimit="10"/>
<path d="M273.039 255.407V243.489" stroke="white" stroke-opacity="0.2" stroke-miterlimit="10"/>
<path d="M288.211 275.989V218.031" stroke="white" stroke-opacity="0.2" stroke-miterlimit="10"/>
<path d="M106.199 237.531V223.464" stroke="white" stroke-opacity="0.2" stroke-miterlimit="10"/>
<g filter="url(#filter5_di_1804_8829)">
<path d="M247.383 202.559V196.607C247.383 195.608 246.573 194.798 245.573 194.798C244.574 194.798 243.764 195.608 243.764 196.607V202.559C243.764 203.558 244.574 204.368 245.573 204.368C246.573 204.368 247.383 203.558 247.383 202.559Z" fill="#D9D9D9" fill-opacity="0.1" shape-rendering="crispEdges"/>
</g>
<g filter="url(#filter6_di_1804_8829)">
<path d="M238.948 123.734H155.699C152.379 123.734 149.688 126.425 149.688 129.745V138.357C149.688 141.677 152.379 144.369 155.699 144.369H238.948C242.269 144.369 244.96 141.677 244.96 138.357V129.745C244.96 126.425 242.269 123.734 238.948 123.734Z" fill="#D9D9D9" fill-opacity="0.1" shape-rendering="crispEdges"/>
</g>
<g filter="url(#filter7_di_1804_8829)">
<path d="M247.383 259.023V253.072C247.383 252.072 246.573 251.262 245.573 251.262C244.574 251.262 243.764 252.072 243.764 253.072V259.023C243.764 260.022 244.574 260.833 245.573 260.833C246.573 260.833 247.383 260.022 247.383 259.023Z" fill="#D9D9D9" fill-opacity="0.1" shape-rendering="crispEdges"/>
</g>
<g filter="url(#filter8_di_1804_8829)">
<path d="M150.555 259.023V253.072C150.555 252.072 149.745 251.262 148.745 251.262C147.746 251.262 146.936 252.072 146.936 253.072V259.023C146.936 260.022 147.746 260.833 148.745 260.833C149.745 260.833 150.555 260.022 150.555 259.023Z" fill="#D9D9D9" fill-opacity="0.1" shape-rendering="crispEdges"/>
</g>
<g filter="url(#filter9_di_1804_8829)">
<path d="M150.03 147.184V141.233C150.03 140.233 149.219 139.423 148.22 139.423C147.22 139.423 146.41 140.233 146.41 141.233V147.184C146.41 148.184 147.22 148.994 148.22 148.994C149.219 148.994 150.03 148.184 150.03 147.184Z" fill="#D9D9D9" fill-opacity="0.1" shape-rendering="crispEdges"/>
</g>
<g filter="url(#filter10_di_1804_8829)">
<path d="M150.03 231.149V225.198C150.03 224.198 149.219 223.388 148.22 223.388C147.22 223.388 146.41 224.198 146.41 225.198V231.149C146.41 232.148 147.22 232.959 148.22 232.959C149.219 232.959 150.03 232.148 150.03 231.149Z" fill="#D9D9D9" fill-opacity="0.1" shape-rendering="crispEdges"/>
</g>
<g filter="url(#filter11_di_1804_8829)">
<path d="M150.03 202.498V196.546C150.03 195.547 149.219 194.737 148.22 194.737C147.22 194.737 146.41 195.547 146.41 196.546V202.498C146.41 203.497 147.22 204.307 148.22 204.307C149.219 204.307 150.03 203.497 150.03 202.498Z" fill="#D9D9D9" fill-opacity="0.1" shape-rendering="crispEdges"/>
</g>
<g filter="url(#filter12_di_1804_8829)">
<path d="M248.313 147.184V141.233C248.313 140.233 247.503 139.423 246.503 139.423C245.504 139.423 244.693 140.233 244.693 141.233V147.184C244.693 148.184 245.504 148.994 246.503 148.994C247.503 148.994 248.313 148.184 248.313 147.184Z" fill="#D9D9D9" fill-opacity="0.1" shape-rendering="crispEdges"/>
</g>
<g filter="url(#filter13_di_1804_8829)">
<path d="M248.313 231.149V225.198C248.313 224.198 247.503 223.388 246.503 223.388C245.504 223.388 244.693 224.198 244.693 225.198V231.149C244.693 232.148 245.504 232.959 246.503 232.959C247.503 232.959 248.313 232.148 248.313 231.149Z" fill="#D9D9D9" fill-opacity="0.1" shape-rendering="crispEdges"/>
</g>
<g filter="url(#filter14_di_1804_8829)">
<path d="M150.03 174.791V168.84C150.03 167.841 149.219 167.03 148.22 167.03C147.22 167.03 146.41 167.841 146.41 168.84V174.791C146.41 175.791 147.22 176.601 148.22 176.601C149.219 176.601 150.03 175.791 150.03 174.791Z" fill="#D9D9D9" fill-opacity="0.1" shape-rendering="crispEdges"/>
</g>
<g filter="url(#filter15_di_1804_8829)">
<path d="M248.313 174.791V168.84C248.313 167.841 247.503 167.03 246.503 167.03C245.504 167.03 244.693 167.841 244.693 168.84V174.791C244.693 175.791 245.504 176.601 246.503 176.601C247.503 176.601 248.313 175.791 248.313 174.791Z" fill="#D9D9D9" fill-opacity="0.1" shape-rendering="crispEdges"/>
</g>
<path d="M244.96 134.127H149.688V154.762H244.96V134.127Z" fill="white" fill-opacity="0.1" stroke="white" stroke-opacity="0.2" stroke-miterlimit="10"/>
<path d="M175.282 139.393H169.842V149.497H175.282V139.393Z" fill="#1A8EF7" fill-opacity="0.41" stroke="white" stroke-opacity="0.2" stroke-miterlimit="10"/>
<path d="M166.939 139.393H161.498V149.497H166.939V139.393Z" fill="#1A8EF7" fill-opacity="0.41" stroke="white" stroke-opacity="0.2" stroke-miterlimit="10"/>
<path d="M158.603 139.393H154.268V149.497H158.603V139.393Z" fill="#1A8EF7" fill-opacity="0.41" stroke="white" stroke-opacity="0.2" stroke-miterlimit="10"/>
<path d="M183.626 139.393H178.186V149.497H183.626V139.393Z" fill="#1A8EF7" fill-opacity="0.41" stroke="white" stroke-opacity="0.2" stroke-miterlimit="10"/>
<path d="M219.92 139.393H186.521V149.497H219.92V139.393Z" fill="#1A8EF7" fill-opacity="0.41" stroke="white" stroke-opacity="0.2" stroke-miterlimit="10"/>
<path d="M228.82 146.548C230.226 146.548 231.366 145.408 231.366 144.003C231.366 142.597 230.226 141.458 228.82 141.458C227.415 141.458 226.275 142.597 226.275 144.003C226.275 145.408 227.415 146.548 228.82 146.548Z" fill="white" fill-opacity="0.1" stroke="white" stroke-opacity="0.2" stroke-miterlimit="10"/>
<path d="M241.34 144.018C241.34 143.513 241.19 143.019 240.909 142.599C240.628 142.179 240.229 141.852 239.762 141.659C239.295 141.466 238.782 141.416 238.286 141.515C237.791 141.614 237.336 141.858 236.979 142.216C236.623 142.573 236.38 143.029 236.282 143.525C236.185 144.02 236.237 144.534 236.431 145C236.625 145.466 236.954 145.865 237.374 146.144C237.795 146.424 238.289 146.572 238.795 146.571C239.47 146.569 240.118 146.299 240.595 145.82C241.072 145.342 241.34 144.694 241.34 144.018Z" fill="#1A8EF7" fill-opacity="0.41" stroke="white" stroke-opacity="0.2" stroke-miterlimit="10"/>
<path d="M213.961 146.548C215.367 146.548 216.506 145.408 216.506 144.003C216.506 142.597 215.367 141.458 213.961 141.458C212.555 141.458 211.416 142.597 211.416 144.003C211.416 145.408 212.555 146.548 213.961 146.548Z" fill="white" fill-opacity="0.1" stroke="white" stroke-opacity="0.2" stroke-miterlimit="10"/>
<g filter="url(#filter16_di_1804_8829)">
<path d="M237.808 154.762H156.831C154.88 154.762 153.299 156.343 153.299 158.294C153.299 160.245 154.88 161.826 156.831 161.826H237.808C239.759 161.826 241.34 160.245 241.34 158.294C241.34 156.343 239.759 154.762 237.808 154.762Z" fill="#D9D9D9" fill-opacity="0.1" shape-rendering="crispEdges"/>
</g>
<path d="M244.96 161.834H149.688V182.469H244.96V161.834Z" fill="white" fill-opacity="0.1" stroke="white" stroke-opacity="0.2" stroke-miterlimit="10"/>
<path d="M166.939 167.099H161.498V177.203H166.939V167.099Z" fill="#1A8EF7" fill-opacity="0.41" stroke="white" stroke-opacity="0.2" stroke-miterlimit="10"/>
<path d="M183.626 167.099H178.186V177.203H183.626V167.099Z" fill="#1A8EF7" fill-opacity="0.41" stroke="white" stroke-opacity="0.2" stroke-miterlimit="10"/>
<path d="M175.282 167.099H169.842V177.203H175.282V167.099Z" fill="#1A8EF7" fill-opacity="0.41" stroke="white" stroke-opacity="0.2" stroke-miterlimit="10"/>
<path d="M158.603 167.099H154.268V177.203H158.603V167.099Z" fill="#1A8EF7" fill-opacity="0.41" stroke="white" stroke-opacity="0.2" stroke-miterlimit="10"/>
<path d="M219.92 167.099H186.521V177.203H219.92V167.099Z" fill="#1A8EF7" fill-opacity="0.41" stroke="white" stroke-opacity="0.2" stroke-miterlimit="10"/>
<path d="M228.82 174.254C230.226 174.254 231.366 173.115 231.366 171.709C231.366 170.303 230.226 169.164 228.82 169.164C227.415 169.164 226.275 170.303 226.275 171.709C226.275 173.115 227.415 174.254 228.82 174.254Z" fill="#1A8EF7" fill-opacity="0.41" stroke="white" stroke-opacity="0.2" stroke-miterlimit="10"/>
<path d="M241.34 171.709C241.341 171.204 241.193 170.709 240.913 170.288C240.633 169.867 240.234 169.539 239.767 169.345C239.301 169.15 238.787 169.099 238.291 169.197C237.795 169.296 237.34 169.539 236.982 169.896C236.625 170.254 236.381 170.709 236.283 171.205C236.185 171.701 236.236 172.215 236.43 172.682C236.624 173.149 236.953 173.547 237.374 173.827C237.795 174.107 238.289 174.256 238.795 174.254C239.47 174.254 240.117 173.986 240.594 173.509C241.072 173.031 241.34 172.384 241.34 171.709Z" fill="white" fill-opacity="0.1" stroke="white" stroke-opacity="0.2" stroke-miterlimit="10"/>
<path d="M213.961 174.254C215.367 174.254 216.506 173.115 216.506 171.709C216.506 170.303 215.367 169.164 213.961 169.164C212.555 169.164 211.416 170.303 211.416 171.709C211.416 173.115 212.555 174.254 213.961 174.254Z" fill="white" fill-opacity="0.1" stroke="white" stroke-opacity="0.2" stroke-miterlimit="10"/>
<g filter="url(#filter17_di_1804_8829)">
<path d="M237.808 182.469H156.831C154.88 182.469 153.299 184.05 153.299 186C153.299 187.951 154.88 189.532 156.831 189.532H237.808C239.759 189.532 241.34 187.951 241.34 186C241.34 184.05 239.759 182.469 237.808 182.469Z" fill="#D9D9D9" fill-opacity="0.1" shape-rendering="crispEdges"/>
</g>
<path d="M244.96 189.532H149.688V210.167H244.96V189.532Z" fill="white" fill-opacity="0.1" stroke="white" stroke-opacity="0.2" stroke-miterlimit="10"/>
<path d="M175.282 194.798H169.842V204.902H175.282V194.798Z" fill="#1A8EF7" fill-opacity="0.41" stroke="white" stroke-opacity="0.2" stroke-miterlimit="10"/>
<path d="M183.626 194.798H178.186V204.902H183.626V194.798Z" fill="#1A8EF7" fill-opacity="0.41" stroke="white" stroke-opacity="0.2" stroke-miterlimit="10"/>
<path d="M166.939 194.798H161.498V204.902H166.939V194.798Z" fill="#1A8EF7" fill-opacity="0.41" stroke="white" stroke-opacity="0.2" stroke-miterlimit="10"/>
<path d="M219.92 194.798H186.521V204.902H219.92V194.798Z" fill="#1A8EF7" fill-opacity="0.41" stroke="white" stroke-opacity="0.2" stroke-miterlimit="10"/>
<path d="M158.603 194.798H154.268V204.902H158.603V194.798Z" fill="#1A8EF7" fill-opacity="0.41" stroke="white" stroke-opacity="0.2" stroke-miterlimit="10"/>
<path d="M228.82 201.953C230.226 201.953 231.366 200.813 231.366 199.408C231.366 198.002 230.226 196.863 228.82 196.863C227.415 196.863 226.275 198.002 226.275 199.408C226.275 200.813 227.415 201.953 228.82 201.953Z" fill="white" fill-opacity="0.1" stroke="white" stroke-opacity="0.2" stroke-miterlimit="10"/>
<path d="M241.34 199.408C241.34 198.903 241.19 198.409 240.909 197.989C240.628 197.569 240.229 197.242 239.762 197.049C239.295 196.856 238.782 196.806 238.286 196.905C237.791 197.004 237.336 197.248 236.979 197.605C236.623 197.963 236.38 198.419 236.282 198.914C236.185 199.41 236.237 199.924 236.431 200.39C236.625 200.856 236.954 201.254 237.374 201.534C237.795 201.814 238.289 201.962 238.795 201.96C239.47 201.958 240.118 201.689 240.595 201.21C241.072 200.732 241.34 200.083 241.34 199.408Z" fill="#1A8EF7" fill-opacity="0.41" stroke="white" stroke-opacity="0.2" stroke-miterlimit="10"/>
<path d="M213.961 201.953C215.367 201.953 216.506 200.813 216.506 199.408C216.506 198.002 215.367 196.863 213.961 196.863C212.555 196.863 211.416 198.002 211.416 199.408C211.416 200.813 212.555 201.953 213.961 201.953Z" fill="white" fill-opacity="0.1" stroke="white" stroke-opacity="0.2" stroke-miterlimit="10"/>
<g filter="url(#filter18_di_1804_8829)">
<path d="M237.808 210.167H156.831C154.88 210.167 153.299 211.748 153.299 213.699C153.299 215.65 154.88 217.231 156.831 217.231H237.808C239.759 217.231 241.34 215.65 241.34 213.699C241.34 211.748 239.759 210.167 237.808 210.167Z" fill="#D9D9D9" fill-opacity="0.1" shape-rendering="crispEdges"/>
</g>
<path d="M244.96 217.239H149.688V237.874H244.96V217.239Z" fill="white" fill-opacity="0.1" stroke="white" stroke-opacity="0.2" stroke-miterlimit="10"/>
<path d="M183.626 222.504H178.186V232.608H183.626V222.504Z" fill="#1A8EF7" fill-opacity="0.41" stroke="white" stroke-opacity="0.2" stroke-miterlimit="10"/>
<path d="M166.939 222.504H161.498V232.608H166.939V222.504Z" fill="#1A8EF7" fill-opacity="0.41" stroke="white" stroke-opacity="0.2" stroke-miterlimit="10"/>
<path d="M175.282 222.504H169.842V232.608H175.282V222.504Z" fill="#1A8EF7" fill-opacity="0.41" stroke="white" stroke-opacity="0.2" stroke-miterlimit="10"/>
<path d="M158.603 222.504H154.268V232.608H158.603V222.504Z" fill="#1A8EF7" fill-opacity="0.41" stroke="white" stroke-opacity="0.2" stroke-miterlimit="10"/>
<path d="M219.92 222.504H186.521V232.608H219.92V222.504Z" fill="#1A8EF7" fill-opacity="0.41" stroke="white" stroke-opacity="0.2" stroke-miterlimit="10"/>
<path d="M228.82 229.659C230.226 229.659 231.366 228.52 231.366 227.114C231.366 225.708 230.226 224.569 228.82 224.569C227.415 224.569 226.275 225.708 226.275 227.114C226.275 228.52 227.415 229.659 228.82 229.659Z" fill="#1A8EF7" fill-opacity="0.41" stroke="white" stroke-opacity="0.2" stroke-miterlimit="10"/>
<path d="M241.34 227.114C241.341 226.609 241.193 226.114 240.913 225.693C240.633 225.272 240.234 224.944 239.767 224.75C239.301 224.555 238.787 224.504 238.291 224.602C237.795 224.701 237.34 224.944 236.982 225.301C236.625 225.659 236.381 226.114 236.283 226.61C236.185 227.106 236.236 227.62 236.43 228.087C236.624 228.554 236.953 228.952 237.374 229.232C237.795 229.512 238.289 229.661 238.795 229.659C239.47 229.659 240.117 229.391 240.594 228.914C241.072 228.436 241.34 227.789 241.34 227.114Z" fill="white" fill-opacity="0.1" stroke="white" stroke-opacity="0.2" stroke-miterlimit="10"/>
<path d="M213.961 229.659C215.367 229.659 216.506 228.52 216.506 227.114C216.506 225.708 215.367 224.569 213.961 224.569C212.555 224.569 211.416 225.708 211.416 227.114C211.416 228.52 212.555 229.659 213.961 229.659Z" fill="white" fill-opacity="0.1" stroke="white" stroke-opacity="0.2" stroke-miterlimit="10"/>
<g filter="url(#filter19_di_1804_8829)">
<path d="M237.808 237.874H156.831C154.88 237.874 153.299 239.455 153.299 241.405C153.299 243.356 154.88 244.937 156.831 244.937H237.808C239.759 244.937 241.34 243.356 241.34 241.405C241.34 239.455 239.759 237.874 237.808 237.874Z" fill="#D9D9D9" fill-opacity="0.1" shape-rendering="crispEdges"/>
</g>
<path d="M244.96 244.937H149.688V265.572H244.96V244.937Z" fill="white" fill-opacity="0.1" stroke="white" stroke-opacity="0.2" stroke-miterlimit="10"/>
<path d="M166.939 250.203H161.498V260.307H166.939V250.203Z" fill="#1A8EF7" fill-opacity="0.41" stroke="white" stroke-opacity="0.2" stroke-miterlimit="10"/>
<path d="M175.282 250.203H169.842V260.307H175.282V250.203Z" fill="#1A8EF7" fill-opacity="0.41" stroke="white" stroke-opacity="0.2" stroke-miterlimit="10"/>
<path d="M183.626 250.203H178.186V260.307H183.626V250.203Z" fill="#1A8EF7" fill-opacity="0.41" stroke="white" stroke-opacity="0.2" stroke-miterlimit="10"/>
<path d="M158.603 250.203H154.268V260.307H158.603V250.203Z" fill="#1A8EF7" fill-opacity="0.41" stroke="white" stroke-opacity="0.2" stroke-miterlimit="10"/>
<path d="M219.92 250.203H186.521V260.307H219.92V250.203Z" fill="#1A8EF7" fill-opacity="0.41" stroke="white" stroke-opacity="0.2" stroke-miterlimit="10"/>
<path d="M228.82 257.358C230.226 257.358 231.366 256.218 231.366 254.813C231.366 253.407 230.226 252.268 228.82 252.268C227.415 252.268 226.275 253.407 226.275 254.813C226.275 256.218 227.415 257.358 228.82 257.358Z" fill="white" fill-opacity="0.1" stroke="white" stroke-opacity="0.2" stroke-miterlimit="10"/>
<path d="M241.34 254.813C241.34 254.308 241.19 253.814 240.909 253.394C240.628 252.974 240.229 252.647 239.762 252.454C239.295 252.261 238.782 252.211 238.286 252.31C237.791 252.409 237.336 252.653 236.979 253.01C236.623 253.368 236.38 253.824 236.282 254.319C236.185 254.815 236.237 255.329 236.431 255.795C236.625 256.261 236.954 256.659 237.374 256.939C237.795 257.219 238.289 257.367 238.795 257.366C239.47 257.363 240.118 257.094 240.595 256.615C241.072 256.137 241.34 255.489 241.34 254.813Z" fill="#1A8EF7" fill-opacity="0.41" stroke="white" stroke-opacity="0.2" stroke-miterlimit="10"/>
<path d="M213.961 257.358C215.367 257.358 216.506 256.218 216.506 254.813C216.506 253.407 215.367 252.268 213.961 252.268C212.555 252.268 211.416 253.407 211.416 254.813C211.416 256.218 212.555 257.358 213.961 257.358Z" fill="white" fill-opacity="0.1" stroke="white" stroke-opacity="0.2" stroke-miterlimit="10"/>
<defs>
<filter id="filter0_di_1804_8829" x="173.722" y="83.1573" width="48.6376" height="44.8274" filterUnits="userSpaceOnUse" color-interpolation-filters="sRGB">
<feFlood flood-opacity="0" result="BackgroundImageFix"/>
<feColorMatrix in="SourceAlpha" type="matrix" values="0 0 0 0 0 0 0 0 0 0 0 0 0 0 0 0 0 0 127 0" result="hardAlpha"/>
<feOffset dy="6.01193"/>
<feGaussianBlur stdDeviation="6.01193"/>
<feComposite in2="hardAlpha" operator="out"/>
<feColorMatrix type="matrix" values="0 0 0 0 0 0 0 0 0 0 0 0 0 0 0 0 0 0 0.1 0"/>
<feBlend mode="normal" in2="BackgroundImageFix" result="effect1_dropShadow_1804_8829"/>
<feBlend mode="normal" in="SourceGraphic" in2="effect1_dropShadow_1804_8829" result="shape"/>
<feColorMatrix in="SourceAlpha" type="matrix" values="0 0 0 0 0 0 0 0 0 0 0 0 0 0 0 0 0 0 127 0" result="hardAlpha"/>
<feOffset/>
<feGaussianBlur stdDeviation="9.01789"/>
<feComposite in2="hardAlpha" operator="arithmetic" k2="-1" k3="1"/>
<feColorMatrix type="matrix" values="0 0 0 0 1 0 0 0 0 1 0 0 0 0 1 0 0 0 0.15 0"/>
<feBlend mode="normal" in2="shape" result="effect2_innerShadow_1804_8829"/>
</filter>
<filter id="filter1_di_1804_8829" x="263.63" y="185.73" width="48.6376" height="44.8274" filterUnits="userSpaceOnUse" color-interpolation-filters="sRGB">
<feFlood flood-opacity="0" result="BackgroundImageFix"/>
<feColorMatrix in="SourceAlpha" type="matrix" values="0 0 0 0 0 0 0 0 0 0 0 0 0 0 0 0 0 0 127 0" result="hardAlpha"/>
<feOffset dy="6.01193"/>
<feGaussianBlur stdDeviation="6.01193"/>
<feComposite in2="hardAlpha" operator="out"/>
<feColorMatrix type="matrix" values="0 0 0 0 0 0 0 0 0 0 0 0 0 0 0 0 0 0 0.1 0"/>
<feBlend mode="normal" in2="BackgroundImageFix" result="effect1_dropShadow_1804_8829"/>
<feBlend mode="normal" in="SourceGraphic" in2="effect1_dropShadow_1804_8829" result="shape"/>
<feColorMatrix in="SourceAlpha" type="matrix" values="0 0 0 0 0 0 0 0 0 0 0 0 0 0 0 0 0 0 127 0" result="hardAlpha"/>
<feOffset/>
<feGaussianBlur stdDeviation="9.01789"/>
<feComposite in2="hardAlpha" operator="arithmetic" k2="-1" k3="1"/>
<feColorMatrix type="matrix" values="0 0 0 0 1 0 0 0 0 1 0 0 0 0 1 0 0 0 0.15 0"/>
<feBlend mode="normal" in2="shape" result="effect2_innerShadow_1804_8829"/>
</filter>
<filter id="filter2_di_1804_8829" x="82.7379" y="185.73" width="48.6376" height="44.8274" filterUnits="userSpaceOnUse" color-interpolation-filters="sRGB">
<feFlood flood-opacity="0" result="BackgroundImageFix"/>
<feColorMatrix in="SourceAlpha" type="matrix" values="0 0 0 0 0 0 0 0 0 0 0 0 0 0 0 0 0 0 127 0" result="hardAlpha"/>
<feOffset dy="6.01193"/>
<feGaussianBlur stdDeviation="6.01193"/>
<feComposite in2="hardAlpha" operator="out"/>
<feColorMatrix type="matrix" values="0 0 0 0 0 0 0 0 0 0 0 0 0 0 0 0 0 0 0.1 0"/>
<feBlend mode="normal" in2="BackgroundImageFix" result="effect1_dropShadow_1804_8829"/>
<feBlend mode="normal" in="SourceGraphic" in2="effect1_dropShadow_1804_8829" result="shape"/>
<feColorMatrix in="SourceAlpha" type="matrix" values="0 0 0 0 0 0 0 0 0 0 0 0 0 0 0 0 0 0 127 0" result="hardAlpha"/>
<feOffset/>
<feGaussianBlur stdDeviation="9.01789"/>
<feComposite in2="hardAlpha" operator="arithmetic" k2="-1" k3="1"/>
<feColorMatrix type="matrix" values="0 0 0 0 1 0 0 0 0 1 0 0 0 0 1 0 0 0 0.15 0"/>
<feBlend mode="normal" in2="shape" result="effect2_innerShadow_1804_8829"/>
</filter>
<filter id="filter3_di_1804_8829" x="61.2574" y="241.768" width="269.731" height="100.857" filterUnits="userSpaceOnUse" color-interpolation-filters="sRGB">
<feFlood flood-opacity="0" result="BackgroundImageFix"/>
<feColorMatrix in="SourceAlpha" type="matrix" values="0 0 0 0 0 0 0 0 0 0 0 0 0 0 0 0 0 0 127 0" result="hardAlpha"/>
<feOffset dy="6.01193"/>
<feGaussianBlur stdDeviation="6.01193"/>
<feComposite in2="hardAlpha" operator="out"/>
<feColorMatrix type="matrix" values="0 0 0 0 0 0 0 0 0 0 0 0 0 0 0 0 0 0 0.1 0"/>
<feBlend mode="normal" in2="BackgroundImageFix" result="effect1_dropShadow_1804_8829"/>
<feBlend mode="normal" in="SourceGraphic" in2="effect1_dropShadow_1804_8829" result="shape"/>
<feColorMatrix in="SourceAlpha" type="matrix" values="0 0 0 0 0 0 0 0 0 0 0 0 0 0 0 0 0 0 127 0" result="hardAlpha"/>
<feOffset/>
<feGaussianBlur stdDeviation="9.01789"/>
<feComposite in2="hardAlpha" operator="arithmetic" k2="-1" k3="1"/>
<feColorMatrix type="matrix" values="0 0 0 0 1 0 0 0 0 1 0 0 0 0 1 0 0 0 0.15 0"/>
<feBlend mode="normal" in2="shape" result="effect2_innerShadow_1804_8829"/>
</filter>
<filter id="filter4_di_1804_8829" x="73.4117" y="242.103" width="247.893" height="92.0334" filterUnits="userSpaceOnUse" color-interpolation-filters="sRGB">
<feFlood flood-opacity="0" result="BackgroundImageFix"/>
<feColorMatrix in="SourceAlpha" type="matrix" values="0 0 0 0 0 0 0 0 0 0 0 0 0 0 0 0 0 0 127 0" result="hardAlpha"/>
<feOffset dy="6.01193"/>
<feGaussianBlur stdDeviation="6.01193"/>
<feComposite in2="hardAlpha" operator="out"/>
<feColorMatrix type="matrix" values="0 0 0 0 0 0 0 0 0 0 0 0 0 0 0 0 0 0 0.1 0"/>
<feBlend mode="normal" in2="BackgroundImageFix" result="effect1_dropShadow_1804_8829"/>
<feBlend mode="normal" in="SourceGraphic" in2="effect1_dropShadow_1804_8829" result="shape"/>
<feColorMatrix in="SourceAlpha" type="matrix" values="0 0 0 0 0 0 0 0 0 0 0 0 0 0 0 0 0 0 127 0" result="hardAlpha"/>
<feOffset/>
<feGaussianBlur stdDeviation="9.01789"/>
<feComposite in2="hardAlpha" operator="arithmetic" k2="-1" k3="1"/>
<feColorMatrix type="matrix" values="0 0 0 0 1 0 0 0 0 1 0 0 0 0 1 0 0 0 0.15 0"/>
<feBlend mode="normal" in2="shape" result="effect2_innerShadow_1804_8829"/>
</filter>
<filter id="filter5_di_1804_8829" x="231.74" y="188.786" width="27.6669" height="33.6184" filterUnits="userSpaceOnUse" color-interpolation-filters="sRGB">
<feFlood flood-opacity="0" result="BackgroundImageFix"/>
<feColorMatrix in="SourceAlpha" type="matrix" values="0 0 0 0 0 0 0 0 0 0 0 0 0 0 0 0 0 0 127 0" result="hardAlpha"/>
<feOffset dy="6.01193"/>
<feGaussianBlur stdDeviation="6.01193"/>
<feComposite in2="hardAlpha" operator="out"/>
<feColorMatrix type="matrix" values="0 0 0 0 0 0 0 0 0 0 0 0 0 0 0 0 0 0 0.1 0"/>
<feBlend mode="normal" in2="BackgroundImageFix" result="effect1_dropShadow_1804_8829"/>
<feBlend mode="normal" in="SourceGraphic" in2="effect1_dropShadow_1804_8829" result="shape"/>
<feColorMatrix in="SourceAlpha" type="matrix" values="0 0 0 0 0 0 0 0 0 0 0 0 0 0 0 0 0 0 127 0" result="hardAlpha"/>
<feOffset/>
<feGaussianBlur stdDeviation="9.01789"/>
<feComposite in2="hardAlpha" operator="arithmetic" k2="-1" k3="1"/>
<feColorMatrix type="matrix" values="0 0 0 0 1 0 0 0 0 1 0 0 0 0 1 0 0 0 0.15 0"/>
<feBlend mode="normal" in2="shape" result="effect2_innerShadow_1804_8829"/>
</filter>
<filter id="filter6_di_1804_8829" x="137.664" y="117.722" width="119.321" height="44.6827" filterUnits="userSpaceOnUse" color-interpolation-filters="sRGB">
<feFlood flood-opacity="0" result="BackgroundImageFix"/>
<feColorMatrix in="SourceAlpha" type="matrix" values="0 0 0 0 0 0 0 0 0 0 0 0 0 0 0 0 0 0 127 0" result="hardAlpha"/>
<feOffset dy="6.01193"/>
<feGaussianBlur stdDeviation="6.01193"/>
<feComposite in2="hardAlpha" operator="out"/>
<feColorMatrix type="matrix" values="0 0 0 0 0 0 0 0 0 0 0 0 0 0 0 0 0 0 0.1 0"/>
<feBlend mode="normal" in2="BackgroundImageFix" result="effect1_dropShadow_1804_8829"/>
<feBlend mode="normal" in="SourceGraphic" in2="effect1_dropShadow_1804_8829" result="shape"/>
<feColorMatrix in="SourceAlpha" type="matrix" values="0 0 0 0 0 0 0 0 0 0 0 0 0 0 0 0 0 0 127 0" result="hardAlpha"/>
<feOffset/>
<feGaussianBlur stdDeviation="9.01789"/>
<feComposite in2="hardAlpha" operator="arithmetic" k2="-1" k3="1"/>
<feColorMatrix type="matrix" values="0 0 0 0 1 0 0 0 0 1 0 0 0 0 1 0 0 0 0.15 0"/>
<feBlend mode="normal" in2="shape" result="effect2_innerShadow_1804_8829"/>
</filter>
<filter id="filter7_di_1804_8829" x="231.74" y="245.25" width="27.6669" height="33.6184" filterUnits="userSpaceOnUse" color-interpolation-filters="sRGB">
<feFlood flood-opacity="0" result="BackgroundImageFix"/>
<feColorMatrix in="SourceAlpha" type="matrix" values="0 0 0 0 0 0 0 0 0 0 0 0 0 0 0 0 0 0 127 0" result="hardAlpha"/>
<feOffset dy="6.01193"/>
<feGaussianBlur stdDeviation="6.01193"/>
<feComposite in2="hardAlpha" operator="out"/>
<feColorMatrix type="matrix" values="0 0 0 0 0 0 0 0 0 0 0 0 0 0 0 0 0 0 0.1 0"/>
<feBlend mode="normal" in2="BackgroundImageFix" result="effect1_dropShadow_1804_8829"/>
<feBlend mode="normal" in="SourceGraphic" in2="effect1_dropShadow_1804_8829" result="shape"/>
<feColorMatrix in="SourceAlpha" type="matrix" values="0 0 0 0 0 0 0 0 0 0 0 0 0 0 0 0 0 0 127 0" result="hardAlpha"/>
<feOffset/>
<feGaussianBlur stdDeviation="9.01789"/>
<feComposite in2="hardAlpha" operator="arithmetic" k2="-1" k3="1"/>
<feColorMatrix type="matrix" values="0 0 0 0 1 0 0 0 0 1 0 0 0 0 1 0 0 0 0.15 0"/>
<feBlend mode="normal" in2="shape" result="effect2_innerShadow_1804_8829"/>
</filter>
<filter id="filter8_di_1804_8829" x="134.912" y="245.25" width="27.6669" height="33.6184" filterUnits="userSpaceOnUse" color-interpolation-filters="sRGB">
<feFlood flood-opacity="0" result="BackgroundImageFix"/>
<feColorMatrix in="SourceAlpha" type="matrix" values="0 0 0 0 0 0 0 0 0 0 0 0 0 0 0 0 0 0 127 0" result="hardAlpha"/>
<feOffset dy="6.01193"/>
<feGaussianBlur stdDeviation="6.01193"/>
<feComposite in2="hardAlpha" operator="out"/>
<feColorMatrix type="matrix" values="0 0 0 0 0 0 0 0 0 0 0 0 0 0 0 0 0 0 0.1 0"/>
<feBlend mode="normal" in2="BackgroundImageFix" result="effect1_dropShadow_1804_8829"/>
<feBlend mode="normal" in="SourceGraphic" in2="effect1_dropShadow_1804_8829" result="shape"/>
<feColorMatrix in="SourceAlpha" type="matrix" values="0 0 0 0 0 0 0 0 0 0 0 0 0 0 0 0 0 0 127 0" result="hardAlpha"/>
<feOffset/>
<feGaussianBlur stdDeviation="9.01789"/>
<feComposite in2="hardAlpha" operator="arithmetic" k2="-1" k3="1"/>
<feColorMatrix type="matrix" values="0 0 0 0 1 0 0 0 0 1 0 0 0 0 1 0 0 0 0.15 0"/>
<feBlend mode="normal" in2="shape" result="effect2_innerShadow_1804_8829"/>
</filter>
<filter id="filter9_di_1804_8829" x="134.386" y="133.411" width="27.6669" height="33.6184" filterUnits="userSpaceOnUse" color-interpolation-filters="sRGB">
<feFlood flood-opacity="0" result="BackgroundImageFix"/>
<feColorMatrix in="SourceAlpha" type="matrix" values="0 0 0 0 0 0 0 0 0 0 0 0 0 0 0 0 0 0 127 0" result="hardAlpha"/>
<feOffset dy="6.01193"/>
<feGaussianBlur stdDeviation="6.01193"/>
<feComposite in2="hardAlpha" operator="out"/>
<feColorMatrix type="matrix" values="0 0 0 0 0 0 0 0 0 0 0 0 0 0 0 0 0 0 0.1 0"/>
<feBlend mode="normal" in2="BackgroundImageFix" result="effect1_dropShadow_1804_8829"/>
<feBlend mode="normal" in="SourceGraphic" in2="effect1_dropShadow_1804_8829" result="shape"/>
<feColorMatrix in="SourceAlpha" type="matrix" values="0 0 0 0 0 0 0 0 0 0 0 0 0 0 0 0 0 0 127 0" result="hardAlpha"/>
<feOffset/>
<feGaussianBlur stdDeviation="9.01789"/>
<feComposite in2="hardAlpha" operator="arithmetic" k2="-1" k3="1"/>
<feColorMatrix type="matrix" values="0 0 0 0 1 0 0 0 0 1 0 0 0 0 1 0 0 0 0.15 0"/>
<feBlend mode="normal" in2="shape" result="effect2_innerShadow_1804_8829"/>
</filter>
<filter id="filter10_di_1804_8829" x="134.386" y="217.376" width="27.6669" height="33.6184" filterUnits="userSpaceOnUse" color-interpolation-filters="sRGB">
<feFlood flood-opacity="0" result="BackgroundImageFix"/>
<feColorMatrix in="SourceAlpha" type="matrix" values="0 0 0 0 0 0 0 0 0 0 0 0 0 0 0 0 0 0 127 0" result="hardAlpha"/>
<feOffset dy="6.01193"/>
<feGaussianBlur stdDeviation="6.01193"/>
<feComposite in2="hardAlpha" operator="out"/>
<feColorMatrix type="matrix" values="0 0 0 0 0 0 0 0 0 0 0 0 0 0 0 0 0 0 0.1 0"/>
<feBlend mode="normal" in2="BackgroundImageFix" result="effect1_dropShadow_1804_8829"/>
<feBlend mode="normal" in="SourceGraphic" in2="effect1_dropShadow_1804_8829" result="shape"/>
<feColorMatrix in="SourceAlpha" type="matrix" values="0 0 0 0 0 0 0 0 0 0 0 0 0 0 0 0 0 0 127 0" result="hardAlpha"/>
<feOffset/>
<feGaussianBlur stdDeviation="9.01789"/>
<feComposite in2="hardAlpha" operator="arithmetic" k2="-1" k3="1"/>
<feColorMatrix type="matrix" values="0 0 0 0 1 0 0 0 0 1 0 0 0 0 1 0 0 0 0.15 0"/>
<feBlend mode="normal" in2="shape" result="effect2_innerShadow_1804_8829"/>
</filter>
<filter id="filter11_di_1804_8829" x="134.386" y="188.725" width="27.6669" height="33.6184" filterUnits="userSpaceOnUse" color-interpolation-filters="sRGB">
<feFlood flood-opacity="0" result="BackgroundImageFix"/>
<feColorMatrix in="SourceAlpha" type="matrix" values="0 0 0 0 0 0 0 0 0 0 0 0 0 0 0 0 0 0 127 0" result="hardAlpha"/>
<feOffset dy="6.01193"/>
<feGaussianBlur stdDeviation="6.01193"/>
<feComposite in2="hardAlpha" operator="out"/>
<feColorMatrix type="matrix" values="0 0 0 0 0 0 0 0 0 0 0 0 0 0 0 0 0 0 0.1 0"/>
<feBlend mode="normal" in2="BackgroundImageFix" result="effect1_dropShadow_1804_8829"/>
<feBlend mode="normal" in="SourceGraphic" in2="effect1_dropShadow_1804_8829" result="shape"/>
<feColorMatrix in="SourceAlpha" type="matrix" values="0 0 0 0 0 0 0 0 0 0 0 0 0 0 0 0 0 0 127 0" result="hardAlpha"/>
<feOffset/>
<feGaussianBlur stdDeviation="9.01789"/>
<feComposite in2="hardAlpha" operator="arithmetic" k2="-1" k3="1"/>
<feColorMatrix type="matrix" values="0 0 0 0 1 0 0 0 0 1 0 0 0 0 1 0 0 0 0.15 0"/>
<feBlend mode="normal" in2="shape" result="effect2_innerShadow_1804_8829"/>
</filter>
<filter id="filter12_di_1804_8829" x="232.67" y="133.411" width="27.6669" height="33.6184" filterUnits="userSpaceOnUse" color-interpolation-filters="sRGB">
<feFlood flood-opacity="0" result="BackgroundImageFix"/>
<feColorMatrix in="SourceAlpha" type="matrix" values="0 0 0 0 0 0 0 0 0 0 0 0 0 0 0 0 0 0 127 0" result="hardAlpha"/>
<feOffset dy="6.01193"/>
<feGaussianBlur stdDeviation="6.01193"/>
<feComposite in2="hardAlpha" operator="out"/>
<feColorMatrix type="matrix" values="0 0 0 0 0 0 0 0 0 0 0 0 0 0 0 0 0 0 0.1 0"/>
<feBlend mode="normal" in2="BackgroundImageFix" result="effect1_dropShadow_1804_8829"/>
<feBlend mode="normal" in="SourceGraphic" in2="effect1_dropShadow_1804_8829" result="shape"/>
<feColorMatrix in="SourceAlpha" type="matrix" values="0 0 0 0 0 0 0 0 0 0 0 0 0 0 0 0 0 0 127 0" result="hardAlpha"/>
<feOffset/>
<feGaussianBlur stdDeviation="9.01789"/>
<feComposite in2="hardAlpha" operator="arithmetic" k2="-1" k3="1"/>
<feColorMatrix type="matrix" values="0 0 0 0 1 0 0 0 0 1 0 0 0 0 1 0 0 0 0.15 0"/>
<feBlend mode="normal" in2="shape" result="effect2_innerShadow_1804_8829"/>
</filter>
<filter id="filter13_di_1804_8829" x="232.67" y="217.376" width="27.6669" height="33.6184" filterUnits="userSpaceOnUse" color-interpolation-filters="sRGB">
<feFlood flood-opacity="0" result="BackgroundImageFix"/>
<feColorMatrix in="SourceAlpha" type="matrix" values="0 0 0 0 0 0 0 0 0 0 0 0 0 0 0 0 0 0 127 0" result="hardAlpha"/>
<feOffset dy="6.01193"/>
<feGaussianBlur stdDeviation="6.01193"/>
<feComposite in2="hardAlpha" operator="out"/>
<feColorMatrix type="matrix" values="0 0 0 0 0 0 0 0 0 0 0 0 0 0 0 0 0 0 0.1 0"/>
<feBlend mode="normal" in2="BackgroundImageFix" result="effect1_dropShadow_1804_8829"/>
<feBlend mode="normal" in="SourceGraphic" in2="effect1_dropShadow_1804_8829" result="shape"/>
<feColorMatrix in="SourceAlpha" type="matrix" values="0 0 0 0 0 0 0 0 0 0 0 0 0 0 0 0 0 0 127 0" result="hardAlpha"/>
<feOffset/>
<feGaussianBlur stdDeviation="9.01789"/>
<feComposite in2="hardAlpha" operator="arithmetic" k2="-1" k3="1"/>
<feColorMatrix type="matrix" values="0 0 0 0 1 0 0 0 0 1 0 0 0 0 1 0 0 0 0.15 0"/>
<feBlend mode="normal" in2="shape" result="effect2_innerShadow_1804_8829"/>
</filter>
<filter id="filter14_di_1804_8829" x="134.386" y="161.018" width="27.6669" height="33.6184" filterUnits="userSpaceOnUse" color-interpolation-filters="sRGB">
<feFlood flood-opacity="0" result="BackgroundImageFix"/>
<feColorMatrix in="SourceAlpha" type="matrix" values="0 0 0 0 0 0 0 0 0 0 0 0 0 0 0 0 0 0 127 0" result="hardAlpha"/>
<feOffset dy="6.01193"/>
<feGaussianBlur stdDeviation="6.01193"/>
<feComposite in2="hardAlpha" operator="out"/>
<feColorMatrix type="matrix" values="0 0 0 0 0 0 0 0 0 0 0 0 0 0 0 0 0 0 0.1 0"/>
<feBlend mode="normal" in2="BackgroundImageFix" result="effect1_dropShadow_1804_8829"/>
<feBlend mode="normal" in="SourceGraphic" in2="effect1_dropShadow_1804_8829" result="shape"/>
<feColorMatrix in="SourceAlpha" type="matrix" values="0 0 0 0 0 0 0 0 0 0 0 0 0 0 0 0 0 0 127 0" result="hardAlpha"/>
<feOffset/>
<feGaussianBlur stdDeviation="9.01789"/>
<feComposite in2="hardAlpha" operator="arithmetic" k2="-1" k3="1"/>
<feColorMatrix type="matrix" values="0 0 0 0 1 0 0 0 0 1 0 0 0 0 1 0 0 0 0.15 0"/>
<feBlend mode="normal" in2="shape" result="effect2_innerShadow_1804_8829"/>
</filter>
<filter id="filter15_di_1804_8829" x="232.67" y="161.018" width="27.6669" height="33.6184" filterUnits="userSpaceOnUse" color-interpolation-filters="sRGB">
<feFlood flood-opacity="0" result="BackgroundImageFix"/>
<feColorMatrix in="SourceAlpha" type="matrix" values="0 0 0 0 0 0 0 0 0 0 0 0 0 0 0 0 0 0 127 0" result="hardAlpha"/>
<feOffset dy="6.01193"/>
<feGaussianBlur stdDeviation="6.01193"/>
<feComposite in2="hardAlpha" operator="out"/>
<feColorMatrix type="matrix" values="0 0 0 0 0 0 0 0 0 0 0 0 0 0 0 0 0 0 0.1 0"/>
<feBlend mode="normal" in2="BackgroundImageFix" result="effect1_dropShadow_1804_8829"/>
<feBlend mode="normal" in="SourceGraphic" in2="effect1_dropShadow_1804_8829" result="shape"/>
<feColorMatrix in="SourceAlpha" type="matrix" values="0 0 0 0 0 0 0 0 0 0 0 0 0 0 0 0 0 0 127 0" result="hardAlpha"/>
<feOffset/>
<feGaussianBlur stdDeviation="9.01789"/>
<feComposite in2="hardAlpha" operator="arithmetic" k2="-1" k3="1"/>
<feColorMatrix type="matrix" values="0 0 0 0 1 0 0 0 0 1 0 0 0 0 1 0 0 0 0.15 0"/>
<feBlend mode="normal" in2="shape" result="effect2_innerShadow_1804_8829"/>
</filter>
<filter id="filter16_di_1804_8829" x="141.275" y="148.75" width="112.089" height="31.1114" filterUnits="userSpaceOnUse" color-interpolation-filters="sRGB">
<feFlood flood-opacity="0" result="BackgroundImageFix"/>
<feColorMatrix in="SourceAlpha" type="matrix" values="0 0 0 0 0 0 0 0 0 0 0 0 0 0 0 0 0 0 127 0" result="hardAlpha"/>
<feOffset dy="6.01193"/>
<feGaussianBlur stdDeviation="6.01193"/>
<feComposite in2="hardAlpha" operator="out"/>
<feColorMatrix type="matrix" values="0 0 0 0 0 0 0 0 0 0 0 0 0 0 0 0 0 0 0.1 0"/>
<feBlend mode="normal" in2="BackgroundImageFix" result="effect1_dropShadow_1804_8829"/>
<feBlend mode="normal" in="SourceGraphic" in2="effect1_dropShadow_1804_8829" result="shape"/>
<feColorMatrix in="SourceAlpha" type="matrix" values="0 0 0 0 0 0 0 0 0 0 0 0 0 0 0 0 0 0 127 0" result="hardAlpha"/>
<feOffset/>
<feGaussianBlur stdDeviation="9.01789"/>
<feComposite in2="hardAlpha" operator="arithmetic" k2="-1" k3="1"/>
<feColorMatrix type="matrix" values="0 0 0 0 1 0 0 0 0 1 0 0 0 0 1 0 0 0 0.15 0"/>
<feBlend mode="normal" in2="shape" result="effect2_innerShadow_1804_8829"/>
</filter>
<filter id="filter17_di_1804_8829" x="141.275" y="176.457" width="112.089" height="31.1115" filterUnits="userSpaceOnUse" color-interpolation-filters="sRGB">
<feFlood flood-opacity="0" result="BackgroundImageFix"/>
<feColorMatrix in="SourceAlpha" type="matrix" values="0 0 0 0 0 0 0 0 0 0 0 0 0 0 0 0 0 0 127 0" result="hardAlpha"/>
<feOffset dy="6.01193"/>
<feGaussianBlur stdDeviation="6.01193"/>
<feComposite in2="hardAlpha" operator="out"/>
<feColorMatrix type="matrix" values="0 0 0 0 0 0 0 0 0 0 0 0 0 0 0 0 0 0 0.1 0"/>
<feBlend mode="normal" in2="BackgroundImageFix" result="effect1_dropShadow_1804_8829"/>
<feBlend mode="normal" in="SourceGraphic" in2="effect1_dropShadow_1804_8829" result="shape"/>
<feColorMatrix in="SourceAlpha" type="matrix" values="0 0 0 0 0 0 0 0 0 0 0 0 0 0 0 0 0 0 127 0" result="hardAlpha"/>
<feOffset/>
<feGaussianBlur stdDeviation="9.01789"/>
<feComposite in2="hardAlpha" operator="arithmetic" k2="-1" k3="1"/>
<feColorMatrix type="matrix" values="0 0 0 0 1 0 0 0 0 1 0 0 0 0 1 0 0 0 0.15 0"/>
<feBlend mode="normal" in2="shape" result="effect2_innerShadow_1804_8829"/>
</filter>
<filter id="filter18_di_1804_8829" x="141.275" y="204.155" width="112.089" height="31.1115" filterUnits="userSpaceOnUse" color-interpolation-filters="sRGB">
<feFlood flood-opacity="0" result="BackgroundImageFix"/>
<feColorMatrix in="SourceAlpha" type="matrix" values="0 0 0 0 0 0 0 0 0 0 0 0 0 0 0 0 0 0 127 0" result="hardAlpha"/>
<feOffset dy="6.01193"/>
<feGaussianBlur stdDeviation="6.01193"/>
<feComposite in2="hardAlpha" operator="out"/>
<feColorMatrix type="matrix" values="0 0 0 0 0 0 0 0 0 0 0 0 0 0 0 0 0 0 0.1 0"/>
<feBlend mode="normal" in2="BackgroundImageFix" result="effect1_dropShadow_1804_8829"/>
<feBlend mode="normal" in="SourceGraphic" in2="effect1_dropShadow_1804_8829" result="shape"/>
<feColorMatrix in="SourceAlpha" type="matrix" values="0 0 0 0 0 0 0 0 0 0 0 0 0 0 0 0 0 0 127 0" result="hardAlpha"/>
<feOffset/>
<feGaussianBlur stdDeviation="9.01789"/>
<feComposite in2="hardAlpha" operator="arithmetic" k2="-1" k3="1"/>
<feColorMatrix type="matrix" values="0 0 0 0 1 0 0 0 0 1 0 0 0 0 1 0 0 0 0.15 0"/>
<feBlend mode="normal" in2="shape" result="effect2_innerShadow_1804_8829"/>
</filter>
<filter id="filter19_di_1804_8829" x="141.275" y="231.862" width="112.089" height="31.1115" filterUnits="userSpaceOnUse" color-interpolation-filters="sRGB">
<feFlood flood-opacity="0" result="BackgroundImageFix"/>
<feColorMatrix in="SourceAlpha" type="matrix" values="0 0 0 0 0 0 0 0 0 0 0 0 0 0 0 0 0 0 127 0" result="hardAlpha"/>
<feOffset dy="6.01193"/>
<feGaussianBlur stdDeviation="6.01193"/>
<feComposite in2="hardAlpha" operator="out"/>
<feColorMatrix type="matrix" values="0 0 0 0 0 0 0 0 0 0 0 0 0 0 0 0 0 0 0.1 0"/>
<feBlend mode="normal" in2="BackgroundImageFix" result="effect1_dropShadow_1804_8829"/>
<feBlend mode="normal" in="SourceGraphic" in2="effect1_dropShadow_1804_8829" result="shape"/>
<feColorMatrix in="SourceAlpha" type="matrix" values="0 0 0 0 0 0 0 0 0 0 0 0 0 0 0 0 0 0 127 0" result="hardAlpha"/>
<feOffset/>
<feGaussianBlur stdDeviation="9.01789"/>
<feComposite in2="hardAlpha" operator="arithmetic" k2="-1" k3="1"/>
<feColorMatrix type="matrix" values="0 0 0 0 1 0 0 0 0 1 0 0 0 0 1 0 0 0 0.15 0"/>
<feBlend mode="normal" in2="shape" result="effect2_innerShadow_1804_8829"/>
</filter>
</defs>
</svg>
