<svg xmlns="http://www.w3.org/2000/svg" version="1.1" xmlns:xlink="http://www.w3.org/1999/xlink" xmlns:svgjs="http://svgjs.dev/svgjs" width="1440" height="560" preserveAspectRatio="none" viewBox="0 0 1440 560"><g mask="url(&quot;#SvgjsMask1049&quot;)" fill="none"><rect width="1440" height="560" x="0" y="0" fill="#0e2a47"></rect><path d="M0,528.004C97.056,524.126,167.729,439.371,242.595,377.485C309.169,322.454,373.923,265.699,411.442,187.899C449.488,109.008,457.83,21.969,456.277,-65.603C454.54,-163.521,455.263,-266.138,401.93,-348.275C345.279,-435.522,255.397,-500.579,155.346,-529.06C55.688,-557.429,-52.231,-543.841,-148.249,-504.891C-238.915,-468.112,-301.961,-391.113,-366.343,-317.438C-430.99,-243.46,-521.557,-173.513,-523.664,-75.291C-525.764,22.561,-425.159,86.98,-376.846,172.1C-333.863,247.829,-318.688,337.592,-255.381,397.381C-184.429,464.39,-97.515,531.9,0,528.004" fill="#0d2641"></path><path d="M1440 1151.971C1553.86 1142.0610000000001 1670.98 1130.6190000000001 1764.4189999999999 1064.806 1855.979 1000.317 1909.655 897.371 1949.871 792.85 1988.263 693.0699999999999 2011.025 585.685 1989.025 481.062 1967.749 379.88300000000004 1902.504 295.757 1829.8690000000001 222.176 1760.7649999999999 152.17200000000003 1670.229 117.33600000000001 1583.733 70.49200000000002 1472.134 10.052999999999997 1375.091-98.95399999999995 1248.328-92.774 1116.292-86.33699999999999 999.7860000000001 3.6369999999999436 912.823 103.19799999999998 825.67 202.97699999999998 782.221 331.582 763.156 462.685 744.068 593.942 747.323 730.535 804.167 850.375 860.587 969.3199999999999 958.194 1068.203 1077.1390000000001 1124.623 1188.997 1177.681 1316.662 1162.7060000000001 1440 1151.971" fill="#0f2e4d"></path></g><defs><mask id="SvgjsMask1049"><rect width="1440" height="560" fill="#ffffff"></rect></mask></defs></svg>