<svg xmlns="http://www.w3.org/2000/svg" version="1.1" xmlns:xlink="http://www.w3.org/1999/xlink" xmlns:svgjs="http://svgjs.dev/svgjs" width="1440" height="560" preserveAspectRatio="none" viewBox="0 0 1440 560"><g mask="url(&quot;#SvgjsMask1000&quot;)" fill="none"><rect width="1440" height="560" x="0" y="0" fill="#0e2a47"></rect><path d="M127.33 109.58L192.29 147.08L192.29 222.08L127.33 259.58L62.38 222.08L62.38 147.08zM62.38 222.08L127.33 259.58L127.33 334.58L62.38 372.08L-2.57 334.58L-2.57 259.58zM127.33 334.58L192.29 372.08L192.29 447.08L127.33 484.58L62.38 447.08L62.38 372.08zM62.38 447.08L127.33 484.58L127.33 559.58L62.38 597.08L-2.57 559.58L-2.57 484.58zM192.29 -2.92L257.24 34.58L257.24 109.58L192.29 147.08L127.33 109.58L127.33 34.58zM192.29 222.08L257.24 259.58L257.24 334.58L192.29 372.08L127.33 334.58L127.33 259.58zM257.24 334.58L322.19 372.08L322.19 447.08L257.24 484.58L192.29 447.08L192.29 372.08zM192.29 447.08L257.24 484.58L257.24 559.58L192.29 597.08L127.33 559.58L127.33 484.58zM257.24 559.58L322.19 597.08L322.19 672.08L257.24 709.58L192.29 672.08L192.29 597.08zM322.19 222.08L387.15 259.58L387.15 334.58L322.19 372.08L257.24 334.58L257.24 259.58zM452.1 222.08L517.06 259.58L517.06 334.58L452.1 372.08L387.15 334.58L387.15 259.58zM517.06 334.58L582.01 372.08L582.01 447.08L517.06 484.58L452.1 447.08L452.1 372.08zM517.06 559.58L582.01 597.08L582.01 672.08L517.06 709.58L452.1 672.08L452.1 597.08zM646.96 109.58L711.92 147.08L711.92 222.08L646.96 259.58L582.01 222.08L582.01 147.08zM646.96 559.58L711.92 597.08L711.92 672.08L646.96 709.58L582.01 672.08L582.01 597.08zM711.92 -2.92L776.87 34.58L776.87 109.58L711.92 147.08L646.96 109.58L646.96 34.58zM776.87 109.58L841.83 147.08L841.83 222.08L776.87 259.58L711.92 222.08L711.92 147.08zM776.87 559.58L841.83 597.08L841.83 672.08L776.87 709.58L711.92 672.08L711.92 597.08zM841.82 -2.92L906.78 34.58L906.78 109.58L841.82 147.08L776.87 109.58L776.87 34.58zM906.78 109.58L971.73 147.08L971.73 222.08L906.78 259.58L841.82 222.08L841.82 147.08zM906.78 334.58L971.73 372.08L971.73 447.08L906.78 484.58L841.82 447.08L841.82 372.08zM906.78 559.58L971.73 597.08L971.73 672.08L906.78 709.58L841.82 672.08L841.82 597.08zM971.73 -2.92L1036.69 34.58L1036.69 109.58L971.73 147.08L906.78 109.58L906.78 34.58zM1036.69 109.58L1101.64 147.08L1101.64 222.08L1036.69 259.58L971.73 222.08L971.73 147.08zM1036.69 559.58L1101.64 597.08L1101.64 672.08L1036.69 709.58L971.73 672.08L971.73 597.08zM1101.64 -2.92L1166.59 34.58L1166.59 109.58L1101.64 147.08L1036.69 109.58L1036.69 34.58zM1166.59 334.58L1231.55 372.08L1231.55 447.08L1166.59 484.58L1101.64 447.08L1101.64 372.08zM1101.64 447.08L1166.59 484.58L1166.59 559.58L1101.64 597.08L1036.69 559.58L1036.69 484.58zM1166.59 559.58L1231.55 597.08L1231.55 672.08L1166.59 709.58L1101.64 672.08L1101.64 597.08zM1296.5 109.58L1361.45 147.08L1361.45 222.08L1296.5 259.58L1231.55 222.08L1231.55 147.08zM1296.5 334.58L1361.45 372.08L1361.45 447.08L1296.5 484.58L1231.55 447.08L1231.55 372.08zM1361.46 -2.92L1426.41 34.58L1426.41 109.58L1361.46 147.08L1296.5 109.58L1296.5 34.58zM1361.46 222.08L1426.41 259.58L1426.41 334.58L1361.46 372.08L1296.5 334.58L1296.5 259.58zM1426.41 334.58L1491.36 372.08L1491.36 447.08L1426.41 484.58L1361.46 447.08L1361.46 372.08zM1426.41 559.58L1491.36 597.08L1491.36 672.08L1426.41 709.58L1361.46 672.08L1361.46 597.08zM1491.36 -2.92L1556.32 34.58L1556.32 109.58L1491.36 147.08L1426.41 109.58L1426.41 34.58zM1556.32 109.58L1621.27 147.08L1621.27 222.08L1556.32 259.58L1491.36 222.08L1491.36 147.08zM1491.36 222.08L1556.32 259.58L1556.32 334.58L1491.36 372.08L1426.41 334.58L1426.41 259.58zM1556.32 334.58L1621.27 372.08L1621.27 447.08L1556.32 484.58L1491.36 447.08L1491.36 372.08z" stroke="#03305d" stroke-width="2"></path><path d="M119.83 109.58 a7.5 7.5 0 1 0 15 0 a7.5 7.5 0 1 0 -15 0zM184.79 147.08 a7.5 7.5 0 1 0 15 0 a7.5 7.5 0 1 0 -15 0zM184.79 222.08 a7.5 7.5 0 1 0 15 0 a7.5 7.5 0 1 0 -15 0zM119.83 259.58 a7.5 7.5 0 1 0 15 0 a7.5 7.5 0 1 0 -15 0zM54.88 222.08 a7.5 7.5 0 1 0 15 0 a7.5 7.5 0 1 0 -15 0zM54.88 147.08 a7.5 7.5 0 1 0 15 0 a7.5 7.5 0 1 0 -15 0zM119.83 334.58 a7.5 7.5 0 1 0 15 0 a7.5 7.5 0 1 0 -15 0zM54.88 372.08 a7.5 7.5 0 1 0 15 0 a7.5 7.5 0 1 0 -15 0zM-10.07 334.58 a7.5 7.5 0 1 0 15 0 a7.5 7.5 0 1 0 -15 0zM-10.07 259.58 a7.5 7.5 0 1 0 15 0 a7.5 7.5 0 1 0 -15 0zM184.79 372.08 a7.5 7.5 0 1 0 15 0 a7.5 7.5 0 1 0 -15 0zM184.79 447.08 a7.5 7.5 0 1 0 15 0 a7.5 7.5 0 1 0 -15 0zM119.83 484.58 a7.5 7.5 0 1 0 15 0 a7.5 7.5 0 1 0 -15 0zM54.88 447.08 a7.5 7.5 0 1 0 15 0 a7.5 7.5 0 1 0 -15 0zM119.83 559.58 a7.5 7.5 0 1 0 15 0 a7.5 7.5 0 1 0 -15 0zM54.88 597.08 a7.5 7.5 0 1 0 15 0 a7.5 7.5 0 1 0 -15 0zM-10.07 559.58 a7.5 7.5 0 1 0 15 0 a7.5 7.5 0 1 0 -15 0zM-10.07 484.58 a7.5 7.5 0 1 0 15 0 a7.5 7.5 0 1 0 -15 0zM184.79 -2.92 a7.5 7.5 0 1 0 15 0 a7.5 7.5 0 1 0 -15 0zM249.74 34.58 a7.5 7.5 0 1 0 15 0 a7.5 7.5 0 1 0 -15 0zM249.74 109.58 a7.5 7.5 0 1 0 15 0 a7.5 7.5 0 1 0 -15 0zM119.83 34.58 a7.5 7.5 0 1 0 15 0 a7.5 7.5 0 1 0 -15 0zM249.74 259.58 a7.5 7.5 0 1 0 15 0 a7.5 7.5 0 1 0 -15 0zM249.74 334.58 a7.5 7.5 0 1 0 15 0 a7.5 7.5 0 1 0 -15 0zM314.69 372.08 a7.5 7.5 0 1 0 15 0 a7.5 7.5 0 1 0 -15 0zM314.69 447.08 a7.5 7.5 0 1 0 15 0 a7.5 7.5 0 1 0 -15 0zM249.74 484.58 a7.5 7.5 0 1 0 15 0 a7.5 7.5 0 1 0 -15 0zM249.74 559.58 a7.5 7.5 0 1 0 15 0 a7.5 7.5 0 1 0 -15 0zM184.79 597.08 a7.5 7.5 0 1 0 15 0 a7.5 7.5 0 1 0 -15 0zM314.69 597.08 a7.5 7.5 0 1 0 15 0 a7.5 7.5 0 1 0 -15 0zM314.69 672.08 a7.5 7.5 0 1 0 15 0 a7.5 7.5 0 1 0 -15 0zM249.74 709.58 a7.5 7.5 0 1 0 15 0 a7.5 7.5 0 1 0 -15 0zM184.79 672.08 a7.5 7.5 0 1 0 15 0 a7.5 7.5 0 1 0 -15 0zM314.69 222.08 a7.5 7.5 0 1 0 15 0 a7.5 7.5 0 1 0 -15 0zM379.65 259.58 a7.5 7.5 0 1 0 15 0 a7.5 7.5 0 1 0 -15 0zM379.65 334.58 a7.5 7.5 0 1 0 15 0 a7.5 7.5 0 1 0 -15 0zM444.6 222.08 a7.5 7.5 0 1 0 15 0 a7.5 7.5 0 1 0 -15 0zM509.56 259.58 a7.5 7.5 0 1 0 15 0 a7.5 7.5 0 1 0 -15 0zM509.56 334.58 a7.5 7.5 0 1 0 15 0 a7.5 7.5 0 1 0 -15 0zM444.6 372.08 a7.5 7.5 0 1 0 15 0 a7.5 7.5 0 1 0 -15 0zM574.51 372.08 a7.5 7.5 0 1 0 15 0 a7.5 7.5 0 1 0 -15 0zM574.51 447.08 a7.5 7.5 0 1 0 15 0 a7.5 7.5 0 1 0 -15 0zM509.56 484.58 a7.5 7.5 0 1 0 15 0 a7.5 7.5 0 1 0 -15 0zM444.6 447.08 a7.5 7.5 0 1 0 15 0 a7.5 7.5 0 1 0 -15 0zM509.56 559.58 a7.5 7.5 0 1 0 15 0 a7.5 7.5 0 1 0 -15 0zM574.51 597.08 a7.5 7.5 0 1 0 15 0 a7.5 7.5 0 1 0 -15 0zM574.51 672.08 a7.5 7.5 0 1 0 15 0 a7.5 7.5 0 1 0 -15 0zM509.56 709.58 a7.5 7.5 0 1 0 15 0 a7.5 7.5 0 1 0 -15 0zM444.6 672.08 a7.5 7.5 0 1 0 15 0 a7.5 7.5 0 1 0 -15 0zM444.6 597.08 a7.5 7.5 0 1 0 15 0 a7.5 7.5 0 1 0 -15 0zM639.46 109.58 a7.5 7.5 0 1 0 15 0 a7.5 7.5 0 1 0 -15 0zM704.42 147.08 a7.5 7.5 0 1 0 15 0 a7.5 7.5 0 1 0 -15 0zM704.42 222.08 a7.5 7.5 0 1 0 15 0 a7.5 7.5 0 1 0 -15 0zM639.46 259.58 a7.5 7.5 0 1 0 15 0 a7.5 7.5 0 1 0 -15 0zM574.51 222.08 a7.5 7.5 0 1 0 15 0 a7.5 7.5 0 1 0 -15 0zM574.51 147.08 a7.5 7.5 0 1 0 15 0 a7.5 7.5 0 1 0 -15 0zM639.46 559.58 a7.5 7.5 0 1 0 15 0 a7.5 7.5 0 1 0 -15 0zM704.42 597.08 a7.5 7.5 0 1 0 15 0 a7.5 7.5 0 1 0 -15 0zM704.42 672.08 a7.5 7.5 0 1 0 15 0 a7.5 7.5 0 1 0 -15 0zM639.46 709.58 a7.5 7.5 0 1 0 15 0 a7.5 7.5 0 1 0 -15 0zM704.42 -2.92 a7.5 7.5 0 1 0 15 0 a7.5 7.5 0 1 0 -15 0zM769.37 34.58 a7.5 7.5 0 1 0 15 0 a7.5 7.5 0 1 0 -15 0zM769.37 109.58 a7.5 7.5 0 1 0 15 0 a7.5 7.5 0 1 0 -15 0zM639.46 34.58 a7.5 7.5 0 1 0 15 0 a7.5 7.5 0 1 0 -15 0zM834.33 147.08 a7.5 7.5 0 1 0 15 0 a7.5 7.5 0 1 0 -15 0zM834.33 222.08 a7.5 7.5 0 1 0 15 0 a7.5 7.5 0 1 0 -15 0zM769.37 259.58 a7.5 7.5 0 1 0 15 0 a7.5 7.5 0 1 0 -15 0zM769.37 559.58 a7.5 7.5 0 1 0 15 0 a7.5 7.5 0 1 0 -15 0zM834.33 597.08 a7.5 7.5 0 1 0 15 0 a7.5 7.5 0 1 0 -15 0zM834.33 672.08 a7.5 7.5 0 1 0 15 0 a7.5 7.5 0 1 0 -15 0zM769.37 709.58 a7.5 7.5 0 1 0 15 0 a7.5 7.5 0 1 0 -15 0zM834.32 -2.92 a7.5 7.5 0 1 0 15 0 a7.5 7.5 0 1 0 -15 0zM899.28 34.58 a7.5 7.5 0 1 0 15 0 a7.5 7.5 0 1 0 -15 0zM899.28 109.58 a7.5 7.5 0 1 0 15 0 a7.5 7.5 0 1 0 -15 0zM834.32 147.08 a7.5 7.5 0 1 0 15 0 a7.5 7.5 0 1 0 -15 0zM964.23 147.08 a7.5 7.5 0 1 0 15 0 a7.5 7.5 0 1 0 -15 0zM964.23 222.08 a7.5 7.5 0 1 0 15 0 a7.5 7.5 0 1 0 -15 0zM899.28 259.58 a7.5 7.5 0 1 0 15 0 a7.5 7.5 0 1 0 -15 0zM834.32 222.08 a7.5 7.5 0 1 0 15 0 a7.5 7.5 0 1 0 -15 0zM899.28 334.58 a7.5 7.5 0 1 0 15 0 a7.5 7.5 0 1 0 -15 0zM964.23 372.08 a7.5 7.5 0 1 0 15 0 a7.5 7.5 0 1 0 -15 0zM964.23 447.08 a7.5 7.5 0 1 0 15 0 a7.5 7.5 0 1 0 -15 0zM899.28 484.58 a7.5 7.5 0 1 0 15 0 a7.5 7.5 0 1 0 -15 0zM834.32 447.08 a7.5 7.5 0 1 0 15 0 a7.5 7.5 0 1 0 -15 0zM834.32 372.08 a7.5 7.5 0 1 0 15 0 a7.5 7.5 0 1 0 -15 0zM899.28 559.58 a7.5 7.5 0 1 0 15 0 a7.5 7.5 0 1 0 -15 0zM964.23 597.08 a7.5 7.5 0 1 0 15 0 a7.5 7.5 0 1 0 -15 0zM964.23 672.08 a7.5 7.5 0 1 0 15 0 a7.5 7.5 0 1 0 -15 0zM899.28 709.58 a7.5 7.5 0 1 0 15 0 a7.5 7.5 0 1 0 -15 0zM834.32 672.08 a7.5 7.5 0 1 0 15 0 a7.5 7.5 0 1 0 -15 0zM834.32 597.08 a7.5 7.5 0 1 0 15 0 a7.5 7.5 0 1 0 -15 0zM964.23 -2.92 a7.5 7.5 0 1 0 15 0 a7.5 7.5 0 1 0 -15 0zM1029.19 34.58 a7.5 7.5 0 1 0 15 0 a7.5 7.5 0 1 0 -15 0zM1029.19 109.58 a7.5 7.5 0 1 0 15 0 a7.5 7.5 0 1 0 -15 0zM1094.14 147.08 a7.5 7.5 0 1 0 15 0 a7.5 7.5 0 1 0 -15 0zM1094.14 222.08 a7.5 7.5 0 1 0 15 0 a7.5 7.5 0 1 0 -15 0zM1029.19 259.58 a7.5 7.5 0 1 0 15 0 a7.5 7.5 0 1 0 -15 0zM1029.19 559.58 a7.5 7.5 0 1 0 15 0 a7.5 7.5 0 1 0 -15 0zM1094.14 597.08 a7.5 7.5 0 1 0 15 0 a7.5 7.5 0 1 0 -15 0zM1094.14 672.08 a7.5 7.5 0 1 0 15 0 a7.5 7.5 0 1 0 -15 0zM1029.19 709.58 a7.5 7.5 0 1 0 15 0 a7.5 7.5 0 1 0 -15 0zM1094.14 -2.92 a7.5 7.5 0 1 0 15 0 a7.5 7.5 0 1 0 -15 0zM1159.09 34.58 a7.5 7.5 0 1 0 15 0 a7.5 7.5 0 1 0 -15 0zM1159.09 109.58 a7.5 7.5 0 1 0 15 0 a7.5 7.5 0 1 0 -15 0zM1159.09 334.58 a7.5 7.5 0 1 0 15 0 a7.5 7.5 0 1 0 -15 0zM1224.05 372.08 a7.5 7.5 0 1 0 15 0 a7.5 7.5 0 1 0 -15 0zM1224.05 447.08 a7.5 7.5 0 1 0 15 0 a7.5 7.5 0 1 0 -15 0zM1159.09 484.58 a7.5 7.5 0 1 0 15 0 a7.5 7.5 0 1 0 -15 0zM1094.14 447.08 a7.5 7.5 0 1 0 15 0 a7.5 7.5 0 1 0 -15 0zM1094.14 372.08 a7.5 7.5 0 1 0 15 0 a7.5 7.5 0 1 0 -15 0zM1159.09 559.58 a7.5 7.5 0 1 0 15 0 a7.5 7.5 0 1 0 -15 0zM1029.19 484.58 a7.5 7.5 0 1 0 15 0 a7.5 7.5 0 1 0 -15 0zM1224.05 597.08 a7.5 7.5 0 1 0 15 0 a7.5 7.5 0 1 0 -15 0zM1224.05 672.08 a7.5 7.5 0 1 0 15 0 a7.5 7.5 0 1 0 -15 0zM1159.09 709.58 a7.5 7.5 0 1 0 15 0 a7.5 7.5 0 1 0 -15 0zM1289 109.58 a7.5 7.5 0 1 0 15 0 a7.5 7.5 0 1 0 -15 0zM1353.95 147.08 a7.5 7.5 0 1 0 15 0 a7.5 7.5 0 1 0 -15 0zM1353.95 222.08 a7.5 7.5 0 1 0 15 0 a7.5 7.5 0 1 0 -15 0zM1289 259.58 a7.5 7.5 0 1 0 15 0 a7.5 7.5 0 1 0 -15 0zM1224.05 222.08 a7.5 7.5 0 1 0 15 0 a7.5 7.5 0 1 0 -15 0zM1224.05 147.08 a7.5 7.5 0 1 0 15 0 a7.5 7.5 0 1 0 -15 0zM1289 334.58 a7.5 7.5 0 1 0 15 0 a7.5 7.5 0 1 0 -15 0zM1353.95 372.08 a7.5 7.5 0 1 0 15 0 a7.5 7.5 0 1 0 -15 0zM1353.95 447.08 a7.5 7.5 0 1 0 15 0 a7.5 7.5 0 1 0 -15 0zM1289 484.58 a7.5 7.5 0 1 0 15 0 a7.5 7.5 0 1 0 -15 0zM1353.96 -2.92 a7.5 7.5 0 1 0 15 0 a7.5 7.5 0 1 0 -15 0zM1418.91 34.58 a7.5 7.5 0 1 0 15 0 a7.5 7.5 0 1 0 -15 0zM1418.91 109.58 a7.5 7.5 0 1 0 15 0 a7.5 7.5 0 1 0 -15 0zM1353.96 147.08 a7.5 7.5 0 1 0 15 0 a7.5 7.5 0 1 0 -15 0zM1289 34.58 a7.5 7.5 0 1 0 15 0 a7.5 7.5 0 1 0 -15 0zM1353.96 222.08 a7.5 7.5 0 1 0 15 0 a7.5 7.5 0 1 0 -15 0zM1418.91 259.58 a7.5 7.5 0 1 0 15 0 a7.5 7.5 0 1 0 -15 0zM1418.91 334.58 a7.5 7.5 0 1 0 15 0 a7.5 7.5 0 1 0 -15 0zM1353.96 372.08 a7.5 7.5 0 1 0 15 0 a7.5 7.5 0 1 0 -15 0zM1483.86 372.08 a7.5 7.5 0 1 0 15 0 a7.5 7.5 0 1 0 -15 0zM1483.86 447.08 a7.5 7.5 0 1 0 15 0 a7.5 7.5 0 1 0 -15 0zM1418.91 484.58 a7.5 7.5 0 1 0 15 0 a7.5 7.5 0 1 0 -15 0zM1353.96 447.08 a7.5 7.5 0 1 0 15 0 a7.5 7.5 0 1 0 -15 0zM1418.91 559.58 a7.5 7.5 0 1 0 15 0 a7.5 7.5 0 1 0 -15 0zM1483.86 597.08 a7.5 7.5 0 1 0 15 0 a7.5 7.5 0 1 0 -15 0zM1483.86 672.08 a7.5 7.5 0 1 0 15 0 a7.5 7.5 0 1 0 -15 0zM1418.91 709.58 a7.5 7.5 0 1 0 15 0 a7.5 7.5 0 1 0 -15 0zM1353.96 672.08 a7.5 7.5 0 1 0 15 0 a7.5 7.5 0 1 0 -15 0zM1353.96 597.08 a7.5 7.5 0 1 0 15 0 a7.5 7.5 0 1 0 -15 0zM1483.86 -2.92 a7.5 7.5 0 1 0 15 0 a7.5 7.5 0 1 0 -15 0zM1548.82 34.58 a7.5 7.5 0 1 0 15 0 a7.5 7.5 0 1 0 -15 0zM1548.82 109.58 a7.5 7.5 0 1 0 15 0 a7.5 7.5 0 1 0 -15 0zM1483.86 147.08 a7.5 7.5 0 1 0 15 0 a7.5 7.5 0 1 0 -15 0zM1613.77 147.08 a7.5 7.5 0 1 0 15 0 a7.5 7.5 0 1 0 -15 0zM1613.77 222.08 a7.5 7.5 0 1 0 15 0 a7.5 7.5 0 1 0 -15 0zM1548.82 259.58 a7.5 7.5 0 1 0 15 0 a7.5 7.5 0 1 0 -15 0zM1483.86 222.08 a7.5 7.5 0 1 0 15 0 a7.5 7.5 0 1 0 -15 0zM1548.82 334.58 a7.5 7.5 0 1 0 15 0 a7.5 7.5 0 1 0 -15 0zM1613.77 372.08 a7.5 7.5 0 1 0 15 0 a7.5 7.5 0 1 0 -15 0zM1613.77 447.08 a7.5 7.5 0 1 0 15 0 a7.5 7.5 0 1 0 -15 0zM1548.82 484.58 a7.5 7.5 0 1 0 15 0 a7.5 7.5 0 1 0 -15 0z" fill="#03305d"></path><path d="M42.12 -11.34L85.42 13.66L85.42 63.66L42.12 88.66L-1.18 63.66L-1.18 13.66zM42.12 138.66L85.42 163.66L85.42 213.66L42.12 238.66L-1.18 213.66L-1.18 163.66zM42.12 438.66L85.42 463.66L85.42 513.66L42.12 538.66L-1.18 513.66L-1.18 463.66zM172.03 63.66L215.33 88.66L215.33 138.66L172.03 163.66L128.72 138.66L128.72 88.66zM301.94 288.66L345.24 313.66L345.24 363.66L301.94 388.66L258.63 363.66L258.63 313.66zM388.54 138.66L431.84 163.66L431.84 213.66L388.54 238.66L345.24 213.66L345.24 163.66zM518.45 63.66L561.75 88.66L561.75 138.66L518.45 163.66L475.15 138.66L475.15 88.66zM518.45 213.66L561.75 238.66L561.75 288.66L518.45 313.66L475.15 288.66L475.15 238.66zM605.05 213.66L648.36 238.66L648.36 288.66L605.05 313.66L561.75 288.66L561.75 238.66zM561.75 438.66L605.05 463.66L605.05 513.66L561.75 538.66L518.45 513.66L518.45 463.66zM691.66 213.66L734.96 238.66L734.96 288.66L691.66 313.66L648.36 288.66L648.36 238.66zM648.36 288.66L691.66 313.66L691.66 363.66L648.36 388.66L605.05 363.66L605.05 313.66zM778.26 363.66L821.57 388.66L821.57 438.66L778.26 463.66L734.96 438.66L734.96 388.66zM821.57 -11.34L864.87 13.66L864.87 63.66L821.57 88.66L778.26 63.66L778.26 13.66zM864.87 363.66L908.17 388.66L908.17 438.66L864.87 463.66L821.57 438.66L821.57 388.66zM821.57 438.66L864.87 463.66L864.87 513.66L821.57 538.66L778.26 513.66L778.26 463.66zM864.87 513.66L908.17 538.66L908.17 588.66L864.87 613.66L821.57 588.66L821.57 538.66zM951.47 63.66L994.78 88.66L994.78 138.66L951.47 163.66L908.17 138.66L908.17 88.66zM994.78 138.66L1038.08 163.66L1038.08 213.66L994.78 238.66L951.47 213.66L951.47 163.66zM1038.08 213.66L1081.38 238.66L1081.38 288.66L1038.08 313.66L994.78 288.66L994.78 238.66zM994.78 288.66L1038.08 313.66L1038.08 363.66L994.78 388.66L951.47 363.66L951.47 313.66zM994.78 438.66L1038.08 463.66L1038.08 513.66L994.78 538.66L951.47 513.66L951.47 463.66zM1038.08 513.66L1081.38 538.66L1081.38 588.66L1038.08 613.66L994.78 588.66L994.78 538.66zM1081.38 138.66L1124.68 163.66L1124.68 213.66L1081.38 238.66L1038.08 213.66L1038.08 163.66zM1297.89 63.66L1341.19 88.66L1341.19 138.66L1297.89 163.66L1254.59 138.66L1254.59 88.66zM1254.59 438.66L1297.89 463.66L1297.89 513.66L1254.59 538.66L1211.29 513.66L1211.29 463.66zM1341.19 -11.34L1384.5 13.66L1384.5 63.66L1341.19 88.66L1297.89 63.66L1297.89 13.66zM1427.8 -11.34L1471.1 13.66L1471.1 63.66L1427.8 88.66L1384.5 63.66L1384.5 13.66zM1427.8 288.66L1471.1 313.66L1471.1 363.66L1427.8 388.66L1384.5 363.66L1384.5 313.66z" stroke="rgba(6, 80, 156, 0.93)" stroke-width="2"></path></g><defs><mask id="SvgjsMask1000"><rect width="1440" height="560" fill="#ffffff"></rect></mask></defs></svg>