<?xml version="1.0" encoding="utf-8"?>
<!-- Generator: Adobe Illustrator 25.0.1, SVG Export Plug-In . SVG Version: 6.00 Build 0)  -->
<svg version="1.0" id="Layer_1" xmlns="http://www.w3.org/2000/svg" xmlns:xlink="http://www.w3.org/1999/xlink" x="0px" y="0px"
	 viewBox="0 0 1561.3 1184.2" style="enable-background:new 0 0 1561.3 1184.2;" xml:space="preserve">
<style type="text/css">
	.st0{fill:#669DF3;}
	.st1{fill:#1A73E8;}
</style>
<g>
	<path class="st0" d="M1016.7,725H788.2c-55.3,0-86.2,38.7-86.2,79.8c0,38,26.3,79.8,86.2,79.8h228.5V725z"/>
	<ellipse class="st1" cx="1016.7" cy="804.7" rx="78.6" ry="79.8"/>
	<path class="st0" d="M780.7,512.1H552.2c-55.3,0-86.2,38.7-86.2,79.9c0,38,26.3,79.8,86.2,79.8h228.5V512.1z"/>
	<ellipse class="st1" cx="780.7" cy="592" rx="78.6" ry="79.8"/>
	<path class="st0" d="M1016.7,299.3H788.2c-55.3,0-86.2,38.7-86.2,79.8c0,38,26.3,79.8,86.2,79.8h228.5V299.3z"/>
	<ellipse class="st1" cx="1016.7" cy="379.2" rx="78.6" ry="79.8"/>
</g>
</svg>
