<svg xmlns="http://www.w3.org/2000/svg" version="1.1" xmlns:xlink="http://www.w3.org/1999/xlink" xmlns:svgjs="http://svgjs.dev/svgjs" width="1440" height="250" preserveAspectRatio="none" viewBox="0 0 1440 250"><g mask="url(&quot;#SvgjsMask3705&quot;)" fill="none"><rect width="1440" height="250" x="0" y="0" fill="url(&quot;#SvgjsLinearGradient3706&quot;)"></rect><path d="M43 250L293 0L402.5 0L152.5 250z" fill="url(&quot;#SvgjsLinearGradient3707&quot;)"></path><path d="M245.60000000000002 250L495.6 0L759.6 0L509.6 250z" fill="url(&quot;#SvgjsLinearGradient3707&quot;)"></path><path d="M492.20000000000005 250L742.2 0L1021.2 0L771.2 250z" fill="url(&quot;#SvgjsLinearGradient3707&quot;)"></path><path d="M738.8000000000001 250L988.8000000000001 0L1309.8000000000002 0L1059.8000000000002 250z" fill="url(&quot;#SvgjsLinearGradient3707&quot;)"></path><path d="M1435 250L1185 0L1135.5 0L1385.5 250z" fill="url(&quot;#SvgjsLinearGradient3708&quot;)"></path><path d="M1172.4 250L922.4000000000001 0L863.9000000000001 0L1113.9 250z" fill="url(&quot;#SvgjsLinearGradient3708&quot;)"></path><path d="M919.8 250L669.8 0L557.3 0L807.3 250z" fill="url(&quot;#SvgjsLinearGradient3708&quot;)"></path><path d="M693.1999999999999 250L443.19999999999993 0L167.19999999999993 0L417.19999999999993 250z" fill="url(&quot;#SvgjsLinearGradient3708&quot;)"></path><path d="M1309.952275927032 250L1440 119.95227592703193L1440 250z" fill="url(&quot;#SvgjsLinearGradient3707&quot;)"></path><path d="M0 250L130.04772407296807 250L 0 119.95227592703193z" fill="url(&quot;#SvgjsLinearGradient3708&quot;)"></path></g><defs><mask id="SvgjsMask3705"><rect width="1440" height="250" fill="#ffffff"></rect></mask><linearGradient x1="50%" y1="0%" x2="50%" y2="100%" gradientUnits="userSpaceOnUse" id="SvgjsLinearGradient3706"><stop stop-color="#0e2a47" offset="0"></stop><stop stop-color="rgba(0, 23, 23, 1)" offset="1"></stop></linearGradient><linearGradient x1="0%" y1="100%" x2="100%" y2="0%" id="SvgjsLinearGradient3707"><stop stop-color="rgba(255, 255, 255, 0.06)" offset="0"></stop><stop stop-opacity="0" stop-color="rgba(255, 255, 255, 0.06)" offset="0.66"></stop></linearGradient><linearGradient x1="100%" y1="100%" x2="0%" y2="0%" id="SvgjsLinearGradient3708"><stop stop-color="rgba(255, 255, 255, 0.06)" offset="0"></stop><stop stop-opacity="0" stop-color="rgba(255, 255, 255, 0.06)" offset="0.66"></stop></linearGradient></defs></svg>