<svg xmlns="http://www.w3.org/2000/svg" version="1.1" xmlns:xlink="http://www.w3.org/1999/xlink" xmlns:svgjs="http://svgjs.dev/svgjs" width="1440" height="560" preserveAspectRatio="none" viewBox="0 0 1440 560"><g mask="url(&quot;#SvgjsMask1000&quot;)" fill="none"><rect width="1440" height="560" x="0" y="0" fill="#0e2a47"></rect><path d="M0,528.547C99.616,550.089,208.644,512.385,288.998,449.689C366.704,389.059,398.31,289.343,427.306,195.144C453.35,110.534,451.127,24.142,447.209,-64.299C442.866,-162.338,460.075,-269.399,403.186,-349.362C344.985,-431.169,244.382,-487.956,144.015,-490.47C48.331,-492.867,-22.13,-407.64,-106.33,-362.126C-170.945,-327.199,-244.496,-309.04,-293.255,-254.107C-342.342,-198.805,-362.999,-126.657,-379.343,-54.541C-396.907,22.961,-421.355,105.139,-391.348,178.723C-360.979,253.195,-278.435,286.351,-218.473,339.951C-145.264,405.392,-95.976,507.793,0,528.547" fill="#0b2239"></path><path d="M1440 953.6669999999999C1513.498 952.251 1574.1680000000001 904.24 1639.19 869.9449999999999 1710.738 832.2080000000001 1802.008 814.086 1840.017 742.682 1878.296 670.769 1845.143 584.049 1834.356 503.3 1823.454 421.695 1827.652 332.921 1776.643 268.297 1724.886 202.726 1639.667 176.45 1559.058 154.52499999999998 1479.736 132.95 1387.883 100.67700000000002 1317.695 143.469 1246.807 186.688 1256.312 292.875 1214.494 364.598 1182.891 418.802 1120.384 451.247 1103.0810000000001 511.558 1084.613 575.93 1093.159 645.014 1115.983 707.9739999999999 1140.075 774.434 1179.488 835.002 1235.817 877.7149999999999 1294.876 922.498 1365.896 955.094 1440 953.6669999999999" fill="#113255"></path></g><defs><mask id="SvgjsMask1000"><rect width="1440" height="560" fill="#ffffff"></rect></mask></defs></svg>